  0
SECTION
  2
HEADER
  9
$ACADVER
  1
AC1014
  9
$ACADMAINTVER
 70
     0
  9
$DWGCODEPAGE
  3
ANSI_1252
  9
$INSBASE
 10
0.0
 20
0.0
 30
0.0
  9
$EXTMIN
 10
0.0
 20
0.0
 30
0.0
  9
$EXTMAX
 10
11.692913
 20
8.267717
 30
0.0
  9
$LIMMIN
 10
0.0
 20
0.0
  9
$LIMMAX
 10
12.0
 20
9.0
  9
$ORTHOMODE
 70
     0
  9
$REGENMODE
 70
     1
  9
$FILLMODE
 70
     1
  9
$QTEXTMODE
 70
     0
  9
$MIRRTEXT
 70
     1
  9
$DRAGMODE
 70
     2
  9
$LTSCALE
 40
1.0
  9
$OSMODE
 70
     0
  9
$ATTMODE
 70
     1
  9
$TEXTSIZE
 40
0.2
  9
$TRACEWID
 40
0.05
  9
$TEXTSTYLE
  7
STANDARD
  9
$CLAYER
  8
0
  9
$CELTYPE
  6
BYLAYER
  9
$CECOLOR
 62
   256
  9
$CELTSCALE
 40
1.0
  9
$DELOBJ
 70
     1
  9
$DISPSILH
 70
     0
  9
$DIMSCALE
 40
1.0
  9
$DIMASZ
 40
0.18
  9
$DIMEXO
 40
0.0625
  9
$DIMDLI
 40
0.38
  9
$DIMRND
 40
0.0
  9
$DIMDLE
 40
0.0
  9
$DIMEXE
 40
0.18
  9
$DIMTP
 40
0.0
  9
$DIMTM
 40
0.0
  9
$DIMTXT
 40
0.18
  9
$DIMCEN
 40
0.09
  9
$DIMTSZ
 40
0.0
  9
$DIMTOL
 70
     0
  9
$DIMLIM
 70
     0
  9
$DIMTIH
 70
     1
  9
$DIMTOH
 70
     1
  9
$DIMSE1
 70
     0
  9
$DIMSE2
 70
     0
  9
$DIMTAD
 70
     0
  9
$DIMZIN
 70
     0
  9
$DIMBLK
  1

  9
$DIMASO
 70
     1
  9
$DIMSHO
 70
     1
  9
$DIMPOST
  1

  9
$DIMAPOST
  1

  9
$DIMALT
 70
     0
  9
$DIMALTD
 70
     2
  9
$DIMALTF
 40
25.4
  9
$DIMLFAC
 40
1.0
  9
$DIMTOFL
 70
     0
  9
$DIMTVP
 40
0.0
  9
$DIMTIX
 70
     0
  9
$DIMSOXD
 70
     0
  9
$DIMSAH
 70
     0
  9
$DIMBLK1
  1

  9
$DIMBLK2
  1

  9
$DIMSTYLE
  2
STANDARD
  9
$DIMCLRD
 70
     0
  9
$DIMCLRE
 70
     0
  9
$DIMCLRT
 70
     0
  9
$DIMTFAC
 40
1.0
  9
$DIMGAP
 40
0.09
  9
$DIMJUST
 70
     0
  9
$DIMSD1
 70
     0
  9
$DIMSD2
 70
     0
  9
$DIMTOLJ
 70
     1
  9
$DIMTZIN
 70
     0
  9
$DIMALTZ
 70
     0
  9
$DIMALTTZ
 70
     0
  9
$DIMFIT
 70
     3
  9
$DIMUPT
 70
     0
  9
$DIMUNIT
 70
     2
  9
$DIMDEC
 70
     4
  9
$DIMTDEC
 70
     4
  9
$DIMALTU
 70
     2
  9
$DIMALTTD
 70
     2
  9
$DIMTXSTY
  7
STANDARD
  9
$DIMAUNIT
 70
     0
  9
$LUNITS
 70
     2
  9
$LUPREC
 70
     4
  9
$SKETCHINC
 40
0.1
  9
$FILLETRAD
 40
0.5
  9
$AUNITS
 70
     0
  9
$AUPREC
 70
     0
  9
$MENU
  1
.
  9
$ELEVATION
 40
0.0
  9
$PELEVATION
 40
0.0
  9
$THICKNESS
 40
0.0
  9
$LIMCHECK
 70
     0
  9
$BLIPMODE
 70
     0
  9
$CHAMFERA
 40
0.5
  9
$CHAMFERB
 40
0.5
  9
$CHAMFERC
 40
1.0
  9
$CHAMFERD
 40
0.0
  9
$SKPOLY
 70
     0
  9
$TDCREATE
 40
2450772.666465926
  9
$TDUPDATE
 40
2452929.881331019
  9
$TDINDWG
 40
0.0011564931
  9
$TDUSRTIMER
 40
0.0011564931
  9
$USRTIMER
 70
     1
  9
$ANGBASE
 50
0.0
  9
$ANGDIR
 70
     0
  9
$PDMODE
 70
     0
  9
$PDSIZE
 40
0.0
  9
$PLINEWID
 40
0.0
  9
$COORDS
 70
     1
  9
$SPLFRAME
 70
     0
  9
$SPLINETYPE
 70
     6
  9
$SPLINESEGS
 70
     8
  9
$ATTDIA
 70
     0
  9
$ATTREQ
 70
     1
  9
$HANDLING
 70
     1
  9
$HANDSEED
  5
137
  9
$SURFTAB1
 70
     6
  9
$SURFTAB2
 70
     6
  9
$SURFTYPE
 70
     6
  9
$SURFU
 70
     6
  9
$SURFV
 70
     6
  9
$UCSNAME
  2

  9
$UCSORG
 10
0.0
 20
0.0
 30
0.0
  9
$UCSXDIR
 10
1.0
 20
0.0
 30
0.0
  9
$UCSYDIR
 10
0.0
 20
1.0
 30
0.0
  9
$PUCSNAME
  2

  9
$PUCSORG
 10
0.0
 20
0.0
 30
0.0
  9
$PUCSXDIR
 10
1.0
 20
0.0
 30
0.0
  9
$PUCSYDIR
 10
0.0
 20
1.0
 30
0.0
  9
$USERI1
 70
     0
  9
$USERI2
 70
     0
  9
$USERI3
 70
     0
  9
$USERI4
 70
     0
  9
$USERI5
 70
     0
  9
$USERR1
 40
0.0
  9
$USERR2
 40
0.0
  9
$USERR3
 40
0.0
  9
$USERR4
 40
0.0
  9
$USERR5
 40
0.0
  9
$WORLDVIEW
 70
     1
  9
$SHADEDGE
 70
     3
  9
$SHADEDIF
 70
    70
  9
$TILEMODE
 70
     1
  9
$MAXACTVP
 70
    48
  9
$PINSBASE
 10
0.0
 20
0.0
 30
0.0
  9
$PLIMCHECK
 70
     0
  9
$PEXTMIN
 10
1.000000E+20
 20
1.000000E+20
 30
1.000000E+20
  9
$PEXTMAX
 10
-1.000000E+20
 20
-1.000000E+20
 30
-1.000000E+20
  9
$PLIMMIN
 10
0.0
 20
0.0
  9
$PLIMMAX
 10
12.0
 20
9.0
  9
$UNITMODE
 70
     0
  9
$VISRETAIN
 70
     1
  9
$PLINEGEN
 70
     0
  9
$PSLTSCALE
 70
     1
  9
$TREEDEPTH
 70
  3020
  9
$PICKSTYLE
 70
     1
  9
$CMLSTYLE
  2
STANDARD
  9
$CMLJUST
 70
     0
  9
$CMLSCALE
 40
1.0
  9
$PROXYGRAPHICS
 70
     1
  9
$MEASUREMENT
 70
     0
  0
ENDSEC
  0
SECTION
  2
CLASSES
  0
CLASS
  1
LWPOLYLINE
  2
AcDbPolyline
  3
"AutoCAD"
 90
        0
280
     0
281
     1
  0
CLASS
  1
IMAGE
  2
AcDbRasterImage
  3
ISM
 90
      127
280
     0
281
     1
  0
CLASS
  1
OLE2FRAME
  2
AcDbOle2Frame
  3
""
 90
        0
280
     0
281
     1
  0
CLASS
  1
HATCH
  2
AcDbHatch
  3
"ACAD_SEDONA"
 90
        0
280
     0
281
     1
  0
CLASS
  1
DICTIONARYVAR
  2
AcDbDictionaryVar
  3
"AutoCAD"
 90
        0
280
     0
281
     0
  0
CLASS
  1
RASTERVARIABLES
  2
AcDbRasterVariables
  3
ISM
 90
        0
280
     0
281
     0
  0
CLASS
  1
IMAGEDEF
  2
AcDbRasterImageDef
  3
ISM
 90
        0
280
     0
281
     0
  0
CLASS
  1
IMAGEDEF_REACTOR
  2
AcDbRasterImageDefReactor
  3
ISM
 90
        1
280
     0
281
     0
  0
CLASS
  1
IDBUFFER
  2
AcDbIdBuffer
  3
"Acad"
 90
        0
280
     0
281
     0
  0
CLASS
  1
SPATIAL_FILTER
  2
AcDbSpatialFilter
  3
"Acad"
 90
        0
280
     0
281
     0
  0
CLASS
  1
XRECORD
  2
AcDbXrecord
  3
"<Built In>"
 90
        0
280
     0
281
     0
  0
CLASS
  1
SORTENTSTABLE
  2
AcDbSortentsTable
  3
"AutoCAD"
 90
        0
280
     0
281
     0
  0
CLASS
  1
LAYER_INDEX
  2
AcDbLayerIndex
  3
"Acad"
 90
        0
280
     0
281
     0
  0
CLASS
  1
SPATIAL_INDEX
  2
AcDbSpatialIndex
  3
"Acad"
 90
        0
280
     0
281
     0
  0
CLASS
  1
OBJECT_PTR
  2
CAseDLPNTableRecord
  3
"ASE-LPNTableRecord"
 90
        1
280
     0
281
     0
  0
CLASS
  1
LAYOUT
  2
AcDbLayout
  3
"AutoCAD 2000"
 90
        1
280
     0
281
     0
  0
CLASS
  1
PLOTSETTINGS
  2
AcDbPlotSettings
  3
"AutoCAD 2000"
 90
        1
280
     0
281
     0
  0
CLASS
  1
ACDBDICTIONARYWDFLT
  2
AcDbDictionaryWithDefault
  3
"AutoCAD 2000"
 90
        1
280
     0
281
     0
  0
CLASS
  1
ACDBPLACEHOLDER
  2
AcDbPlaceHolder
  3
"AutoCAD 2000"
 90
        1
280
     0
281
     0
  0
CLASS
  1
VBA_PROJECT
  2
AcDbVbaProject
  3
"acadvba"
 90
        1
280
     0
281
     0
  0
CLASS
  1
WIPEOUT
  2
AcDbWipeout
  3
WipeOut|AutoCAD Express Tool|expresstools@autodesk.com
 90
      127
280
     0
281
     1
  0
CLASS
  1
WIPEOUTVARIABLES
  2
AcDbWipeoutVariables
  3
WipeOut|AutoCAD Express Tool|expresstools@autodesk.com
 90
        0
280
     0
281
     0
  0
CLASS
  1
RTEXT
  2
RText
  3
RText|AutoCAD Express Tool|expresstools@autodesk.com
 90
        0
280
     0
281
     1
  0
CLASS
  1
ARCALIGNEDTEXT
  2
AcDbArcAlignedText
  3
ATEXT|AutoCAD Express Tool|expresstools@autodesk.com
 90
        0
280
     0
281
     1
  0
ENDSEC
  0
SECTION
  2
TABLES
  0
TABLE
  2
VPORT
  5
8
100
AcDbSymbolTable
 70
     1
  0
VPORT
  5
25
100
AcDbSymbolTableRecord
100
AcDbViewportTableRecord
  2
*ACTIVE
 70
    64
 10
0.0
 20
0.0
 11
1.0
 21
1.0
 12
5.846457
 22
4.133858
 13
0.0
 23
0.0
 14
0.5
 24
0.5
 15
0.5
 25
0.5
 16
0.0
 26
0.0
 36
1.0
 17
0.0
 27
0.0
 37
0.0
 40
8.267717
 41
1.414286
 42
50.0
 43
0.0
 44
0.0
 50
0.0
 51
0.0
 71
     0
 72
   100
 73
     1
 74
     1
 75
     0
 76
     0
 77
     0
 78
     0
  0
ENDTAB
  0
TABLE
  2
LTYPE
  5
5
100
AcDbSymbolTable
 70
     3
  0
LTYPE
  5
12
100
AcDbSymbolTableRecord
100
AcDbLinetypeTableRecord
  2
BYBLOCK
 70
    64
  3

 72
    65
 73
     0
 40
0.0
  0
LTYPE
  5
13
100
AcDbSymbolTableRecord
100
AcDbLinetypeTableRecord
  2
BYLAYER
 70
    64
  3

 72
    65
 73
     0
 40
0.0
  0
LTYPE
  5
14
100
AcDbSymbolTableRecord
100
AcDbLinetypeTableRecord
  2
CONTINUOUS
 70
    64
  3
Solid line
 72
    65
 73
     0
 40
0.0
  0
ENDTAB
  0
TABLE
  2
LAYER
  5
2
100
AcDbSymbolTable
 70
     2
  0
LAYER
  5
E
100
AcDbSymbolTableRecord
100
AcDbLayerTableRecord
  2
0
 70
    64
 62
     7
  6
CONTINUOUS
  0
LAYER
  5
2E
100
AcDbSymbolTableRecord
100
AcDbLayerTableRecord
  2
NETWORK
 70
     0
 62
     7
  6
CONTINUOUS
  0
ENDTAB
  0
TABLE
  2
STYLE
  5
3
100
AcDbSymbolTable
 70
     2
  0
STYLE
  5
F
100
AcDbSymbolTableRecord
100
AcDbTextStyleTableRecord
  2
STANDARD
 70
    64
 40
0.0
 41
1.0
 50
0.0
 71
     0
 42
0.2
  3
txt.shx
  4

  0
STYLE
  5
127
100
AcDbSymbolTableRecord
100
AcDbTextStyleTableRecord
  2
_NET_TEXT
 70
     0
 40
0.0
 41
1.0
 50
0.0
 71
     0
 42
0.2
  3
arial.ttf
  4

1001
ACAD
1000
Arial
1071
 50331647
  0
ENDTAB
  0
TABLE
  2
VIEW
  5
6
100
AcDbSymbolTable
 70
     0
  0
ENDTAB
  0
TABLE
  2
UCS
  5
7
100
AcDbSymbolTable
 70
     0
  0
ENDTAB
  0
TABLE
  2
APPID
  5
9
100
AcDbSymbolTable
 70
     1
  0
APPID
  5
10
100
AcDbSymbolTableRecord
100
AcDbRegAppTableRecord
  2
ACAD
 70
    64
  0
ENDTAB
  0
TABLE
  2
DIMSTYLE
  5
A
100
AcDbSymbolTable
 70
     1
  0
DIMSTYLE
105
1D
100
AcDbSymbolTableRecord
100
AcDbDimStyleTableRecord
  2
STANDARD
 70
    64
  3

  4

  5

  6

  7

 40
1.0
 41
0.18
 42
0.0625
 43
0.38
 44
0.18
 45
0.0
 46
0.0
 47
0.0
 48
0.0
 71
     0
 72
     0
 73
     1
 74
     1
 75
     0
 76
     0
 77
     0
 78
     0
140
0.18
141
0.09
142
0.0
143
25.4
144
1.0
145
0.0
146
1.0
147
0.09
170
     0
171
     2
172
     0
173
     0
174
     0
175
     0
176
     0
177
     0
178
     0
270
     2
271
     4
272
     4
273
     2
274
     2
275
     0
280
     0
281
     0
282
     0
283
     1
284
     0
285
     0
286
     0
287
     3
288
     0
340
F
  0
ENDTAB
  0
TABLE
  2
BLOCK_RECORD
  5
1
100
AcDbSymbolTable
 70
     1
  0
BLOCK_RECORD
  5
18
100
AcDbSymbolTableRecord
100
AcDbBlockTableRecord
  2
*MODEL_SPACE
  0
BLOCK_RECORD
  5
15
100
AcDbSymbolTableRecord
100
AcDbBlockTableRecord
  2
*PAPER_SPACE
  0
BLOCK_RECORD
  5
129
100
AcDbSymbolTableRecord
100
AcDbBlockTableRecord
  2
TOWER_BOX
  0
ENDTAB
  0
ENDSEC
  0
SECTION
  2
BLOCKS
  0
BLOCK
  5
19
100
AcDbEntity
  8
0
100
AcDbBlockBegin
  2
*MODEL_SPACE
 70
     0
 10
0.0
 20
0.0
 30
0.0
  3
*MODEL_SPACE
  1

  0
ENDBLK
  5
1A
100
AcDbEntity
  8
0
100
AcDbBlockEnd
  0
BLOCK
  5
16
100
AcDbEntity
 67
     1
  8
0
100
AcDbBlockBegin
  2
*PAPER_SPACE
 70
     0
 10
0.0
 20
0.0
 30
0.0
  3
*PAPER_SPACE
  1

  0
ENDBLK
  5
17
100
AcDbEntity
 67
     1
  8
0
100
AcDbBlockEnd
  0
BLOCK
  5
2D
100
AcDbEntity
  8
0
100
AcDbBlockBegin
  2
TOWER_BOX
 70
    66
 10
3.309547
 20
4.404528
 30
0.0
  3
TOWER_BOX
  1

  0
ATTDEF
  5
2F
100
AcDbEntity
  8
NETWORK
100
AcDbText
 10
3.309547
 20
52.029528
 30
0.0
 40
6.35
  1

100
AcDbAttributeDefinition
  3
Enter the manufacturer name.
  2
MANUFACTURER
 70
     1
  0
ATTDEF
  5
30
100
AcDbEntity
  8
NETWORK
100
AcDbText
 10
3.309547
 20
42.504528
 30
0.0
 40
6.35
  1

100
AcDbAttributeDefinition
  3
Enter the product number.
  2
PRODUCTNUMBER
 70
     1
  0
ATTDEF
  5
31
100
AcDbEntity
  8
NETWORK
100
AcDbText
 10
3.309547
 20
32.979528
 30
0.0
 40
6.35
  1

100
AcDbAttributeDefinition
  3
Enter the part number.
  2
PARTNUMBER
 70
     1
  0
ATTDEF
  5
32
100
AcDbEntity
  8
NETWORK
100
AcDbText
 10
3.309547
 20
23.454528
 30
0.0
 40
6.35
  1

100
AcDbAttributeDefinition
  3
Enter the product description.
  2
PRODUCTDESCRIPTION
 70
     1
  0
ATTDEF
  5
33
100
AcDbEntity
  8
NETWORK
100
AcDbText
 10
3.309547
 20
13.929528
 30
0.0
 40
6.35
  1

100
AcDbAttributeDefinition
  3
Enter the asset ID.
  2
ASSETNUMBER
 70
     1
  0
ATTDEF
  5
34
100
AcDbEntity
  8
NETWORK
100
AcDbText
 10
3.309547
 20
4.404528
 30
0.0
 40
6.35
  1

100
AcDbAttributeDefinition
  3
Enter the serial number.
  2
SERIALNUMBER
 70
     1
  0
ATTDEF
  5
35
100
AcDbEntity
  8
NETWORK
100
AcDbText
 10
3.309547
 20
-5.120472
 30
0.0
 40
6.35
  1

100
AcDbAttributeDefinition
  3
Enter the location.
  2
LOCATION
 70
     1
  0
ATTDEF
  5
36
100
AcDbEntity
  8
NETWORK
100
AcDbText
 10
3.309547
 20
-14.645472
 30
0.0
 40
6.35
  1

100
AcDbAttributeDefinition
  3
Enter the building.
  2
BUILDING
 70
     1
  0
ATTDEF
  5
37
100
AcDbEntity
  8
NETWORK
100
AcDbText
 10
3.309547
 20
-24.170472
 30
0.0
 40
6.35
  1

100
AcDbAttributeDefinition
  3
Enter the room.
  2
ROOM
 70
     1
  0
ATTDEF
  5
38
100
AcDbEntity
  8
NETWORK
100
AcDbText
 10
3.309547
 20
-33.695472
 30
0.0
 40
6.35
  1

100
AcDbAttributeDefinition
  3
Enter the department.
  2
DEPARTMENT
 70
     1
  0
POLYLINE
  5
39
100
AcDbEntity
  8
NETWORK
  6
CONTINUOUS
 62
     7
100
AcDb2dPolyline
 66
     1
 10
0.0
 20
0.0
 30
0.0
 70
     1
  0
VERTEX
  5
3A
100
AcDbEntity
  8
NETWORK
  6
CONTINUOUS
 62
     7
100
AcDbVertex
100
AcDb2dVertex
 10
1.771654
 20
1.509669
 30
0.0
  0
VERTEX
  5
3B
100
AcDbEntity
  8
NETWORK
  6
CONTINUOUS
 62
     7
100
AcDbVertex
100
AcDb2dVertex
 10
4.847441
 20
1.509669
 30
0.0
  0
VERTEX
  5
3C
100
AcDbEntity
  8
NETWORK
  6
CONTINUOUS
 62
     7
100
AcDbVertex
100
AcDb2dVertex
 10
4.847441
 20
7.480315
 30
0.0
  0
VERTEX
  5
3D
100
AcDbEntity
  8
NETWORK
  6
CONTINUOUS
 62
     7
100
AcDbVertex
100
AcDb2dVertex
 10
1.771654
 20
7.480315
 30
0.0
  0
SEQEND
  5
3E
100
AcDbEntity
  8
NETWORK
  6
CONTINUOUS
 62
     7
  0
POLYLINE
  5
3F
100
AcDbEntity
  8
NETWORK
  6
CONTINUOUS
 62
     7
100
AcDb2dPolyline
 66
     1
 10
0.0
 20
0.0
 30
0.0
 70
     1
  0
VERTEX
  5
40
100
AcDbEntity
  8
NETWORK
  6
CONTINUOUS
 62
     7
100
AcDbVertex
100
AcDb2dVertex
 10
2.011949
 20
1.32874
 30
0.0
  0
VERTEX
  5
41
100
AcDbEntity
  8
NETWORK
  6
CONTINUOUS
 62
     7
100
AcDbVertex
100
AcDb2dVertex
 10
4.559086
 20
1.32874
 30
0.0
  0
VERTEX
  5
42
100
AcDbEntity
  8
NETWORK
  6
CONTINUOUS
 62
     7
100
AcDbVertex
100
AcDb2dVertex
 10
4.559086
 20
1.509669
 30
0.0
  0
VERTEX
  5
43
100
AcDbEntity
  8
NETWORK
  6
CONTINUOUS
 62
     7
100
AcDbVertex
100
AcDb2dVertex
 10
2.011949
 20
1.509669
 30
0.0
  0
SEQEND
  5
44
100
AcDbEntity
  8
NETWORK
  6
CONTINUOUS
 62
     7
  0
POLYLINE
  5
45
100
AcDbEntity
  8
NETWORK
  6
CONTINUOUS
 62
     7
100
AcDb2dPolyline
 66
     1
 10
0.0
 20
0.0
 30
0.0
 70
     1
  0
VERTEX
  5
46
100
AcDbEntity
  8
NETWORK
  6
CONTINUOUS
 62
     7
100
AcDbVertex
100
AcDb2dVertex
 10
1.96389
 20
6.439975
 30
0.0
  0
VERTEX
  5
47
100
AcDbEntity
  8
NETWORK
  6
CONTINUOUS
 62
     7
100
AcDbVertex
100
AcDb2dVertex
 10
4.270731
 20
6.439975
 30
0.0
  0
VERTEX
  5
48
100
AcDbEntity
  8
NETWORK
  6
CONTINUOUS
 62
     7
100
AcDbVertex
100
AcDb2dVertex
 10
4.270731
 20
7.027993
 30
0.0
  0
VERTEX
  5
49
100
AcDbEntity
  8
NETWORK
  6
CONTINUOUS
 62
     7
100
AcDbVertex
100
AcDb2dVertex
 10
1.96389
 20
7.027993
 30
0.0
  0
SEQEND
  5
4A
100
AcDbEntity
  8
NETWORK
  6
CONTINUOUS
 62
     7
  0
POLYLINE
  5
4B
100
AcDbEntity
  8
NETWORK
  6
CONTINUOUS
 62
     7
100
AcDb2dPolyline
 66
     1
 10
0.0
 20
0.0
 30
0.0
 70
     1
  0
VERTEX
  5
4C
100
AcDbEntity
  8
NETWORK
  6
CONTINUOUS
 62
     7
100
AcDbVertex
100
AcDb2dVertex
 10
4.270731
 20
5.173474
 30
0.0
  0
VERTEX
  5
4D
100
AcDbEntity
  8
NETWORK
  6
CONTINUOUS
 62
     7
100
AcDbVertex
100
AcDb2dVertex
 10
4.655204
 20
5.173474
 30
0.0
  0
VERTEX
  5
4E
100
AcDbEntity
  8
NETWORK
  6
CONTINUOUS
 62
     7
100
AcDbVertex
100
AcDb2dVertex
 10
4.655204
 20
7.027993
 30
0.0
  0
VERTEX
  5
4F
100
AcDbEntity
  8
NETWORK
  6
CONTINUOUS
 62
     7
100
AcDbVertex
100
AcDb2dVertex
 10
4.270731
 20
7.027993
 30
0.0
  0
SEQEND
  5
50
100
AcDbEntity
  8
NETWORK
  6
CONTINUOUS
 62
     7
  0
POLYLINE
  5
51
100
AcDbEntity
  8
NETWORK
  6
CONTINUOUS
 62
     7
100
AcDb2dPolyline
 66
     1
 10
0.0
 20
0.0
 30
0.0
 70
     1
  0
VERTEX
  5
52
100
AcDbEntity
  8
NETWORK
  6
CONTINUOUS
 62
     7
100
AcDbVertex
100
AcDb2dVertex
 10
1.96389
 20
5.806725
 30
0.0
  0
VERTEX
  5
53
100
AcDbEntity
  8
NETWORK
  6
CONTINUOUS
 62
     7
100
AcDbVertex
100
AcDb2dVertex
 10
4.270731
 20
5.806725
 30
0.0
  0
VERTEX
  5
54
100
AcDbEntity
  8
NETWORK
  6
CONTINUOUS
 62
     7
100
AcDbVertex
100
AcDb2dVertex
 10
4.270731
 20
6.439975
 30
0.0
  0
VERTEX
  5
55
100
AcDbEntity
  8
NETWORK
  6
CONTINUOUS
 62
     7
100
AcDbVertex
100
AcDb2dVertex
 10
1.96389
 20
6.439975
 30
0.0
  0
SEQEND
  5
56
100
AcDbEntity
  8
NETWORK
  6
CONTINUOUS
 62
     7
  0
POLYLINE
  5
57
100
AcDbEntity
  8
NETWORK
  6
CONTINUOUS
 62
     7
100
AcDb2dPolyline
 66
     1
 10
0.0
 20
0.0
 30
0.0
 70
     1
  0
VERTEX
  5
58
100
AcDbEntity
  8
NETWORK
  6
CONTINUOUS
 62
     7
100
AcDbVertex
100
AcDb2dVertex
 10
1.96389
 20
5.173474
 30
0.0
  0
VERTEX
  5
59
100
AcDbEntity
  8
NETWORK
  6
CONTINUOUS
 62
     7
100
AcDbVertex
100
AcDb2dVertex
 10
4.270731
 20
5.173474
 30
0.0
  0
VERTEX
  5
5A
100
AcDbEntity
  8
NETWORK
  6
CONTINUOUS
 62
     7
100
AcDbVertex
100
AcDb2dVertex
 10
4.270731
 20
5.806725
 30
0.0
  0
VERTEX
  5
5B
100
AcDbEntity
  8
NETWORK
  6
CONTINUOUS
 62
     7
100
AcDbVertex
100
AcDb2dVertex
 10
1.96389
 20
5.806725
 30
0.0
  0
SEQEND
  5
5C
100
AcDbEntity
  8
NETWORK
  6
CONTINUOUS
 62
     7
  0
POLYLINE
  5
5D
100
AcDbEntity
  8
NETWORK
  6
CONTINUOUS
 62
     7
100
AcDb2dPolyline
 66
     1
 10
0.0
 20
0.0
 30
0.0
 70
     1
  0
VERTEX
  5
5E
100
AcDbEntity
  8
NETWORK
  6
CONTINUOUS
 62
     7
100
AcDbVertex
100
AcDb2dVertex
 10
2.348364
 20
4.902081
 30
0.0
 42
0.104021
  0
VERTEX
  5
5F
100
AcDbEntity
  8
NETWORK
  6
CONTINUOUS
 62
     7
100
AcDbVertex
100
AcDb2dVertex
 10
2.341047
 20
4.936701
 30
0.0
 42
0.100612
  0
VERTEX
  5
60
100
AcDbEntity
  8
NETWORK
  6
CONTINUOUS
 62
     7
100
AcDbVertex
100
AcDb2dVertex
 10
2.320211
 20
4.966049
 30
0.0
 42
0.09614
  0
VERTEX
  5
61
100
AcDbEntity
  8
NETWORK
  6
CONTINUOUS
 62
     7
100
AcDbVertex
100
AcDb2dVertex
 10
2.289028
 20
4.98566
 30
0.0
 42
0.093199
  0
VERTEX
  5
62
100
AcDbEntity
  8
NETWORK
  6
CONTINUOUS
 62
     7
100
AcDbVertex
100
AcDb2dVertex
 10
2.252245
 20
4.992546
 30
0.0
 42
0.093199
  0
VERTEX
  5
63
100
AcDbEntity
  8
NETWORK
  6
CONTINUOUS
 62
     7
100
AcDbVertex
100
AcDb2dVertex
 10
2.215462
 20
4.98566
 30
0.0
 42
0.09614
  0
VERTEX
  5
64
100
AcDbEntity
  8
NETWORK
  6
CONTINUOUS
 62
     7
100
AcDbVertex
100
AcDb2dVertex
 10
2.184279
 20
4.966049
 30
0.0
 42
0.100612
  0
VERTEX
  5
65
100
AcDbEntity
  8
NETWORK
  6
CONTINUOUS
 62
     7
100
AcDbVertex
100
AcDb2dVertex
 10
2.163444
 20
4.936701
 30
0.0
 42
0.104021
  0
VERTEX
  5
66
100
AcDbEntity
  8
NETWORK
  6
CONTINUOUS
 62
     7
100
AcDbVertex
100
AcDb2dVertex
 10
2.156127
 20
4.902081
 30
0.0
 42
0.104021
  0
VERTEX
  5
67
100
AcDbEntity
  8
NETWORK
  6
CONTINUOUS
 62
     7
100
AcDbVertex
100
AcDb2dVertex
 10
2.163444
 20
4.867462
 30
0.0
 42
0.100612
  0
VERTEX
  5
68
100
AcDbEntity
  8
NETWORK
  6
CONTINUOUS
 62
     7
100
AcDbVertex
100
AcDb2dVertex
 10
2.184279
 20
4.838113
 30
0.0
 42
0.09614
  0
VERTEX
  5
69
100
AcDbEntity
  8
NETWORK
  6
CONTINUOUS
 62
     7
100
AcDbVertex
100
AcDb2dVertex
 10
2.215462
 20
4.818503
 30
0.0
 42
0.093199
  0
VERTEX
  5
6A
100
AcDbEntity
  8
NETWORK
  6
CONTINUOUS
 62
     7
100
AcDbVertex
100
AcDb2dVertex
 10
2.252245
 20
4.811617
 30
0.0
 42
0.093199
  0
VERTEX
  5
6B
100
AcDbEntity
  8
NETWORK
  6
CONTINUOUS
 62
     7
100
AcDbVertex
100
AcDb2dVertex
 10
2.289028
 20
4.818503
 30
0.0
 42
0.09614
  0
VERTEX
  5
6C
100
AcDbEntity
  8
NETWORK
  6
CONTINUOUS
 62
     7
100
AcDbVertex
100
AcDb2dVertex
 10
2.320211
 20
4.838113
 30
0.0
 42
0.100612
  0
VERTEX
  5
6D
100
AcDbEntity
  8
NETWORK
  6
CONTINUOUS
 62
     7
100
AcDbVertex
100
AcDb2dVertex
 10
2.341047
 20
4.867462
 30
0.0
 42
0.104021
  0
SEQEND
  5
6E
100
AcDbEntity
  8
NETWORK
  6
CONTINUOUS
 62
     7
  0
POLYLINE
  5
6F
100
AcDbEntity
  8
NETWORK
  6
CONTINUOUS
 62
     7
100
AcDb2dPolyline
 66
     1
 10
0.0
 20
0.0
 30
0.0
 70
     1
  0
VERTEX
  5
70
100
AcDbEntity
  8
NETWORK
  6
CONTINUOUS
 62
     7
100
AcDbVertex
100
AcDb2dVertex
 10
4.366849
 20
4.902081
 30
0.0
 42
0.104021
  0
VERTEX
  5
71
100
AcDbEntity
  8
NETWORK
  6
CONTINUOUS
 62
     7
100
AcDbVertex
100
AcDb2dVertex
 10
4.359533
 20
4.936701
 30
0.0
 42
0.100612
  0
VERTEX
  5
72
100
AcDbEntity
  8
NETWORK
  6
CONTINUOUS
 62
     7
100
AcDbVertex
100
AcDb2dVertex
 10
4.338697
 20
4.966049
 30
0.0
 42
0.09614
  0
VERTEX
  5
73
100
AcDbEntity
  8
NETWORK
  6
CONTINUOUS
 62
     7
100
AcDbVertex
100
AcDb2dVertex
 10
4.307514
 20
4.98566
 30
0.0
 42
0.093199
  0
VERTEX
  5
74
100
AcDbEntity
  8
NETWORK
  6
CONTINUOUS
 62
     7
100
AcDbVertex
100
AcDb2dVertex
 10
4.270731
 20
4.992546
 30
0.0
 42
0.093199
  0
VERTEX
  5
75
100
AcDbEntity
  8
NETWORK
  6
CONTINUOUS
 62
     7
100
AcDbVertex
100
AcDb2dVertex
 10
4.233948
 20
4.98566
 30
0.0
 42
0.09614
  0
VERTEX
  5
76
100
AcDbEntity
  8
NETWORK
  6
CONTINUOUS
 62
     7
100
AcDbVertex
100
AcDb2dVertex
 10
4.202765
 20
4.966049
 30
0.0
 42
0.100612
  0
VERTEX
  5
77
100
AcDbEntity
  8
NETWORK
  6
CONTINUOUS
 62
     7
100
AcDbVertex
100
AcDb2dVertex
 10
4.181929
 20
4.936701
 30
0.0
 42
0.104021
  0
VERTEX
  5
78
100
AcDbEntity
  8
NETWORK
  6
CONTINUOUS
 62
     7
100
AcDbVertex
100
AcDb2dVertex
 10
4.174612
 20
4.902081
 30
0.0
 42
0.104021
  0
VERTEX
  5
79
100
AcDbEntity
  8
NETWORK
  6
CONTINUOUS
 62
     7
100
AcDbVertex
100
AcDb2dVertex
 10
4.181929
 20
4.867462
 30
0.0
 42
0.100612
  0
VERTEX
  5
7A
100
AcDbEntity
  8
NETWORK
  6
CONTINUOUS
 62
     7
100
AcDbVertex
100
AcDb2dVertex
 10
4.202765
 20
4.838113
 30
0.0
 42
0.09614
  0
VERTEX
  5
7B
100
AcDbEntity
  8
NETWORK
  6
CONTINUOUS
 62
     7
100
AcDbVertex
100
AcDb2dVertex
 10
4.233948
 20
4.818503
 30
0.0
 42
0.093199
  0
VERTEX
  5
7C
100
AcDbEntity
  8
NETWORK
  6
CONTINUOUS
 62
     7
100
AcDbVertex
100
AcDb2dVertex
 10
4.270731
 20
4.811617
 30
0.0
 42
0.093199
  0
VERTEX
  5
7D
100
AcDbEntity
  8
NETWORK
  6
CONTINUOUS
 62
     7
100
AcDbVertex
100
AcDb2dVertex
 10
4.307514
 20
4.818503
 30
0.0
 42
0.09614
  0
VERTEX
  5
7E
100
AcDbEntity
  8
NETWORK
  6
CONTINUOUS
 62
     7
100
AcDbVertex
100
AcDb2dVertex
 10
4.338697
 20
4.838113
 30
0.0
 42
0.100612
  0
VERTEX
  5
7F
100
AcDbEntity
  8
NETWORK
  6
CONTINUOUS
 62
     7
100
AcDbVertex
100
AcDb2dVertex
 10
4.359533
 20
4.867462
 30
0.0
 42
0.104021
  0
SEQEND
  5
80
100
AcDbEntity
  8
NETWORK
  6
CONTINUOUS
 62
     7
  0
POLYLINE
  5
81
100
AcDbEntity
  8
NETWORK
  6
CONTINUOUS
 62
     7
100
AcDb2dPolyline
 66
     1
 10
0.0
 20
0.0
 30
0.0
 70
     1
  0
VERTEX
  5
82
100
AcDbEntity
  8
NETWORK
  6
CONTINUOUS
 62
     7
100
AcDbVertex
100
AcDb2dVertex
 10
2.5406
 20
7.203326
 30
0.0
  0
VERTEX
  5
83
100
AcDbEntity
  8
NETWORK
  6
CONTINUOUS
 62
     7
100
AcDbVertex
100
AcDb2dVertex
 10
3.006174
 20
7.203326
 30
0.0
 42
0.089374
  0
VERTEX
  5
84
100
AcDbEntity
  8
NETWORK
  6
CONTINUOUS
 62
     7
100
AcDbVertex
100
AcDb2dVertex
 10
3.057086
 20
7.17394
 30
0.0
 42
0.086946
  0
VERTEX
  5
85
100
AcDbEntity
  8
NETWORK
  6
CONTINUOUS
 62
     7
100
AcDbVertex
100
AcDb2dVertex
 10
3.115809
 20
7.16369
 30
0.0
 42
0.086946
  0
VERTEX
  5
86
100
AcDbEntity
  8
NETWORK
  6
CONTINUOUS
 62
     7
100
AcDbVertex
100
AcDb2dVertex
 10
3.174531
 20
7.17394
 30
0.0
 42
0.089374
  0
VERTEX
  5
87
100
AcDbEntity
  8
NETWORK
  6
CONTINUOUS
 62
     7
100
AcDbVertex
100
AcDb2dVertex
 10
3.225444
 20
7.203326
 30
0.0
  0
VERTEX
  5
88
100
AcDbEntity
  8
NETWORK
  6
CONTINUOUS
 62
     7
100
AcDbVertex
100
AcDb2dVertex
 10
3.694021
 20
7.203326
 30
0.0
  0
VERTEX
  5
89
100
AcDbEntity
  8
NETWORK
  6
CONTINUOUS
 62
     7
100
AcDbVertex
100
AcDb2dVertex
 10
3.694021
 20
7.293791
 30
0.0
  0
VERTEX
  5
8A
100
AcDbEntity
  8
NETWORK
  6
CONTINUOUS
 62
     7
100
AcDbVertex
100
AcDb2dVertex
 10
3.225594
 20
7.293791
 30
0.0
 42
0.100727
  0
VERTEX
  5
8B
100
AcDbEntity
  8
NETWORK
  6
CONTINUOUS
 62
     7
100
AcDbVertex
100
AcDb2dVertex
 10
3.175836
 20
7.326885
 30
0.0
 42
0.097411
  0
VERTEX
  5
8C
100
AcDbEntity
  8
NETWORK
  6
CONTINUOUS
 62
     7
100
AcDbVertex
100
AcDb2dVertex
 10
3.116184
 20
7.338562
 30
0.0
 42
0.097411
  0
VERTEX
  5
8D
100
AcDbEntity
  8
NETWORK
  6
CONTINUOUS
 62
     7
100
AcDbVertex
100
AcDb2dVertex
 10
3.056532
 20
7.326885
 30
0.0
 42
0.100727
  0
VERTEX
  5
8E
100
AcDbEntity
  8
NETWORK
  6
CONTINUOUS
 62
     7
100
AcDbVertex
100
AcDb2dVertex
 10
3.006774
 20
7.293791
 30
0.0
  0
VERTEX
  5
8F
100
AcDbEntity
  8
NETWORK
  6
CONTINUOUS
 62
     7
100
AcDbVertex
100
AcDb2dVertex
 10
2.5406
 20
7.293791
 30
0.0
  0
SEQEND
  5
90
100
AcDbEntity
  8
NETWORK
  6
CONTINUOUS
 62
     7
  0
POLYLINE
  5
91
100
AcDbEntity
  8
NETWORK
  6
CONTINUOUS
 62
     7
100
AcDb2dPolyline
 66
     1
 10
0.0
 20
0.0
 30
0.0
 70
     1
  0
VERTEX
  5
92
100
AcDbEntity
  8
NETWORK
  6
CONTINUOUS
 62
     7
100
AcDbVertex
100
AcDb2dVertex
 10
3.357606
 20
7.095842
 30
0.0
  0
VERTEX
  5
93
100
AcDbEntity
  8
NETWORK
  6
CONTINUOUS
 62
     7
100
AcDbVertex
100
AcDb2dVertex
 10
3.549843
 20
7.095842
 30
0.0
  0
VERTEX
  5
94
100
AcDbEntity
  8
NETWORK
  6
CONTINUOUS
 62
     7
100
AcDbVertex
100
AcDb2dVertex
 10
3.549843
 20
7.141074
 30
0.0
  0
VERTEX
  5
95
100
AcDbEntity
  8
NETWORK
  6
CONTINUOUS
 62
     7
100
AcDbVertex
100
AcDb2dVertex
 10
3.357606
 20
7.141074
 30
0.0
  0
SEQEND
  5
96
100
AcDbEntity
  8
NETWORK
  6
CONTINUOUS
 62
     7
  0
SOLID
  5
97
100
AcDbEntity
  8
NETWORK
 62
   253
100
AcDbTrace
 10
2.060009
 20
4.404528
 30
0.0
 11
2.557934
 21
4.346671
 31
0.0
 12
3.058694
 22
4.317689
 32
0.0
 13
3.058694
 23
4.317689
 33
0.0
  0
SOLID
  5
98
100
AcDbEntity
  8
NETWORK
 62
   253
100
AcDbTrace
 10
2.060009
 20
4.404528
 30
0.0
 11
3.058694
 21
4.317689
 31
0.0
 12
3.5604
 22
4.317689
 32
0.0
 13
3.5604
 23
4.317689
 33
0.0
  0
SOLID
  5
99
100
AcDbEntity
  8
NETWORK
 62
   253
100
AcDbTrace
 10
2.060009
 20
4.404528
 30
0.0
 11
3.5604
 21
4.317689
 31
0.0
 12
4.06116
 22
4.346671
 32
0.0
 13
4.06116
 23
4.346671
 33
0.0
  0
SOLID
  5
9A
100
AcDbEntity
  8
NETWORK
 62
   253
100
AcDbTrace
 10
2.060009
 20
4.404528
 30
0.0
 11
4.06116
 21
4.346671
 31
0.0
 12
4.559086
 22
4.404528
 32
0.0
 13
4.559086
 23
4.404528
 33
0.0
  0
SOLID
  5
9B
100
AcDbEntity
  8
NETWORK
 62
   253
100
AcDbTrace
 10
2.060009
 20
4.404528
 30
0.0
 11
4.559086
 21
4.404528
 31
0.0
 12
4.559086
 22
4.494992
 32
0.0
 13
4.559086
 23
4.494992
 33
0.0
  0
SOLID
  5
9C
100
AcDbEntity
  8
NETWORK
 62
   253
100
AcDbTrace
 10
2.060009
 20
4.404528
 30
0.0
 11
4.559086
 21
4.494992
 31
0.0
 12
2.060009
 22
4.494992
 32
0.0
 13
2.060009
 23
4.494992
 33
0.0
  0
POLYLINE
  5
9D
100
AcDbEntity
  8
NETWORK
  6
CONTINUOUS
 62
     7
100
AcDb2dPolyline
 66
     1
 10
0.0
 20
0.0
 30
0.0
 70
     1
  0
VERTEX
  5
9E
100
AcDbEntity
  8
NETWORK
  6
CONTINUOUS
 62
     7
100
AcDbVertex
100
AcDb2dVertex
 10
2.060009
 20
4.494992
 30
0.0
  0
VERTEX
  5
9F
100
AcDbEntity
  8
NETWORK
  6
CONTINUOUS
 62
     7
100
AcDbVertex
100
AcDb2dVertex
 10
2.060009
 20
4.404528
 30
0.0
 42
0.072447
  0
VERTEX
  5
A0
100
AcDbEntity
  8
NETWORK
  6
CONTINUOUS
 62
     7
100
AcDbVertex
100
AcDb2dVertex
 10
4.559086
 20
4.404528
 30
0.0
  0
VERTEX
  5
A1
100
AcDbEntity
  8
NETWORK
  6
CONTINUOUS
 62
     7
100
AcDbVertex
100
AcDb2dVertex
 10
4.559086
 20
4.494992
 30
0.0
  0
SEQEND
  5
A2
100
AcDbEntity
  8
NETWORK
  6
CONTINUOUS
 62
     7
  0
SOLID
  5
A3
100
AcDbEntity
  8
NETWORK
 62
   253
100
AcDbTrace
 10
2.060009
 20
4.087902
 30
0.0
 11
2.557934
 21
4.030046
 31
0.0
 12
3.058694
 22
4.001063
 32
0.0
 13
3.058694
 23
4.001063
 33
0.0
  0
SOLID
  5
A4
100
AcDbEntity
  8
NETWORK
 62
   253
100
AcDbTrace
 10
2.060009
 20
4.087902
 30
0.0
 11
3.058694
 21
4.001063
 31
0.0
 12
3.5604
 22
4.001063
 32
0.0
 13
3.5604
 23
4.001063
 33
0.0
  0
SOLID
  5
A5
100
AcDbEntity
  8
NETWORK
 62
   253
100
AcDbTrace
 10
2.060009
 20
4.087902
 30
0.0
 11
3.5604
 21
4.001063
 31
0.0
 12
4.06116
 22
4.030046
 32
0.0
 13
4.06116
 23
4.030046
 33
0.0
  0
SOLID
  5
A6
100
AcDbEntity
  8
NETWORK
 62
   253
100
AcDbTrace
 10
2.060009
 20
4.087902
 30
0.0
 11
4.06116
 21
4.030046
 31
0.0
 12
4.559086
 22
4.087902
 32
0.0
 13
4.559086
 23
4.087902
 33
0.0
  0
SOLID
  5
A7
100
AcDbEntity
  8
NETWORK
 62
   253
100
AcDbTrace
 10
2.060009
 20
4.087902
 30
0.0
 11
4.559086
 21
4.087902
 31
0.0
 12
4.559086
 22
4.178367
 32
0.0
 13
4.559086
 23
4.178367
 33
0.0
  0
SOLID
  5
A8
100
AcDbEntity
  8
NETWORK
 62
   253
100
AcDbTrace
 10
2.060009
 20
4.087902
 30
0.0
 11
4.559086
 21
4.178367
 31
0.0
 12
2.060009
 22
4.178367
 32
0.0
 13
2.060009
 23
4.178367
 33
0.0
  0
POLYLINE
  5
A9
100
AcDbEntity
  8
NETWORK
  6
CONTINUOUS
 62
     7
100
AcDb2dPolyline
 66
     1
 10
0.0
 20
0.0
 30
0.0
 70
     1
  0
VERTEX
  5
AA
100
AcDbEntity
  8
NETWORK
  6
CONTINUOUS
 62
     7
100
AcDbVertex
100
AcDb2dVertex
 10
2.060009
 20
4.178367
 30
0.0
  0
VERTEX
  5
AB
100
AcDbEntity
  8
NETWORK
  6
CONTINUOUS
 62
     7
100
AcDbVertex
100
AcDb2dVertex
 10
2.060009
 20
4.087902
 30
0.0
 42
0.072447
  0
VERTEX
  5
AC
100
AcDbEntity
  8
NETWORK
  6
CONTINUOUS
 62
     7
100
AcDbVertex
100
AcDb2dVertex
 10
4.559086
 20
4.087902
 30
0.0
  0
VERTEX
  5
AD
100
AcDbEntity
  8
NETWORK
  6
CONTINUOUS
 62
     7
100
AcDbVertex
100
AcDb2dVertex
 10
4.559086
 20
4.178367
 30
0.0
  0
SEQEND
  5
AE
100
AcDbEntity
  8
NETWORK
  6
CONTINUOUS
 62
     7
  0
SOLID
  5
AF
100
AcDbEntity
  8
NETWORK
 62
   253
100
AcDbTrace
 10
2.060009
 20
3.771277
 30
0.0
 11
2.557934
 21
3.713421
 31
0.0
 12
3.058694
 22
3.684438
 32
0.0
 13
3.058694
 23
3.684438
 33
0.0
  0
SOLID
  5
B0
100
AcDbEntity
  8
NETWORK
 62
   253
100
AcDbTrace
 10
2.060009
 20
3.771277
 30
0.0
 11
3.058694
 21
3.684438
 31
0.0
 12
3.5604
 22
3.684438
 32
0.0
 13
3.5604
 23
3.684438
 33
0.0
  0
SOLID
  5
B1
100
AcDbEntity
  8
NETWORK
 62
   253
100
AcDbTrace
 10
2.060009
 20
3.771277
 30
0.0
 11
3.5604
 21
3.684438
 31
0.0
 12
4.06116
 22
3.713421
 32
0.0
 13
4.06116
 23
3.713421
 33
0.0
  0
SOLID
  5
B2
100
AcDbEntity
  8
NETWORK
 62
   253
100
AcDbTrace
 10
2.060009
 20
3.771277
 30
0.0
 11
4.06116
 21
3.713421
 31
0.0
 12
4.559086
 22
3.771277
 32
0.0
 13
4.559086
 23
3.771277
 33
0.0
  0
SOLID
  5
B3
100
AcDbEntity
  8
NETWORK
 62
   253
100
AcDbTrace
 10
2.060009
 20
3.771277
 30
0.0
 11
4.559086
 21
3.771277
 31
0.0
 12
4.559086
 22
3.861742
 32
0.0
 13
4.559086
 23
3.861742
 33
0.0
  0
SOLID
  5
B4
100
AcDbEntity
  8
NETWORK
 62
   253
100
AcDbTrace
 10
2.060009
 20
3.771277
 30
0.0
 11
4.559086
 21
3.861742
 31
0.0
 12
2.060009
 22
3.861742
 32
0.0
 13
2.060009
 23
3.861742
 33
0.0
  0
POLYLINE
  5
B5
100
AcDbEntity
  8
NETWORK
  6
CONTINUOUS
 62
     7
100
AcDb2dPolyline
 66
     1
 10
0.0
 20
0.0
 30
0.0
 70
     1
  0
VERTEX
  5
B6
100
AcDbEntity
  8
NETWORK
  6
CONTINUOUS
 62
     7
100
AcDbVertex
100
AcDb2dVertex
 10
2.060009
 20
3.861742
 30
0.0
  0
VERTEX
  5
B7
100
AcDbEntity
  8
NETWORK
  6
CONTINUOUS
 62
     7
100
AcDbVertex
100
AcDb2dVertex
 10
2.060009
 20
3.771277
 30
0.0
 42
0.072447
  0
VERTEX
  5
B8
100
AcDbEntity
  8
NETWORK
  6
CONTINUOUS
 62
     7
100
AcDbVertex
100
AcDb2dVertex
 10
4.559086
 20
3.771277
 30
0.0
  0
VERTEX
  5
B9
100
AcDbEntity
  8
NETWORK
  6
CONTINUOUS
 62
     7
100
AcDbVertex
100
AcDb2dVertex
 10
4.559086
 20
3.861742
 30
0.0
  0
SEQEND
  5
BA
100
AcDbEntity
  8
NETWORK
  6
CONTINUOUS
 62
     7
  0
SOLID
  5
BB
100
AcDbEntity
  8
NETWORK
 62
   253
100
AcDbTrace
 10
2.060009
 20
3.454652
 30
0.0
 11
2.557934
 21
3.396796
 31
0.0
 12
3.058694
 22
3.367813
 32
0.0
 13
3.058694
 23
3.367813
 33
0.0
  0
SOLID
  5
BC
100
AcDbEntity
  8
NETWORK
 62
   253
100
AcDbTrace
 10
2.060009
 20
3.454652
 30
0.0
 11
3.058694
 21
3.367813
 31
0.0
 12
3.5604
 22
3.367813
 32
0.0
 13
3.5604
 23
3.367813
 33
0.0
  0
SOLID
  5
BD
100
AcDbEntity
  8
NETWORK
 62
   253
100
AcDbTrace
 10
2.060009
 20
3.454652
 30
0.0
 11
3.5604
 21
3.367813
 31
0.0
 12
4.06116
 22
3.396796
 32
0.0
 13
4.06116
 23
3.396796
 33
0.0
  0
SOLID
  5
BE
100
AcDbEntity
  8
NETWORK
 62
   253
100
AcDbTrace
 10
2.060009
 20
3.454652
 30
0.0
 11
4.06116
 21
3.396796
 31
0.0
 12
4.559086
 22
3.454652
 32
0.0
 13
4.559086
 23
3.454652
 33
0.0
  0
SOLID
  5
BF
100
AcDbEntity
  8
NETWORK
 62
   253
100
AcDbTrace
 10
2.060009
 20
3.454652
 30
0.0
 11
4.559086
 21
3.454652
 31
0.0
 12
4.559086
 22
3.545116
 32
0.0
 13
4.559086
 23
3.545116
 33
0.0
  0
SOLID
  5
C0
100
AcDbEntity
  8
NETWORK
 62
   253
100
AcDbTrace
 10
2.060009
 20
3.454652
 30
0.0
 11
4.559086
 21
3.545116
 31
0.0
 12
2.060009
 22
3.545116
 32
0.0
 13
2.060009
 23
3.545116
 33
0.0
  0
POLYLINE
  5
C1
100
AcDbEntity
  8
NETWORK
  6
CONTINUOUS
 62
     7
100
AcDb2dPolyline
 66
     1
 10
0.0
 20
0.0
 30
0.0
 70
     1
  0
VERTEX
  5
C2
100
AcDbEntity
  8
NETWORK
  6
CONTINUOUS
 62
     7
100
AcDbVertex
100
AcDb2dVertex
 10
2.060009
 20
3.545116
 30
0.0
  0
VERTEX
  5
C3
100
AcDbEntity
  8
NETWORK
  6
CONTINUOUS
 62
     7
100
AcDbVertex
100
AcDb2dVertex
 10
2.060009
 20
3.454652
 30
0.0
 42
0.072447
  0
VERTEX
  5
C4
100
AcDbEntity
  8
NETWORK
  6
CONTINUOUS
 62
     7
100
AcDbVertex
100
AcDb2dVertex
 10
4.559086
 20
3.454652
 30
0.0
  0
VERTEX
  5
C5
100
AcDbEntity
  8
NETWORK
  6
CONTINUOUS
 62
     7
100
AcDbVertex
100
AcDb2dVertex
 10
4.559086
 20
3.545116
 30
0.0
  0
SEQEND
  5
C6
100
AcDbEntity
  8
NETWORK
  6
CONTINUOUS
 62
     7
  0
SOLID
  5
C7
100
AcDbEntity
  8
NETWORK
 62
   253
100
AcDbTrace
 10
2.060009
 20
3.138027
 30
0.0
 11
2.557934
 21
3.080171
 31
0.0
 12
3.058694
 22
3.051188
 32
0.0
 13
3.058694
 23
3.051188
 33
0.0
  0
SOLID
  5
C8
100
AcDbEntity
  8
NETWORK
 62
   253
100
AcDbTrace
 10
2.060009
 20
3.138027
 30
0.0
 11
3.058694
 21
3.051188
 31
0.0
 12
3.5604
 22
3.051188
 32
0.0
 13
3.5604
 23
3.051188
 33
0.0
  0
SOLID
  5
C9
100
AcDbEntity
  8
NETWORK
 62
   253
100
AcDbTrace
 10
2.060009
 20
3.138027
 30
0.0
 11
3.5604
 21
3.051188
 31
0.0
 12
4.06116
 22
3.080171
 32
0.0
 13
4.06116
 23
3.080171
 33
0.0
  0
SOLID
  5
CA
100
AcDbEntity
  8
NETWORK
 62
   253
100
AcDbTrace
 10
2.060009
 20
3.138027
 30
0.0
 11
4.06116
 21
3.080171
 31
0.0
 12
4.559086
 22
3.138027
 32
0.0
 13
4.559086
 23
3.138027
 33
0.0
  0
SOLID
  5
CB
100
AcDbEntity
  8
NETWORK
 62
   253
100
AcDbTrace
 10
2.060009
 20
3.138027
 30
0.0
 11
4.559086
 21
3.138027
 31
0.0
 12
4.559086
 22
3.228491
 32
0.0
 13
4.559086
 23
3.228491
 33
0.0
  0
SOLID
  5
CC
100
AcDbEntity
  8
NETWORK
 62
   253
100
AcDbTrace
 10
2.060009
 20
3.138027
 30
0.0
 11
4.559086
 21
3.228491
 31
0.0
 12
2.060009
 22
3.228491
 32
0.0
 13
2.060009
 23
3.228491
 33
0.0
  0
POLYLINE
  5
CD
100
AcDbEntity
  8
NETWORK
  6
CONTINUOUS
 62
     7
100
AcDb2dPolyline
 66
     1
 10
0.0
 20
0.0
 30
0.0
 70
     1
  0
VERTEX
  5
CE
100
AcDbEntity
  8
NETWORK
  6
CONTINUOUS
 62
     7
100
AcDbVertex
100
AcDb2dVertex
 10
2.060009
 20
3.228491
 30
0.0
  0
VERTEX
  5
CF
100
AcDbEntity
  8
NETWORK
  6
CONTINUOUS
 62
     7
100
AcDbVertex
100
AcDb2dVertex
 10
2.060009
 20
3.138027
 30
0.0
 42
0.072447
  0
VERTEX
  5
D0
100
AcDbEntity
  8
NETWORK
  6
CONTINUOUS
 62
     7
100
AcDbVertex
100
AcDb2dVertex
 10
4.559086
 20
3.138027
 30
0.0
  0
VERTEX
  5
D1
100
AcDbEntity
  8
NETWORK
  6
CONTINUOUS
 62
     7
100
AcDbVertex
100
AcDb2dVertex
 10
4.559086
 20
3.228491
 30
0.0
  0
SEQEND
  5
D2
100
AcDbEntity
  8
NETWORK
  6
CONTINUOUS
 62
     7
  0
SOLID
  5
D3
100
AcDbEntity
  8
NETWORK
 62
   253
100
AcDbTrace
 10
2.060009
 20
2.821402
 30
0.0
 11
2.557934
 21
2.763546
 31
0.0
 12
3.058694
 22
2.734563
 32
0.0
 13
3.058694
 23
2.734563
 33
0.0
  0
SOLID
  5
D4
100
AcDbEntity
  8
NETWORK
 62
   253
100
AcDbTrace
 10
2.060009
 20
2.821402
 30
0.0
 11
3.058694
 21
2.734563
 31
0.0
 12
3.5604
 22
2.734563
 32
0.0
 13
3.5604
 23
2.734563
 33
0.0
  0
SOLID
  5
D5
100
AcDbEntity
  8
NETWORK
 62
   253
100
AcDbTrace
 10
2.060009
 20
2.821402
 30
0.0
 11
3.5604
 21
2.734563
 31
0.0
 12
4.06116
 22
2.763546
 32
0.0
 13
4.06116
 23
2.763546
 33
0.0
  0
SOLID
  5
D6
100
AcDbEntity
  8
NETWORK
 62
   253
100
AcDbTrace
 10
2.060009
 20
2.821402
 30
0.0
 11
4.06116
 21
2.763546
 31
0.0
 12
4.559086
 22
2.821402
 32
0.0
 13
4.559086
 23
2.821402
 33
0.0
  0
SOLID
  5
D7
100
AcDbEntity
  8
NETWORK
 62
   253
100
AcDbTrace
 10
2.060009
 20
2.821402
 30
0.0
 11
4.559086
 21
2.821402
 31
0.0
 12
4.559086
 22
2.911866
 32
0.0
 13
4.559086
 23
2.911866
 33
0.0
  0
SOLID
  5
D8
100
AcDbEntity
  8
NETWORK
 62
   253
100
AcDbTrace
 10
2.060009
 20
2.821402
 30
0.0
 11
4.559086
 21
2.911866
 31
0.0
 12
2.060009
 22
2.911866
 32
0.0
 13
2.060009
 23
2.911866
 33
0.0
  0
POLYLINE
  5
D9
100
AcDbEntity
  8
NETWORK
  6
CONTINUOUS
 62
     7
100
AcDb2dPolyline
 66
     1
 10
0.0
 20
0.0
 30
0.0
 70
     1
  0
VERTEX
  5
DA
100
AcDbEntity
  8
NETWORK
  6
CONTINUOUS
 62
     7
100
AcDbVertex
100
AcDb2dVertex
 10
2.060009
 20
2.911866
 30
0.0
  0
VERTEX
  5
DB
100
AcDbEntity
  8
NETWORK
  6
CONTINUOUS
 62
     7
100
AcDbVertex
100
AcDb2dVertex
 10
2.060009
 20
2.821402
 30
0.0
 42
0.072447
  0
VERTEX
  5
DC
100
AcDbEntity
  8
NETWORK
  6
CONTINUOUS
 62
     7
100
AcDbVertex
100
AcDb2dVertex
 10
4.559086
 20
2.821402
 30
0.0
  0
VERTEX
  5
DD
100
AcDbEntity
  8
NETWORK
  6
CONTINUOUS
 62
     7
100
AcDbVertex
100
AcDb2dVertex
 10
4.559086
 20
2.911866
 30
0.0
  0
SEQEND
  5
DE
100
AcDbEntity
  8
NETWORK
  6
CONTINUOUS
 62
     7
  0
SOLID
  5
DF
100
AcDbEntity
  8
NETWORK
 62
   253
100
AcDbTrace
 10
2.060009
 20
2.504777
 30
0.0
 11
2.557934
 21
2.44692
 31
0.0
 12
3.058694
 22
2.417938
 32
0.0
 13
3.058694
 23
2.417938
 33
0.0
  0
SOLID
  5
E0
100
AcDbEntity
  8
NETWORK
 62
   253
100
AcDbTrace
 10
2.060009
 20
2.504777
 30
0.0
 11
3.058694
 21
2.417938
 31
0.0
 12
3.5604
 22
2.417938
 32
0.0
 13
3.5604
 23
2.417938
 33
0.0
  0
SOLID
  5
E1
100
AcDbEntity
  8
NETWORK
 62
   253
100
AcDbTrace
 10
2.060009
 20
2.504777
 30
0.0
 11
3.5604
 21
2.417938
 31
0.0
 12
4.06116
 22
2.44692
 32
0.0
 13
4.06116
 23
2.44692
 33
0.0
  0
SOLID
  5
E2
100
AcDbEntity
  8
NETWORK
 62
   253
100
AcDbTrace
 10
2.060009
 20
2.504777
 30
0.0
 11
4.06116
 21
2.44692
 31
0.0
 12
4.559086
 22
2.504777
 32
0.0
 13
4.559086
 23
2.504777
 33
0.0
  0
SOLID
  5
E3
100
AcDbEntity
  8
NETWORK
 62
   253
100
AcDbTrace
 10
2.060009
 20
2.504777
 30
0.0
 11
4.559086
 21
2.504777
 31
0.0
 12
4.559086
 22
2.595241
 32
0.0
 13
4.559086
 23
2.595241
 33
0.0
  0
SOLID
  5
E4
100
AcDbEntity
  8
NETWORK
 62
   253
100
AcDbTrace
 10
2.060009
 20
2.504777
 30
0.0
 11
4.559086
 21
2.595241
 31
0.0
 12
2.060009
 22
2.595241
 32
0.0
 13
2.060009
 23
2.595241
 33
0.0
  0
POLYLINE
  5
E5
100
AcDbEntity
  8
NETWORK
  6
CONTINUOUS
 62
     7
100
AcDb2dPolyline
 66
     1
 10
0.0
 20
0.0
 30
0.0
 70
     1
  0
VERTEX
  5
E6
100
AcDbEntity
  8
NETWORK
  6
CONTINUOUS
 62
     7
100
AcDbVertex
100
AcDb2dVertex
 10
2.060009
 20
2.595241
 30
0.0
  0
VERTEX
  5
E7
100
AcDbEntity
  8
NETWORK
  6
CONTINUOUS
 62
     7
100
AcDbVertex
100
AcDb2dVertex
 10
2.060009
 20
2.504777
 30
0.0
 42
0.072447
  0
VERTEX
  5
E8
100
AcDbEntity
  8
NETWORK
  6
CONTINUOUS
 62
     7
100
AcDbVertex
100
AcDb2dVertex
 10
4.559086
 20
2.504777
 30
0.0
  0
VERTEX
  5
E9
100
AcDbEntity
  8
NETWORK
  6
CONTINUOUS
 62
     7
100
AcDbVertex
100
AcDb2dVertex
 10
4.559086
 20
2.595241
 30
0.0
  0
SEQEND
  5
EA
100
AcDbEntity
  8
NETWORK
  6
CONTINUOUS
 62
     7
  0
SOLID
  5
EB
100
AcDbEntity
  8
NETWORK
 62
   253
100
AcDbTrace
 10
2.060009
 20
2.142919
 30
0.0
 11
2.557934
 21
2.085063
 31
0.0
 12
3.058694
 22
2.05608
 32
0.0
 13
3.058694
 23
2.05608
 33
0.0
  0
SOLID
  5
EC
100
AcDbEntity
  8
NETWORK
 62
   253
100
AcDbTrace
 10
2.060009
 20
2.142919
 30
0.0
 11
3.058694
 21
2.05608
 31
0.0
 12
3.5604
 22
2.05608
 32
0.0
 13
3.5604
 23
2.05608
 33
0.0
  0
SOLID
  5
ED
100
AcDbEntity
  8
NETWORK
 62
   253
100
AcDbTrace
 10
2.060009
 20
2.142919
 30
0.0
 11
3.5604
 21
2.05608
 31
0.0
 12
4.06116
 22
2.085063
 32
0.0
 13
4.06116
 23
2.085063
 33
0.0
  0
SOLID
  5
EE
100
AcDbEntity
  8
NETWORK
 62
   253
100
AcDbTrace
 10
2.060009
 20
2.142919
 30
0.0
 11
4.06116
 21
2.085063
 31
0.0
 12
4.559086
 22
2.142919
 32
0.0
 13
4.559086
 23
2.142919
 33
0.0
  0
SOLID
  5
EF
100
AcDbEntity
  8
NETWORK
 62
   253
100
AcDbTrace
 10
2.060009
 20
2.142919
 30
0.0
 11
4.559086
 21
2.142919
 31
0.0
 12
4.559086
 22
2.233384
 32
0.0
 13
4.559086
 23
2.233384
 33
0.0
  0
SOLID
  5
F0
100
AcDbEntity
  8
NETWORK
 62
   253
100
AcDbTrace
 10
2.060009
 20
2.142919
 30
0.0
 11
4.559086
 21
2.233384
 31
0.0
 12
2.060009
 22
2.233384
 32
0.0
 13
2.060009
 23
2.233384
 33
0.0
  0
POLYLINE
  5
F1
100
AcDbEntity
  8
NETWORK
  6
CONTINUOUS
 62
     7
100
AcDb2dPolyline
 66
     1
 10
0.0
 20
0.0
 30
0.0
 70
     1
  0
VERTEX
  5
F2
100
AcDbEntity
  8
NETWORK
  6
CONTINUOUS
 62
     7
100
AcDbVertex
100
AcDb2dVertex
 10
2.060009
 20
2.233384
 30
0.0
  0
VERTEX
  5
F3
100
AcDbEntity
  8
NETWORK
  6
CONTINUOUS
 62
     7
100
AcDbVertex
100
AcDb2dVertex
 10
2.060009
 20
2.142919
 30
0.0
 42
0.072447
  0
VERTEX
  5
F4
100
AcDbEntity
  8
NETWORK
  6
CONTINUOUS
 62
     7
100
AcDbVertex
100
AcDb2dVertex
 10
4.559086
 20
2.142919
 30
0.0
  0
VERTEX
  5
F5
100
AcDbEntity
  8
NETWORK
  6
CONTINUOUS
 62
     7
100
AcDbVertex
100
AcDb2dVertex
 10
4.559086
 20
2.233384
 30
0.0
  0
SEQEND
  5
F6
100
AcDbEntity
  8
NETWORK
  6
CONTINUOUS
 62
     7
  0
SOLID
  5
F7
100
AcDbEntity
  8
NETWORK
 62
   253
100
AcDbTrace
 10
2.060009
 20
1.781062
 30
0.0
 11
2.557934
 21
1.723206
 31
0.0
 12
3.058694
 22
1.694223
 32
0.0
 13
3.058694
 23
1.694223
 33
0.0
  0
SOLID
  5
F8
100
AcDbEntity
  8
NETWORK
 62
   253
100
AcDbTrace
 10
2.060009
 20
1.781062
 30
0.0
 11
3.058694
 21
1.694223
 31
0.0
 12
3.5604
 22
1.694223
 32
0.0
 13
3.5604
 23
1.694223
 33
0.0
  0
SOLID
  5
F9
100
AcDbEntity
  8
NETWORK
 62
   253
100
AcDbTrace
 10
2.060009
 20
1.781062
 30
0.0
 11
3.5604
 21
1.694223
 31
0.0
 12
4.06116
 22
1.723206
 32
0.0
 13
4.06116
 23
1.723206
 33
0.0
  0
SOLID
  5
FA
100
AcDbEntity
  8
NETWORK
 62
   253
100
AcDbTrace
 10
2.060009
 20
1.781062
 30
0.0
 11
4.06116
 21
1.723206
 31
0.0
 12
4.559086
 22
1.781062
 32
0.0
 13
4.559086
 23
1.781062
 33
0.0
  0
SOLID
  5
FB
100
AcDbEntity
  8
NETWORK
 62
   253
100
AcDbTrace
 10
2.060009
 20
1.781062
 30
0.0
 11
4.559086
 21
1.781062
 31
0.0
 12
4.559086
 22
1.871526
 32
0.0
 13
4.559086
 23
1.871526
 33
0.0
  0
SOLID
  5
FC
100
AcDbEntity
  8
NETWORK
 62
   253
100
AcDbTrace
 10
2.060009
 20
1.781062
 30
0.0
 11
4.559086
 21
1.871526
 31
0.0
 12
2.060009
 22
1.871526
 32
0.0
 13
2.060009
 23
1.871526
 33
0.0
  0
POLYLINE
  5
FD
100
AcDbEntity
  8
NETWORK
  6
CONTINUOUS
 62
     7
100
AcDb2dPolyline
 66
     1
 10
0.0
 20
0.0
 30
0.0
 70
     1
  0
VERTEX
  5
FE
100
AcDbEntity
  8
NETWORK
  6
CONTINUOUS
 62
     7
100
AcDbVertex
100
AcDb2dVertex
 10
2.060009
 20
1.871526
 30
0.0
  0
VERTEX
  5
FF
100
AcDbEntity
  8
NETWORK
  6
CONTINUOUS
 62
     7
100
AcDbVertex
100
AcDb2dVertex
 10
2.060009
 20
1.781062
 30
0.0
 42
0.072447
  0
VERTEX
  5
100
100
AcDbEntity
  8
NETWORK
  6
CONTINUOUS
 62
     7
100
AcDbVertex
100
AcDb2dVertex
 10
4.559086
 20
1.781062
 30
0.0
  0
VERTEX
  5
101
100
AcDbEntity
  8
NETWORK
  6
CONTINUOUS
 62
     7
100
AcDbVertex
100
AcDb2dVertex
 10
4.559086
 20
1.871526
 30
0.0
  0
SEQEND
  5
102
100
AcDbEntity
  8
NETWORK
  6
CONTINUOUS
 62
     7
  0
POLYLINE
  5
103
100
AcDbEntity
  8
NETWORK
  6
CONTINUOUS
 62
     7
100
AcDb2dPolyline
 66
     1
 10
0.0
 20
0.0
 30
0.0
 70
     1
  0
VERTEX
  5
104
100
AcDbEntity
  8
NETWORK
  6
CONTINUOUS
 62
     7
100
AcDbVertex
100
AcDb2dVertex
 10
2.156127
 20
6.575672
 30
0.0
 42
0.104021
  0
VERTEX
  5
105
100
AcDbEntity
  8
NETWORK
  6
CONTINUOUS
 62
     7
100
AcDbVertex
100
AcDb2dVertex
 10
2.152469
 20
6.592981
 30
0.0
 42
0.100612
  0
VERTEX
  5
106
100
AcDbEntity
  8
NETWORK
  6
CONTINUOUS
 62
     7
100
AcDbVertex
100
AcDb2dVertex
 10
2.142051
 20
6.607656
 30
0.0
 42
0.09614
  0
VERTEX
  5
107
100
AcDbEntity
  8
NETWORK
  6
CONTINUOUS
 62
     7
100
AcDbVertex
100
AcDb2dVertex
 10
2.126459
 20
6.617461
 30
0.0
 42
0.093199
  0
VERTEX
  5
108
100
AcDbEntity
  8
NETWORK
  6
CONTINUOUS
 62
     7
100
AcDbVertex
100
AcDb2dVertex
 10
2.108068
 20
6.620904
 30
0.0
 42
0.093199
  0
VERTEX
  5
109
100
AcDbEntity
  8
NETWORK
  6
CONTINUOUS
 62
     7
100
AcDbVertex
100
AcDb2dVertex
 10
2.089676
 20
6.617461
 30
0.0
 42
0.09614
  0
VERTEX
  5
10A
100
AcDbEntity
  8
NETWORK
  6
CONTINUOUS
 62
     7
100
AcDbVertex
100
AcDb2dVertex
 10
2.074085
 20
6.607656
 30
0.0
 42
0.100612
  0
VERTEX
  5
10B
100
AcDbEntity
  8
NETWORK
  6
CONTINUOUS
 62
     7
100
AcDbVertex
100
AcDb2dVertex
 10
2.063667
 20
6.592981
 30
0.0
 42
0.104021
  0
VERTEX
  5
10C
100
AcDbEntity
  8
NETWORK
  6
CONTINUOUS
 62
     7
100
AcDbVertex
100
AcDb2dVertex
 10
2.060009
 20
6.575672
 30
0.0
 42
0.104021
  0
VERTEX
  5
10D
100
AcDbEntity
  8
NETWORK
  6
CONTINUOUS
 62
     7
100
AcDbVertex
100
AcDb2dVertex
 10
2.063667
 20
6.558362
 30
0.0
 42
0.100612
  0
VERTEX
  5
10E
100
AcDbEntity
  8
NETWORK
  6
CONTINUOUS
 62
     7
100
AcDbVertex
100
AcDb2dVertex
 10
2.074085
 20
6.543688
 30
0.0
 42
0.09614
  0
VERTEX
  5
10F
100
AcDbEntity
  8
NETWORK
  6
CONTINUOUS
 62
     7
100
AcDbVertex
100
AcDb2dVertex
 10
2.089676
 20
6.533883
 30
0.0
 42
0.093199
  0
VERTEX
  5
110
100
AcDbEntity
  8
NETWORK
  6
CONTINUOUS
 62
     7
100
AcDbVertex
100
AcDb2dVertex
 10
2.108068
 20
6.530439
 30
0.0
 42
0.093199
  0
VERTEX
  5
111
100
AcDbEntity
  8
NETWORK
  6
CONTINUOUS
 62
     7
100
AcDbVertex
100
AcDb2dVertex
 10
2.126459
 20
6.533883
 30
0.0
 42
0.09614
  0
VERTEX
  5
112
100
AcDbEntity
  8
NETWORK
  6
CONTINUOUS
 62
     7
100
AcDbVertex
100
AcDb2dVertex
 10
2.142051
 20
6.543688
 30
0.0
 42
0.100612
  0
VERTEX
  5
113
100
AcDbEntity
  8
NETWORK
  6
CONTINUOUS
 62
     7
100
AcDbVertex
100
AcDb2dVertex
 10
2.152469
 20
6.558362
 30
0.0
 42
0.104021
  0
SEQEND
  5
114
100
AcDbEntity
  8
NETWORK
  6
CONTINUOUS
 62
     7
  0
POLYLINE
  5
115
100
AcDbEntity
  8
NETWORK
  6
CONTINUOUS
 62
     7
100
AcDb2dPolyline
 66
     1
 10
0.0
 20
0.0
 30
0.0
 70
     1
  0
VERTEX
  5
116
100
AcDbEntity
  8
NETWORK
  6
CONTINUOUS
 62
     7
100
AcDbVertex
100
AcDb2dVertex
 10
2.300305
 20
6.530439
 30
0.0
  0
VERTEX
  5
117
100
AcDbEntity
  8
NETWORK
  6
CONTINUOUS
 62
     7
100
AcDbVertex
100
AcDb2dVertex
 10
2.5406
 20
6.530439
 30
0.0
  0
VERTEX
  5
118
100
AcDbEntity
  8
NETWORK
  6
CONTINUOUS
 62
     7
100
AcDbVertex
100
AcDb2dVertex
 10
2.5406
 20
6.575672
 30
0.0
  0
VERTEX
  5
119
100
AcDbEntity
  8
NETWORK
  6
CONTINUOUS
 62
     7
100
AcDbVertex
100
AcDb2dVertex
 10
2.300305
 20
6.575672
 30
0.0
  0
SEQEND
  5
11A
100
AcDbEntity
  8
NETWORK
  6
CONTINUOUS
 62
     7
  0
POLYLINE
  5
11B
100
AcDbEntity
  8
NETWORK
  6
CONTINUOUS
 62
     7
100
AcDb2dPolyline
 66
     1
 10
0.0
 20
0.0
 30
0.0
 70
     1
  0
VERTEX
  5
11C
100
AcDbEntity
  8
NETWORK
  6
CONTINUOUS
 62
     7
100
AcDbVertex
100
AcDb2dVertex
 10
2.204186
 20
6.711368
 30
0.0
  0
VERTEX
  5
11D
100
AcDbEntity
  8
NETWORK
  6
CONTINUOUS
 62
     7
100
AcDbVertex
100
AcDb2dVertex
 10
4.030435
 20
6.711368
 30
0.0
  0
VERTEX
  5
11E
100
AcDbEntity
  8
NETWORK
  6
CONTINUOUS
 62
     7
100
AcDbVertex
100
AcDb2dVertex
 10
4.030435
 20
6.937529
 30
0.0
  0
VERTEX
  5
11F
100
AcDbEntity
  8
NETWORK
  6
CONTINUOUS
 62
     7
100
AcDbVertex
100
AcDb2dVertex
 10
2.204186
 20
6.937529
 30
0.0
  0
SEQEND
  5
120
100
AcDbEntity
  8
NETWORK
  6
CONTINUOUS
 62
     7
  0
POLYLINE
  5
121
100
AcDbEntity
  8
NETWORK
  6
CONTINUOUS
 62
     7
100
AcDb2dPolyline
 66
     1
 10
0.0
 20
0.0
 30
0.0
 70
     1
  0
VERTEX
  5
122
100
AcDbEntity
  8
NETWORK
  6
CONTINUOUS
 62
     7
100
AcDbVertex
100
AcDb2dVertex
 10
3.838198
 20
6.530439
 30
0.0
  0
VERTEX
  5
123
100
AcDbEntity
  8
NETWORK
  6
CONTINUOUS
 62
     7
100
AcDbVertex
100
AcDb2dVertex
 10
4.126553
 20
6.530439
 30
0.0
  0
VERTEX
  5
124
100
AcDbEntity
  8
NETWORK
  6
CONTINUOUS
 62
     7
100
AcDbVertex
100
AcDb2dVertex
 10
4.126553
 20
6.620904
 30
0.0
  0
VERTEX
  5
125
100
AcDbEntity
  8
NETWORK
  6
CONTINUOUS
 62
     7
100
AcDbVertex
100
AcDb2dVertex
 10
3.838198
 20
6.620904
 30
0.0
  0
SEQEND
  5
126
100
AcDbEntity
  8
NETWORK
  6
CONTINUOUS
 62
     7
  0
TEXT
  5
128
100
AcDbEntity
  8
NETWORK
 62
     7
100
AcDbText
 10
2.891723
 20
1.192629
 30
0.0
 40
0.111111
  1
Tower box
  7
_NET_TEXT
 72
     1
 11
3.309547
 21
1.234296
 31
0.0
100
AcDbText
 73
     2
  0
ENDBLK
  5
12A
100
AcDbEntity
  8
0
100
AcDbBlockEnd
  0
ENDSEC
  0
SECTION
  2
ENTITIES
  0
INSERT
  5
12B
100
AcDbEntity
  8
NETWORK
100
AcDbBlockReference
 66
     1
  2
TOWER_BOX
 10
3.309547
 20
4.404528
 30
0.0
  0
ATTRIB
  5
12C
100
AcDbEntity
  8
NETWORK
100
AcDbText
 10
3.309547
 20
52.029528
 30
0.0
 40
6.35
  1

100
AcDbAttribute
  2
MANUFACTURER
 70
     1
  0
ATTRIB
  5
12D
100
AcDbEntity
  8
NETWORK
100
AcDbText
 10
3.309547
 20
42.504528
 30
0.0
 40
6.35
  1

100
AcDbAttribute
  2
PRODUCTNUMBER
 70
     1
  0
ATTRIB
  5
12E
100
AcDbEntity
  8
NETWORK
100
AcDbText
 10
3.309547
 20
32.979528
 30
0.0
 40
6.35
  1

100
AcDbAttribute
  2
PARTNUMBER
 70
     1
  0
ATTRIB
  5
12F
100
AcDbEntity
  8
NETWORK
100
AcDbText
 10
3.309547
 20
23.454528
 30
0.0
 40
6.35
  1

100
AcDbAttribute
  2
PRODUCTDESCRIPTION
 70
     1
  0
ATTRIB
  5
130
100
AcDbEntity
  8
NETWORK
100
AcDbText
 10
3.309547
 20
13.929528
 30
0.0
 40
6.35
  1

100
AcDbAttribute
  2
ASSETNUMBER
 70
     1
  0
ATTRIB
  5
131
100
AcDbEntity
  8
NETWORK
100
AcDbText
 10
3.309547
 20
4.404528
 30
0.0
 40
6.35
  1

100
AcDbAttribute
  2
SERIALNUMBER
 70
     1
  0
ATTRIB
  5
132
100
AcDbEntity
  8
NETWORK
100
AcDbText
 10
3.309547
 20
-5.120472
 30
0.0
 40
6.35
  1

100
AcDbAttribute
  2
LOCATION
 70
     1
  0
ATTRIB
  5
133
100
AcDbEntity
  8
NETWORK
100
AcDbText
 10
3.309547
 20
-14.645472
 30
0.0
 40
6.35
  1

100
AcDbAttribute
  2
BUILDING
 70
     1
  0
ATTRIB
  5
134
100
AcDbEntity
  8
NETWORK
100
AcDbText
 10
3.309547
 20
-24.170472
 30
0.0
 40
6.35
  1

100
AcDbAttribute
  2
ROOM
 70
     1
  0
ATTRIB
  5
135
100
AcDbEntity
  8
NETWORK
100
AcDbText
 10
3.309547
 20
-33.695472
 30
0.0
 40
6.35
  1

100
AcDbAttribute
  2
DEPARTMENT
 70
     1
  0
SEQEND
  5
136
100
AcDbEntity
  8
NETWORK
  0
ENDSEC
  0
SECTION
  2
OBJECTS
  0
DICTIONARY
  5
C
100
AcDbDictionary
  3
ACAD_GROUP
350
D
  3
ACAD_MLINESTYLE
350
1B
  0
DICTIONARY
  5
D
102
{ACAD_REACTORS
330
C
102
}
100
AcDbDictionary
  0
DICTIONARY
  5
1B
102
{ACAD_REACTORS
330
C
102
}
100
AcDbDictionary
  3
STANDARD
350
1C
  0
MLINESTYLE
  5
1C
102
{ACAD_REACTORS
330
1B
102
}
100
AcDbMlineStyle
  2
STANDARD
 70
     0
  3

 62
   256
 51
90.0
 52
90.0
 71
     2
 49
0.5
 62
   256
  6
BYLAYER
 49
-0.5
 62
   256
  6
BYLAYER
  0
ENDSEC
  0
EOF
