  0
SECTION
  2
HEADER
  9
$ACADVER
  1
AC1014
  9
$ACADMAINTVER
 70
     0
  9
$DWGCODEPAGE
  3
ANSI_1252
  9
$INSBASE
 10
0.0
 20
0.0
 30
0.0
  9
$EXTMIN
 10
0.0
 20
0.0
 30
0.0
  9
$EXTMAX
 10
11.692913
 20
8.267717
 30
0.0
  9
$LIMMIN
 10
0.0
 20
0.0
  9
$LIMMAX
 10
12.0
 20
9.0
  9
$ORTHOMODE
 70
     0
  9
$REGENMODE
 70
     1
  9
$FILLMODE
 70
     1
  9
$QTEXTMODE
 70
     0
  9
$MIRRTEXT
 70
     1
  9
$DRAGMODE
 70
     2
  9
$LTSCALE
 40
1.0
  9
$OSMODE
 70
     0
  9
$ATTMODE
 70
     1
  9
$TEXTSIZE
 40
0.2
  9
$TRACEWID
 40
0.05
  9
$TEXTSTYLE
  7
STANDARD
  9
$CLAYER
  8
0
  9
$CELTYPE
  6
BYLAYER
  9
$CECOLOR
 62
   256
  9
$CELTSCALE
 40
1.0
  9
$DELOBJ
 70
     1
  9
$DISPSILH
 70
     0
  9
$DIMSCALE
 40
1.0
  9
$DIMASZ
 40
0.18
  9
$DIMEXO
 40
0.0625
  9
$DIMDLI
 40
0.38
  9
$DIMRND
 40
0.0
  9
$DIMDLE
 40
0.0
  9
$DIMEXE
 40
0.18
  9
$DIMTP
 40
0.0
  9
$DIMTM
 40
0.0
  9
$DIMTXT
 40
0.18
  9
$DIMCEN
 40
0.09
  9
$DIMTSZ
 40
0.0
  9
$DIMTOL
 70
     0
  9
$DIMLIM
 70
     0
  9
$DIMTIH
 70
     1
  9
$DIMTOH
 70
     1
  9
$DIMSE1
 70
     0
  9
$DIMSE2
 70
     0
  9
$DIMTAD
 70
     0
  9
$DIMZIN
 70
     0
  9
$DIMBLK
  1

  9
$DIMASO
 70
     1
  9
$DIMSHO
 70
     1
  9
$DIMPOST
  1

  9
$DIMAPOST
  1

  9
$DIMALT
 70
     0
  9
$DIMALTD
 70
     2
  9
$DIMALTF
 40
25.4
  9
$DIMLFAC
 40
1.0
  9
$DIMTOFL
 70
     0
  9
$DIMTVP
 40
0.0
  9
$DIMTIX
 70
     0
  9
$DIMSOXD
 70
     0
  9
$DIMSAH
 70
     0
  9
$DIMBLK1
  1

  9
$DIMBLK2
  1

  9
$DIMSTYLE
  2
STANDARD
  9
$DIMCLRD
 70
     0
  9
$DIMCLRE
 70
     0
  9
$DIMCLRT
 70
     0
  9
$DIMTFAC
 40
1.0
  9
$DIMGAP
 40
0.09
  9
$DIMJUST
 70
     0
  9
$DIMSD1
 70
     0
  9
$DIMSD2
 70
     0
  9
$DIMTOLJ
 70
     1
  9
$DIMTZIN
 70
     0
  9
$DIMALTZ
 70
     0
  9
$DIMALTTZ
 70
     0
  9
$DIMFIT
 70
     3
  9
$DIMUPT
 70
     0
  9
$DIMUNIT
 70
     2
  9
$DIMDEC
 70
     4
  9
$DIMTDEC
 70
     4
  9
$DIMALTU
 70
     2
  9
$DIMALTTD
 70
     2
  9
$DIMTXSTY
  7
STANDARD
  9
$DIMAUNIT
 70
     0
  9
$LUNITS
 70
     2
  9
$LUPREC
 70
     4
  9
$SKETCHINC
 40
0.1
  9
$FILLETRAD
 40
0.5
  9
$AUNITS
 70
     0
  9
$AUPREC
 70
     0
  9
$MENU
  1
.
  9
$ELEVATION
 40
0.0
  9
$PELEVATION
 40
0.0
  9
$THICKNESS
 40
0.0
  9
$LIMCHECK
 70
     0
  9
$BLIPMODE
 70
     0
  9
$CHAMFERA
 40
0.5
  9
$CHAMFERB
 40
0.5
  9
$CHAMFERC
 40
1.0
  9
$CHAMFERD
 40
0.0
  9
$SKPOLY
 70
     0
  9
$TDCREATE
 40
2450772.666465926
  9
$TDUPDATE
 40
2452925.123587963
  9
$TDINDWG
 40
0.0011564931
  9
$TDUSRTIMER
 40
0.0011564931
  9
$USRTIMER
 70
     1
  9
$ANGBASE
 50
0.0
  9
$ANGDIR
 70
     0
  9
$PDMODE
 70
     0
  9
$PDSIZE
 40
0.0
  9
$PLINEWID
 40
0.0
  9
$COORDS
 70
     1
  9
$SPLFRAME
 70
     0
  9
$SPLINETYPE
 70
     6
  9
$SPLINESEGS
 70
     8
  9
$ATTDIA
 70
     0
  9
$ATTREQ
 70
     1
  9
$HANDLING
 70
     1
  9
$HANDSEED
  5
2C0
  9
$SURFTAB1
 70
     6
  9
$SURFTAB2
 70
     6
  9
$SURFTYPE
 70
     6
  9
$SURFU
 70
     6
  9
$SURFV
 70
     6
  9
$UCSNAME
  2

  9
$UCSORG
 10
0.0
 20
0.0
 30
0.0
  9
$UCSXDIR
 10
1.0
 20
0.0
 30
0.0
  9
$UCSYDIR
 10
0.0
 20
1.0
 30
0.0
  9
$PUCSNAME
  2

  9
$PUCSORG
 10
0.0
 20
0.0
 30
0.0
  9
$PUCSXDIR
 10
1.0
 20
0.0
 30
0.0
  9
$PUCSYDIR
 10
0.0
 20
1.0
 30
0.0
  9
$USERI1
 70
     0
  9
$USERI2
 70
     0
  9
$USERI3
 70
     0
  9
$USERI4
 70
     0
  9
$USERI5
 70
     0
  9
$USERR1
 40
0.0
  9
$USERR2
 40
0.0
  9
$USERR3
 40
0.0
  9
$USERR4
 40
0.0
  9
$USERR5
 40
0.0
  9
$WORLDVIEW
 70
     1
  9
$SHADEDGE
 70
     3
  9
$SHADEDIF
 70
    70
  9
$TILEMODE
 70
     1
  9
$MAXACTVP
 70
    48
  9
$PINSBASE
 10
0.0
 20
0.0
 30
0.0
  9
$PLIMCHECK
 70
     0
  9
$PEXTMIN
 10
1.000000E+20
 20
1.000000E+20
 30
1.000000E+20
  9
$PEXTMAX
 10
-1.000000E+20
 20
-1.000000E+20
 30
-1.000000E+20
  9
$PLIMMIN
 10
0.0
 20
0.0
  9
$PLIMMAX
 10
12.0
 20
9.0
  9
$UNITMODE
 70
     0
  9
$VISRETAIN
 70
     1
  9
$PLINEGEN
 70
     0
  9
$PSLTSCALE
 70
     1
  9
$TREEDEPTH
 70
  3020
  9
$PICKSTYLE
 70
     1
  9
$CMLSTYLE
  2
STANDARD
  9
$CMLJUST
 70
     0
  9
$CMLSCALE
 40
1.0
  9
$PROXYGRAPHICS
 70
     1
  9
$MEASUREMENT
 70
     0
  0
ENDSEC
  0
SECTION
  2
CLASSES
  0
CLASS
  1
LWPOLYLINE
  2
AcDbPolyline
  3
"AutoCAD"
 90
        0
280
     0
281
     1
  0
CLASS
  1
IMAGE
  2
AcDbRasterImage
  3
ISM
 90
      127
280
     0
281
     1
  0
CLASS
  1
OLE2FRAME
  2
AcDbOle2Frame
  3
""
 90
        0
280
     0
281
     1
  0
CLASS
  1
HATCH
  2
AcDbHatch
  3
"ACAD_SEDONA"
 90
        0
280
     0
281
     1
  0
CLASS
  1
DICTIONARYVAR
  2
AcDbDictionaryVar
  3
"AutoCAD"
 90
        0
280
     0
281
     0
  0
CLASS
  1
RASTERVARIABLES
  2
AcDbRasterVariables
  3
ISM
 90
        0
280
     0
281
     0
  0
CLASS
  1
IMAGEDEF
  2
AcDbRasterImageDef
  3
ISM
 90
        0
280
     0
281
     0
  0
CLASS
  1
IMAGEDEF_REACTOR
  2
AcDbRasterImageDefReactor
  3
ISM
 90
        1
280
     0
281
     0
  0
CLASS
  1
IDBUFFER
  2
AcDbIdBuffer
  3
"Acad"
 90
        0
280
     0
281
     0
  0
CLASS
  1
SPATIAL_FILTER
  2
AcDbSpatialFilter
  3
"Acad"
 90
        0
280
     0
281
     0
  0
CLASS
  1
XRECORD
  2
AcDbXrecord
  3
"<Built In>"
 90
        0
280
     0
281
     0
  0
CLASS
  1
SORTENTSTABLE
  2
AcDbSortentsTable
  3
"AutoCAD"
 90
        0
280
     0
281
     0
  0
CLASS
  1
LAYER_INDEX
  2
AcDbLayerIndex
  3
"Acad"
 90
        0
280
     0
281
     0
  0
CLASS
  1
SPATIAL_INDEX
  2
AcDbSpatialIndex
  3
"Acad"
 90
        0
280
     0
281
     0
  0
CLASS
  1
OBJECT_PTR
  2
CAseDLPNTableRecord
  3
"ASE-LPNTableRecord"
 90
        1
280
     0
281
     0
  0
CLASS
  1
LAYOUT
  2
AcDbLayout
  3
"AutoCAD 2000"
 90
        1
280
     0
281
     0
  0
CLASS
  1
PLOTSETTINGS
  2
AcDbPlotSettings
  3
"AutoCAD 2000"
 90
        1
280
     0
281
     0
  0
CLASS
  1
ACDBDICTIONARYWDFLT
  2
AcDbDictionaryWithDefault
  3
"AutoCAD 2000"
 90
        1
280
     0
281
     0
  0
CLASS
  1
ACDBPLACEHOLDER
  2
AcDbPlaceHolder
  3
"AutoCAD 2000"
 90
        1
280
     0
281
     0
  0
CLASS
  1
VBA_PROJECT
  2
AcDbVbaProject
  3
"acadvba"
 90
        1
280
     0
281
     0
  0
CLASS
  1
WIPEOUT
  2
AcDbWipeout
  3
WipeOut|AutoCAD Express Tool|expresstools@autodesk.com
 90
      127
280
     0
281
     1
  0
CLASS
  1
WIPEOUTVARIABLES
  2
AcDbWipeoutVariables
  3
WipeOut|AutoCAD Express Tool|expresstools@autodesk.com
 90
        0
280
     0
281
     0
  0
CLASS
  1
RTEXT
  2
RText
  3
RText|AutoCAD Express Tool|expresstools@autodesk.com
 90
        0
280
     0
281
     1
  0
CLASS
  1
ARCALIGNEDTEXT
  2
AcDbArcAlignedText
  3
ATEXT|AutoCAD Express Tool|expresstools@autodesk.com
 90
        0
280
     0
281
     1
  0
ENDSEC
  0
SECTION
  2
TABLES
  0
TABLE
  2
VPORT
  5
8
100
AcDbSymbolTable
 70
     1
  0
VPORT
  5
25
100
AcDbSymbolTableRecord
100
AcDbViewportTableRecord
  2
*ACTIVE
 70
    64
 10
0.0
 20
0.0
 11
1.0
 21
1.0
 12
5.846457
 22
4.133858
 13
0.0
 23
0.0
 14
0.5
 24
0.5
 15
0.5
 25
0.5
 16
0.0
 26
0.0
 36
1.0
 17
0.0
 27
0.0
 37
0.0
 40
8.267717
 41
1.414286
 42
50.0
 43
0.0
 44
0.0
 50
0.0
 51
0.0
 71
     0
 72
   100
 73
     1
 74
     1
 75
     0
 76
     0
 77
     0
 78
     0
  0
ENDTAB
  0
TABLE
  2
LTYPE
  5
5
100
AcDbSymbolTable
 70
     3
  0
LTYPE
  5
12
100
AcDbSymbolTableRecord
100
AcDbLinetypeTableRecord
  2
BYBLOCK
 70
    64
  3

 72
    65
 73
     0
 40
0.0
  0
LTYPE
  5
13
100
AcDbSymbolTableRecord
100
AcDbLinetypeTableRecord
  2
BYLAYER
 70
    64
  3

 72
    65
 73
     0
 40
0.0
  0
LTYPE
  5
14
100
AcDbSymbolTableRecord
100
AcDbLinetypeTableRecord
  2
CONTINUOUS
 70
    64
  3
Solid line
 72
    65
 73
     0
 40
0.0
  0
ENDTAB
  0
TABLE
  2
LAYER
  5
2
100
AcDbSymbolTable
 70
     2
  0
LAYER
  5
E
100
AcDbSymbolTableRecord
100
AcDbLayerTableRecord
  2
0
 70
    64
 62
     7
  6
CONTINUOUS
  0
LAYER
  5
2E
100
AcDbSymbolTableRecord
100
AcDbLayerTableRecord
  2
NETWORK
 70
     0
 62
     7
  6
CONTINUOUS
  0
ENDTAB
  0
TABLE
  2
STYLE
  5
3
100
AcDbSymbolTable
 70
     2
  0
STYLE
  5
F
100
AcDbSymbolTableRecord
100
AcDbTextStyleTableRecord
  2
STANDARD
 70
    64
 40
0.0
 41
1.0
 50
0.0
 71
     0
 42
0.2
  3
txt.shx
  4

  0
STYLE
  5
2B0
100
AcDbSymbolTableRecord
100
AcDbTextStyleTableRecord
  2
_NET_TEXT
 70
     0
 40
0.0
 41
1.0
 50
0.0
 71
     0
 42
0.2
  3
arial.ttf
  4

1001
ACAD
1000
Arial
1071
 50331647
  0
ENDTAB
  0
TABLE
  2
VIEW
  5
6
100
AcDbSymbolTable
 70
     0
  0
ENDTAB
  0
TABLE
  2
UCS
  5
7
100
AcDbSymbolTable
 70
     0
  0
ENDTAB
  0
TABLE
  2
APPID
  5
9
100
AcDbSymbolTable
 70
     1
  0
APPID
  5
10
100
AcDbSymbolTableRecord
100
AcDbRegAppTableRecord
  2
ACAD
 70
    64
  0
ENDTAB
  0
TABLE
  2
DIMSTYLE
  5
A
100
AcDbSymbolTable
 70
     1
  0
DIMSTYLE
105
1D
100
AcDbSymbolTableRecord
100
AcDbDimStyleTableRecord
  2
STANDARD
 70
    64
  3

  4

  5

  6

  7

 40
1.0
 41
0.18
 42
0.0625
 43
0.38
 44
0.18
 45
0.0
 46
0.0
 47
0.0
 48
0.0
 71
     0
 72
     0
 73
     1
 74
     1
 75
     0
 76
     0
 77
     0
 78
     0
140
0.18
141
0.09
142
0.0
143
25.4
144
1.0
145
0.0
146
1.0
147
0.09
170
     0
171
     2
172
     0
173
     0
174
     0
175
     0
176
     0
177
     0
178
     0
270
     2
271
     4
272
     4
273
     2
274
     2
275
     0
280
     0
281
     0
282
     0
283
     1
284
     0
285
     0
286
     0
287
     3
288
     0
340
F
  0
ENDTAB
  0
TABLE
  2
BLOCK_RECORD
  5
1
100
AcDbSymbolTable
 70
     1
  0
BLOCK_RECORD
  5
18
100
AcDbSymbolTableRecord
100
AcDbBlockTableRecord
  2
*MODEL_SPACE
  0
BLOCK_RECORD
  5
15
100
AcDbSymbolTableRecord
100
AcDbBlockTableRecord
  2
*PAPER_SPACE
  0
BLOCK_RECORD
  5
2B2
100
AcDbSymbolTableRecord
100
AcDbBlockTableRecord
  2
CELL_PHONE
  0
ENDTAB
  0
ENDSEC
  0
SECTION
  2
BLOCKS
  0
BLOCK
  5
19
100
AcDbEntity
  8
0
100
AcDbBlockBegin
  2
*MODEL_SPACE
 70
     0
 10
0.0
 20
0.0
 30
0.0
  3
*MODEL_SPACE
  1

  0
ENDBLK
  5
1A
100
AcDbEntity
  8
0
100
AcDbBlockEnd
  0
BLOCK
  5
16
100
AcDbEntity
 67
     1
  8
0
100
AcDbBlockBegin
  2
*PAPER_SPACE
 70
     0
 10
0.0
 20
0.0
 30
0.0
  3
*PAPER_SPACE
  1

  0
ENDBLK
  5
17
100
AcDbEntity
 67
     1
  8
0
100
AcDbBlockEnd
  0
BLOCK
  5
2D
100
AcDbEntity
  8
0
100
AcDbBlockBegin
  2
CELL_PHONE
 70
    66
 10
2.399114
 20
5.07874
 30
0.0
  3
CELL_PHONE
  1

  0
ATTDEF
  5
2F
100
AcDbEntity
  8
NETWORK
100
AcDbText
 10
2.399114
 20
52.70374
 30
0.0
 40
6.35
  1

100
AcDbAttributeDefinition
  3
Enter the manufacturer name.
  2
MANUFACTURER
 70
     1
  0
ATTDEF
  5
30
100
AcDbEntity
  8
NETWORK
100
AcDbText
 10
2.399114
 20
43.17874
 30
0.0
 40
6.35
  1

100
AcDbAttributeDefinition
  3
Enter the product number.
  2
PRODUCTNUMBER
 70
     1
  0
ATTDEF
  5
31
100
AcDbEntity
  8
NETWORK
100
AcDbText
 10
2.399114
 20
33.65374
 30
0.0
 40
6.35
  1

100
AcDbAttributeDefinition
  3
Enter the part number.
  2
PARTNUMBER
 70
     1
  0
ATTDEF
  5
32
100
AcDbEntity
  8
NETWORK
100
AcDbText
 10
2.399114
 20
24.12874
 30
0.0
 40
6.35
  1

100
AcDbAttributeDefinition
  3
Enter the product description.
  2
PRODUCTDESCRIPTION
 70
     1
  0
ATTDEF
  5
33
100
AcDbEntity
  8
NETWORK
100
AcDbText
 10
2.399114
 20
14.60374
 30
0.0
 40
6.35
  1

100
AcDbAttributeDefinition
  3
Enter the asset ID.
  2
ASSETNUMBER
 70
     1
  0
ATTDEF
  5
34
100
AcDbEntity
  8
NETWORK
100
AcDbText
 10
2.399114
 20
5.07874
 30
0.0
 40
6.35
  1

100
AcDbAttributeDefinition
  3
Enter the serial number.
  2
SERIALNUMBER
 70
     1
  0
ATTDEF
  5
35
100
AcDbEntity
  8
NETWORK
100
AcDbText
 10
2.399114
 20
-4.44626
 30
0.0
 40
6.35
  1

100
AcDbAttributeDefinition
  3
Enter the location.
  2
LOCATION
 70
     1
  0
ATTDEF
  5
36
100
AcDbEntity
  8
NETWORK
100
AcDbText
 10
2.399114
 20
-13.97126
 30
0.0
 40
6.35
  1

100
AcDbAttributeDefinition
  3
Enter the building.
  2
BUILDING
 70
     1
  0
ATTDEF
  5
37
100
AcDbEntity
  8
NETWORK
100
AcDbText
 10
2.399114
 20
-23.49626
 30
0.0
 40
6.35
  1

100
AcDbAttributeDefinition
  3
Enter the room.
  2
ROOM
 70
     1
  0
ATTDEF
  5
38
100
AcDbEntity
  8
NETWORK
100
AcDbText
 10
2.399114
 20
-33.02126
 30
0.0
 40
6.35
  1

100
AcDbAttributeDefinition
  3
Enter the department.
  2
DEPARTMENT
 70
     1
  0
POLYLINE
  5
39
100
AcDbEntity
  8
NETWORK
  6
CONTINUOUS
 62
     7
100
AcDb2dPolyline
 66
     1
 10
0.0
 20
0.0
 30
0.0
 70
     1
  0
VERTEX
  5
3A
100
AcDbEntity
  8
NETWORK
  6
CONTINUOUS
 62
     7
100
AcDbVertex
100
AcDb2dVertex
 10
1.648622
 20
5.719798
 30
0.0
  0
VERTEX
  5
3B
100
AcDbEntity
  8
NETWORK
  6
CONTINUOUS
 62
     7
100
AcDbVertex
100
AcDb2dVertex
 10
1.723671
 20
2.811118
 30
0.0
 42
0.089655
  0
VERTEX
  5
3C
100
AcDbEntity
  8
NETWORK
  6
CONTINUOUS
 62
     7
100
AcDbVertex
100
AcDb2dVertex
 10
1.731272
 20
2.76375
 30
0.0
 42
0.090436
  0
VERTEX
  5
3D
100
AcDbEntity
  8
NETWORK
  6
CONTINUOUS
 62
     7
100
AcDbVertex
100
AcDb2dVertex
 10
1.75492
 20
2.722252
 30
0.0
 42
0.091677
  0
VERTEX
  5
3E
100
AcDbEntity
  8
NETWORK
  6
CONTINUOUS
 62
     7
100
AcDbVertex
100
AcDb2dVertex
 10
1.791511
 20
2.69207
 30
0.0
 42
0.092756
  0
VERTEX
  5
3F
100
AcDbEntity
  8
NETWORK
  6
CONTINUOUS
 62
     7
100
AcDbVertex
100
AcDb2dVertex
 10
1.836245
 20
2.677165
 30
0.0
  0
VERTEX
  5
40
100
AcDbEntity
  8
NETWORK
  6
CONTINUOUS
 62
     7
100
AcDbVertex
100
AcDb2dVertex
 10
2.961983
 20
2.677165
 30
0.0
  0
VERTEX
  5
41
100
AcDbEntity
  8
NETWORK
  6
CONTINUOUS
 62
     7
100
AcDbVertex
100
AcDb2dVertex
 10
3.074557
 20
2.772846
 30
0.0
  0
VERTEX
  5
42
100
AcDbEntity
  8
NETWORK
  6
CONTINUOUS
 62
     7
100
AcDbVertex
100
AcDb2dVertex
 10
3.149606
 20
4.916084
 30
0.0
  0
VERTEX
  5
43
100
AcDbEntity
  8
NETWORK
  6
CONTINUOUS
 62
     7
100
AcDbVertex
100
AcDb2dVertex
 10
3.149606
 20
5.949431
 30
0.0
 42
0.123244
  0
VERTEX
  5
44
100
AcDbEntity
  8
NETWORK
  6
CONTINUOUS
 62
     7
100
AcDbVertex
100
AcDb2dVertex
 10
2.95915
 20
6.713446
 30
0.0
 42
0.029456
  0
VERTEX
  5
45
100
AcDbEntity
  8
NETWORK
  6
CONTINUOUS
 62
     7
100
AcDbVertex
100
AcDb2dVertex
 10
2.849409
 20
6.906233
 30
0.0
  0
VERTEX
  5
46
100
AcDbEntity
  8
NETWORK
  6
CONTINUOUS
 62
     7
100
AcDbVertex
100
AcDb2dVertex
 10
2.624262
 20
6.944505
 30
0.0
 70
    16
  0
VERTEX
  5
47
100
AcDbEntity
  8
NETWORK
  6
CONTINUOUS
 62
     7
100
AcDbVertex
100
AcDb2dVertex
 10
2.624262
 20
6.944505
 30
0.0
 70
     1
  0
VERTEX
  5
48
100
AcDbEntity
  8
NETWORK
  6
CONTINUOUS
 62
     7
100
AcDbVertex
100
AcDb2dVertex
 10
2.613318
 20
6.94543
 30
0.0
 70
     1
  0
VERTEX
  5
49
100
AcDbEntity
  8
NETWORK
  6
CONTINUOUS
 62
     7
100
AcDbVertex
100
AcDb2dVertex
 10
2.601775
 20
6.946485
 30
0.0
 70
     1
  0
VERTEX
  5
4A
100
AcDbEntity
  8
NETWORK
  6
CONTINUOUS
 62
     7
100
AcDbVertex
100
AcDb2dVertex
 10
2.58965
 20
6.947648
 30
0.0
 70
     1
  0
VERTEX
  5
4B
100
AcDbEntity
  8
NETWORK
  6
CONTINUOUS
 62
     7
100
AcDbVertex
100
AcDb2dVertex
 10
2.576965
 20
6.948896
 30
0.0
 70
     1
  0
VERTEX
  5
4C
100
AcDbEntity
  8
NETWORK
  6
CONTINUOUS
 62
     7
100
AcDbVertex
100
AcDb2dVertex
 10
2.563737
 20
6.950205
 30
0.0
 70
     1
  0
VERTEX
  5
4D
100
AcDbEntity
  8
NETWORK
  6
CONTINUOUS
 62
     7
100
AcDbVertex
100
AcDb2dVertex
 10
2.549988
 20
6.951552
 30
0.0
 70
     1
  0
VERTEX
  5
4E
100
AcDbEntity
  8
NETWORK
  6
CONTINUOUS
 62
     7
100
AcDbVertex
100
AcDb2dVertex
 10
2.535736
 20
6.952914
 30
0.0
 70
     1
  0
VERTEX
  5
4F
100
AcDbEntity
  8
NETWORK
  6
CONTINUOUS
 62
     7
100
AcDbVertex
100
AcDb2dVertex
 10
2.521003
 20
6.954269
 30
0.0
 70
     1
  0
VERTEX
  5
50
100
AcDbEntity
  8
NETWORK
  6
CONTINUOUS
 62
     7
100
AcDbVertex
100
AcDb2dVertex
 10
2.50581
 20
6.955592
 30
0.0
 70
     1
  0
VERTEX
  5
51
100
AcDbEntity
  8
NETWORK
  6
CONTINUOUS
 62
     7
100
AcDbVertex
100
AcDb2dVertex
 10
2.490179
 20
6.956862
 30
0.0
 70
     1
  0
VERTEX
  5
52
100
AcDbEntity
  8
NETWORK
  6
CONTINUOUS
 62
     7
100
AcDbVertex
100
AcDb2dVertex
 10
2.474131
 20
6.958054
 30
0.0
 70
     1
  0
VERTEX
  5
53
100
AcDbEntity
  8
NETWORK
  6
CONTINUOUS
 62
     7
100
AcDbVertex
100
AcDb2dVertex
 10
2.457687
 20
6.959146
 30
0.0
 70
     1
  0
VERTEX
  5
54
100
AcDbEntity
  8
NETWORK
  6
CONTINUOUS
 62
     7
100
AcDbVertex
100
AcDb2dVertex
 10
2.440867
 20
6.960114
 30
0.0
 70
     1
  0
VERTEX
  5
55
100
AcDbEntity
  8
NETWORK
  6
CONTINUOUS
 62
     7
100
AcDbVertex
100
AcDb2dVertex
 10
2.423685
 20
6.960936
 30
0.0
 70
     1
  0
VERTEX
  5
56
100
AcDbEntity
  8
NETWORK
  6
CONTINUOUS
 62
     7
100
AcDbVertex
100
AcDb2dVertex
 10
2.406159
 20
6.961588
 30
0.0
 70
     1
  0
VERTEX
  5
57
100
AcDbEntity
  8
NETWORK
  6
CONTINUOUS
 62
     7
100
AcDbVertex
100
AcDb2dVertex
 10
2.388303
 20
6.962047
 30
0.0
 70
     1
  0
VERTEX
  5
58
100
AcDbEntity
  8
NETWORK
  6
CONTINUOUS
 62
     7
100
AcDbVertex
100
AcDb2dVertex
 10
2.370132
 20
6.96229
 30
0.0
 70
     1
  0
VERTEX
  5
59
100
AcDbEntity
  8
NETWORK
  6
CONTINUOUS
 62
     7
100
AcDbVertex
100
AcDb2dVertex
 10
2.351664
 20
6.962294
 30
0.0
 70
     1
  0
VERTEX
  5
5A
100
AcDbEntity
  8
NETWORK
  6
CONTINUOUS
 62
     7
100
AcDbVertex
100
AcDb2dVertex
 10
2.332924
 20
6.962036
 30
0.0
 70
     1
  0
VERTEX
  5
5B
100
AcDbEntity
  8
NETWORK
  6
CONTINUOUS
 62
     7
100
AcDbVertex
100
AcDb2dVertex
 10
2.313949
 20
6.961493
 30
0.0
 70
     1
  0
VERTEX
  5
5C
100
AcDbEntity
  8
NETWORK
  6
CONTINUOUS
 62
     7
100
AcDbVertex
100
AcDb2dVertex
 10
2.294777
 20
6.960641
 30
0.0
 70
     1
  0
VERTEX
  5
5D
100
AcDbEntity
  8
NETWORK
  6
CONTINUOUS
 62
     7
100
AcDbVertex
100
AcDb2dVertex
 10
2.275442
 20
6.959458
 30
0.0
 70
     1
  0
VERTEX
  5
5E
100
AcDbEntity
  8
NETWORK
  6
CONTINUOUS
 62
     7
100
AcDbVertex
100
AcDb2dVertex
 10
2.255984
 20
6.957921
 30
0.0
 70
     1
  0
VERTEX
  5
5F
100
AcDbEntity
  8
NETWORK
  6
CONTINUOUS
 62
     7
100
AcDbVertex
100
AcDb2dVertex
 10
2.236432
 20
6.956006
 30
0.0
 70
     1
  0
VERTEX
  5
60
100
AcDbEntity
  8
NETWORK
  6
CONTINUOUS
 62
     7
100
AcDbVertex
100
AcDb2dVertex
 10
2.216774
 20
6.953691
 30
0.0
 70
     1
  0
VERTEX
  5
61
100
AcDbEntity
  8
NETWORK
  6
CONTINUOUS
 62
     7
100
AcDbVertex
100
AcDb2dVertex
 10
2.196966
 20
6.950952
 30
0.0
 70
     1
  0
VERTEX
  5
62
100
AcDbEntity
  8
NETWORK
  6
CONTINUOUS
 62
     7
100
AcDbVertex
100
AcDb2dVertex
 10
2.176968
 20
6.947765
 30
0.0
 70
     1
  0
VERTEX
  5
63
100
AcDbEntity
  8
NETWORK
  6
CONTINUOUS
 62
     7
100
AcDbVertex
100
AcDb2dVertex
 10
2.156735
 20
6.944107
 30
0.0
 70
     1
  0
VERTEX
  5
64
100
AcDbEntity
  8
NETWORK
  6
CONTINUOUS
 62
     7
100
AcDbVertex
100
AcDb2dVertex
 10
2.136227
 20
6.939955
 30
0.0
 70
     1
  0
VERTEX
  5
65
100
AcDbEntity
  8
NETWORK
  6
CONTINUOUS
 62
     7
100
AcDbVertex
100
AcDb2dVertex
 10
2.115439
 20
6.935286
 30
0.0
 70
     1
  0
VERTEX
  5
66
100
AcDbEntity
  8
NETWORK
  6
CONTINUOUS
 62
     7
100
AcDbVertex
100
AcDb2dVertex
 10
2.094586
 20
6.930076
 30
0.0
 70
     1
  0
VERTEX
  5
67
100
AcDbEntity
  8
NETWORK
  6
CONTINUOUS
 62
     7
100
AcDbVertex
100
AcDb2dVertex
 10
2.073962
 20
6.924305
 30
0.0
 70
     1
  0
VERTEX
  5
68
100
AcDbEntity
  8
NETWORK
  6
CONTINUOUS
 62
     7
100
AcDbVertex
100
AcDb2dVertex
 10
2.053858
 20
6.917949
 30
0.0
 70
     1
  0
VERTEX
  5
69
100
AcDbEntity
  8
NETWORK
  6
CONTINUOUS
 62
     7
100
AcDbVertex
100
AcDb2dVertex
 10
2.034568
 20
6.910989
 30
0.0
 70
     1
  0
VERTEX
  5
6A
100
AcDbEntity
  8
NETWORK
  6
CONTINUOUS
 62
     7
100
AcDbVertex
100
AcDb2dVertex
 10
2.016384
 20
6.9034
 30
0.0
 70
     1
  0
VERTEX
  5
6B
100
AcDbEntity
  8
NETWORK
  6
CONTINUOUS
 62
     7
100
AcDbVertex
100
AcDb2dVertex
 10
1.999502
 20
6.895168
 30
0.0
 70
     1
  0
VERTEX
  5
6C
100
AcDbEntity
  8
NETWORK
  6
CONTINUOUS
 62
     7
100
AcDbVertex
100
AcDb2dVertex
 10
1.98379
 20
6.886295
 30
0.0
 70
     1
  0
VERTEX
  5
6D
100
AcDbEntity
  8
NETWORK
  6
CONTINUOUS
 62
     7
100
AcDbVertex
100
AcDb2dVertex
 10
1.96905
 20
6.876787
 30
0.0
 70
     1
  0
VERTEX
  5
6E
100
AcDbEntity
  8
NETWORK
  6
CONTINUOUS
 62
     7
100
AcDbVertex
100
AcDb2dVertex
 10
1.955082
 20
6.866653
 30
0.0
 70
     1
  0
VERTEX
  5
6F
100
AcDbEntity
  8
NETWORK
  6
CONTINUOUS
 62
     7
100
AcDbVertex
100
AcDb2dVertex
 10
1.941685
 20
6.855897
 30
0.0
 70
     1
  0
VERTEX
  5
70
100
AcDbEntity
  8
NETWORK
  6
CONTINUOUS
 62
     7
100
AcDbVertex
100
AcDb2dVertex
 10
1.928662
 20
6.844528
 30
0.0
 70
     1
  0
VERTEX
  5
71
100
AcDbEntity
  8
NETWORK
  6
CONTINUOUS
 62
     7
100
AcDbVertex
100
AcDb2dVertex
 10
1.915887
 20
6.832552
 30
0.0
 70
     1
  0
VERTEX
  5
72
100
AcDbEntity
  8
NETWORK
  6
CONTINUOUS
 62
     7
100
AcDbVertex
100
AcDb2dVertex
 10
1.903382
 20
6.819974
 30
0.0
 70
     1
  0
VERTEX
  5
73
100
AcDbEntity
  8
NETWORK
  6
CONTINUOUS
 62
     7
100
AcDbVertex
100
AcDb2dVertex
 10
1.891191
 20
6.8068
 30
0.0
 70
     1
  0
VERTEX
  5
74
100
AcDbEntity
  8
NETWORK
  6
CONTINUOUS
 62
     7
100
AcDbVertex
100
AcDb2dVertex
 10
1.879355
 20
6.793036
 30
0.0
 70
     1
  0
VERTEX
  5
75
100
AcDbEntity
  8
NETWORK
  6
CONTINUOUS
 62
     7
100
AcDbVertex
100
AcDb2dVertex
 10
1.867914
 20
6.778687
 30
0.0
 70
     1
  0
VERTEX
  5
76
100
AcDbEntity
  8
NETWORK
  6
CONTINUOUS
 62
     7
100
AcDbVertex
100
AcDb2dVertex
 10
1.85691
 20
6.76376
 30
0.0
 70
     1
  0
VERTEX
  5
77
100
AcDbEntity
  8
NETWORK
  6
CONTINUOUS
 62
     7
100
AcDbVertex
100
AcDb2dVertex
 10
1.846356
 20
6.748259
 30
0.0
 70
     1
  0
VERTEX
  5
78
100
AcDbEntity
  8
NETWORK
  6
CONTINUOUS
 62
     7
100
AcDbVertex
100
AcDb2dVertex
 10
1.836231
 20
6.732191
 30
0.0
 70
     1
  0
VERTEX
  5
79
100
AcDbEntity
  8
NETWORK
  6
CONTINUOUS
 62
     7
100
AcDbVertex
100
AcDb2dVertex
 10
1.826513
 20
6.715561
 30
0.0
 70
     1
  0
VERTEX
  5
7A
100
AcDbEntity
  8
NETWORK
  6
CONTINUOUS
 62
     7
100
AcDbVertex
100
AcDb2dVertex
 10
1.817178
 20
6.698375
 30
0.0
 70
     1
  0
VERTEX
  5
7B
100
AcDbEntity
  8
NETWORK
  6
CONTINUOUS
 62
     7
100
AcDbVertex
100
AcDb2dVertex
 10
1.808203
 20
6.680638
 30
0.0
 70
     1
  0
VERTEX
  5
7C
100
AcDbEntity
  8
NETWORK
  6
CONTINUOUS
 62
     7
100
AcDbVertex
100
AcDb2dVertex
 10
1.799566
 20
6.662358
 30
0.0
 70
     1
  0
VERTEX
  5
7D
100
AcDbEntity
  8
NETWORK
  6
CONTINUOUS
 62
     7
100
AcDbVertex
100
AcDb2dVertex
 10
1.791253
 20
6.643538
 30
0.0
 70
     1
  0
VERTEX
  5
7E
100
AcDbEntity
  8
NETWORK
  6
CONTINUOUS
 62
     7
100
AcDbVertex
100
AcDb2dVertex
 10
1.783258
 20
6.624187
 30
0.0
 70
     1
  0
VERTEX
  5
7F
100
AcDbEntity
  8
NETWORK
  6
CONTINUOUS
 62
     7
100
AcDbVertex
100
AcDb2dVertex
 10
1.775577
 20
6.604311
 30
0.0
 70
     1
  0
VERTEX
  5
80
100
AcDbEntity
  8
NETWORK
  6
CONTINUOUS
 62
     7
100
AcDbVertex
100
AcDb2dVertex
 10
1.768202
 20
6.583917
 30
0.0
 70
     1
  0
VERTEX
  5
81
100
AcDbEntity
  8
NETWORK
  6
CONTINUOUS
 62
     7
100
AcDbVertex
100
AcDb2dVertex
 10
1.761129
 20
6.56301
 30
0.0
 70
     1
  0
VERTEX
  5
82
100
AcDbEntity
  8
NETWORK
  6
CONTINUOUS
 62
     7
100
AcDbVertex
100
AcDb2dVertex
 10
1.754351
 20
6.541598
 30
0.0
 70
     1
  0
VERTEX
  5
83
100
AcDbEntity
  8
NETWORK
  6
CONTINUOUS
 62
     7
100
AcDbVertex
100
AcDb2dVertex
 10
1.74786
 20
6.519684
 30
0.0
 70
     1
  0
VERTEX
  5
84
100
AcDbEntity
  8
NETWORK
  6
CONTINUOUS
 62
     7
100
AcDbVertex
100
AcDb2dVertex
 10
1.741644
 20
6.497271
 30
0.0
 70
     1
  0
VERTEX
  5
85
100
AcDbEntity
  8
NETWORK
  6
CONTINUOUS
 62
     7
100
AcDbVertex
100
AcDb2dVertex
 10
1.735693
 20
6.474364
 30
0.0
 70
     1
  0
VERTEX
  5
86
100
AcDbEntity
  8
NETWORK
  6
CONTINUOUS
 62
     7
100
AcDbVertex
100
AcDb2dVertex
 10
1.729996
 20
6.450964
 30
0.0
 70
     1
  0
VERTEX
  5
87
100
AcDbEntity
  8
NETWORK
  6
CONTINUOUS
 62
     7
100
AcDbVertex
100
AcDb2dVertex
 10
1.724543
 20
6.427075
 30
0.0
 70
     1
  0
VERTEX
  5
88
100
AcDbEntity
  8
NETWORK
  6
CONTINUOUS
 62
     7
100
AcDbVertex
100
AcDb2dVertex
 10
1.719324
 20
6.402708
 30
0.0
 70
     1
  0
VERTEX
  5
89
100
AcDbEntity
  8
NETWORK
  6
CONTINUOUS
 62
     7
100
AcDbVertex
100
AcDb2dVertex
 10
1.714334
 20
6.377911
 30
0.0
 70
     1
  0
VERTEX
  5
8A
100
AcDbEntity
  8
NETWORK
  6
CONTINUOUS
 62
     7
100
AcDbVertex
100
AcDb2dVertex
 10
1.709567
 20
6.352742
 30
0.0
 70
     1
  0
VERTEX
  5
8B
100
AcDbEntity
  8
NETWORK
  6
CONTINUOUS
 62
     7
100
AcDbVertex
100
AcDb2dVertex
 10
1.705019
 20
6.32726
 30
0.0
 70
     1
  0
VERTEX
  5
8C
100
AcDbEntity
  8
NETWORK
  6
CONTINUOUS
 62
     7
100
AcDbVertex
100
AcDb2dVertex
 10
1.700686
 20
6.301524
 30
0.0
 70
     1
  0
VERTEX
  5
8D
100
AcDbEntity
  8
NETWORK
  6
CONTINUOUS
 62
     7
100
AcDbVertex
100
AcDb2dVertex
 10
1.696564
 20
6.275592
 30
0.0
 70
     1
  0
VERTEX
  5
8E
100
AcDbEntity
  8
NETWORK
  6
CONTINUOUS
 62
     7
100
AcDbVertex
100
AcDb2dVertex
 10
1.692647
 20
6.249525
 30
0.0
 70
     1
  0
VERTEX
  5
8F
100
AcDbEntity
  8
NETWORK
  6
CONTINUOUS
 62
     7
100
AcDbVertex
100
AcDb2dVertex
 10
1.688932
 20
6.223385
 30
0.0
 70
     1
  0
VERTEX
  5
90
100
AcDbEntity
  8
NETWORK
  6
CONTINUOUS
 62
     7
100
AcDbVertex
100
AcDb2dVertex
 10
1.685413
 20
6.197236
 30
0.0
 70
     1
  0
VERTEX
  5
91
100
AcDbEntity
  8
NETWORK
  6
CONTINUOUS
 62
     7
100
AcDbVertex
100
AcDb2dVertex
 10
1.682088
 20
6.171142
 30
0.0
 70
     1
  0
VERTEX
  5
92
100
AcDbEntity
  8
NETWORK
  6
CONTINUOUS
 62
     7
100
AcDbVertex
100
AcDb2dVertex
 10
1.67895
 20
6.145165
 30
0.0
 70
     1
  0
VERTEX
  5
93
100
AcDbEntity
  8
NETWORK
  6
CONTINUOUS
 62
     7
100
AcDbVertex
100
AcDb2dVertex
 10
1.675997
 20
6.11937
 30
0.0
 70
     1
  0
VERTEX
  5
94
100
AcDbEntity
  8
NETWORK
  6
CONTINUOUS
 62
     7
100
AcDbVertex
100
AcDb2dVertex
 10
1.673222
 20
6.09382
 30
0.0
 70
     1
  0
VERTEX
  5
95
100
AcDbEntity
  8
NETWORK
  6
CONTINUOUS
 62
     7
100
AcDbVertex
100
AcDb2dVertex
 10
1.670623
 20
6.068576
 30
0.0
 70
     1
  0
VERTEX
  5
96
100
AcDbEntity
  8
NETWORK
  6
CONTINUOUS
 62
     7
100
AcDbVertex
100
AcDb2dVertex
 10
1.668194
 20
6.043701
 30
0.0
 70
     1
  0
VERTEX
  5
97
100
AcDbEntity
  8
NETWORK
  6
CONTINUOUS
 62
     7
100
AcDbVertex
100
AcDb2dVertex
 10
1.665931
 20
6.019257
 30
0.0
 70
     1
  0
VERTEX
  5
98
100
AcDbEntity
  8
NETWORK
  6
CONTINUOUS
 62
     7
100
AcDbVertex
100
AcDb2dVertex
 10
1.66383
 20
5.995306
 30
0.0
 70
     1
  0
VERTEX
  5
99
100
AcDbEntity
  8
NETWORK
  6
CONTINUOUS
 62
     7
100
AcDbVertex
100
AcDb2dVertex
 10
1.661887
 20
5.971912
 30
0.0
 70
     1
  0
VERTEX
  5
9A
100
AcDbEntity
  8
NETWORK
  6
CONTINUOUS
 62
     7
100
AcDbVertex
100
AcDb2dVertex
 10
1.660096
 20
5.949135
 30
0.0
 70
     1
  0
VERTEX
  5
9B
100
AcDbEntity
  8
NETWORK
  6
CONTINUOUS
 62
     7
100
AcDbVertex
100
AcDb2dVertex
 10
1.658453
 20
5.927039
 30
0.0
 70
     1
  0
VERTEX
  5
9C
100
AcDbEntity
  8
NETWORK
  6
CONTINUOUS
 62
     7
100
AcDbVertex
100
AcDb2dVertex
 10
1.656955
 20
5.905686
 30
0.0
 70
     1
  0
VERTEX
  5
9D
100
AcDbEntity
  8
NETWORK
  6
CONTINUOUS
 62
     7
100
AcDbVertex
100
AcDb2dVertex
 10
1.655596
 20
5.885139
 30
0.0
 70
     1
  0
VERTEX
  5
9E
100
AcDbEntity
  8
NETWORK
  6
CONTINUOUS
 62
     7
100
AcDbVertex
100
AcDb2dVertex
 10
1.654372
 20
5.86546
 30
0.0
 70
     1
  0
VERTEX
  5
9F
100
AcDbEntity
  8
NETWORK
  6
CONTINUOUS
 62
     7
100
AcDbVertex
100
AcDb2dVertex
 10
1.653279
 20
5.846712
 30
0.0
 70
     1
  0
VERTEX
  5
A0
100
AcDbEntity
  8
NETWORK
  6
CONTINUOUS
 62
     7
100
AcDbVertex
100
AcDb2dVertex
 10
1.652313
 20
5.828958
 30
0.0
 70
     1
  0
VERTEX
  5
A1
100
AcDbEntity
  8
NETWORK
  6
CONTINUOUS
 62
     7
100
AcDbVertex
100
AcDb2dVertex
 10
1.651468
 20
5.812259
 30
0.0
 70
     1
  0
VERTEX
  5
A2
100
AcDbEntity
  8
NETWORK
  6
CONTINUOUS
 62
     7
100
AcDbVertex
100
AcDb2dVertex
 10
1.650741
 20
5.796679
 30
0.0
 70
     1
  0
VERTEX
  5
A3
100
AcDbEntity
  8
NETWORK
  6
CONTINUOUS
 62
     7
100
AcDbVertex
100
AcDb2dVertex
 10
1.650127
 20
5.78228
 30
0.0
 70
     1
  0
VERTEX
  5
A4
100
AcDbEntity
  8
NETWORK
  6
CONTINUOUS
 62
     7
100
AcDbVertex
100
AcDb2dVertex
 10
1.649621
 20
5.769124
 30
0.0
 70
     1
  0
VERTEX
  5
A5
100
AcDbEntity
  8
NETWORK
  6
CONTINUOUS
 62
     7
100
AcDbVertex
100
AcDb2dVertex
 10
1.64922
 20
5.757274
 30
0.0
 70
     1
  0
VERTEX
  5
A6
100
AcDbEntity
  8
NETWORK
  6
CONTINUOUS
 62
     7
100
AcDbVertex
100
AcDb2dVertex
 10
1.648918
 20
5.746792
 30
0.0
 70
     1
  0
VERTEX
  5
A7
100
AcDbEntity
  8
NETWORK
  6
CONTINUOUS
 62
     7
100
AcDbVertex
100
AcDb2dVertex
 10
1.648712
 20
5.737741
 30
0.0
 70
     1
  0
VERTEX
  5
A8
100
AcDbEntity
  8
NETWORK
  6
CONTINUOUS
 62
     7
100
AcDbVertex
100
AcDb2dVertex
 10
1.648597
 20
5.730183
 30
0.0
 70
     1
  0
VERTEX
  5
A9
100
AcDbEntity
  8
NETWORK
  6
CONTINUOUS
 62
     7
100
AcDbVertex
100
AcDb2dVertex
 10
1.648569
 20
5.724181
 30
0.0
 70
     1
  0
VERTEX
  5
AA
100
AcDbEntity
  8
NETWORK
  6
CONTINUOUS
 62
     7
100
AcDbVertex
100
AcDb2dVertex
 10
1.648622
 20
5.719798
 30
0.0
 70
     1
  0
VERTEX
  5
AB
100
AcDbEntity
  8
NETWORK
  6
CONTINUOUS
 62
     7
100
AcDbVertex
100
AcDb2dVertex
 10
2.603614
 20
6.946158
 30
0.0
 70
    16
  0
VERTEX
  5
AC
100
AcDbEntity
  8
NETWORK
  6
CONTINUOUS
 62
     7
100
AcDbVertex
100
AcDb2dVertex
 10
2.555312
 20
6.951204
 30
0.0
 70
    16
  0
VERTEX
  5
AD
100
AcDbEntity
  8
NETWORK
  6
CONTINUOUS
 62
     7
100
AcDbVertex
100
AcDb2dVertex
 10
2.465694
 20
6.959425
 30
0.0
 70
    16
  0
VERTEX
  5
AE
100
AcDbEntity
  8
NETWORK
  6
CONTINUOUS
 62
     7
100
AcDbVertex
100
AcDb2dVertex
 10
2.363123
 20
6.963736
 30
0.0
 70
    16
  0
VERTEX
  5
AF
100
AcDbEntity
  8
NETWORK
  6
CONTINUOUS
 62
     7
100
AcDbVertex
100
AcDb2dVertex
 10
2.250678
 20
6.959569
 30
0.0
 70
    16
  0
VERTEX
  5
B0
100
AcDbEntity
  8
NETWORK
  6
CONTINUOUS
 62
     7
100
AcDbVertex
100
AcDb2dVertex
 10
2.13562
 20
6.942375
 30
0.0
 70
    16
  0
VERTEX
  5
B1
100
AcDbEntity
  8
NETWORK
  6
CONTINUOUS
 62
     7
100
AcDbVertex
100
AcDb2dVertex
 10
2.009607
 20
6.907528
 30
0.0
 70
    16
  0
VERTEX
  5
B2
100
AcDbEntity
  8
NETWORK
  6
CONTINUOUS
 62
     7
100
AcDbVertex
100
AcDb2dVertex
 10
1.930459
 20
6.850698
 30
0.0
 70
    16
  0
VERTEX
  5
B3
100
AcDbEntity
  8
NETWORK
  6
CONTINUOUS
 62
     7
100
AcDbVertex
100
AcDb2dVertex
 10
1.858775
 20
6.77323
 30
0.0
 70
    16
  0
VERTEX
  5
B4
100
AcDbEntity
  8
NETWORK
  6
CONTINUOUS
 62
     7
100
AcDbVertex
100
AcDb2dVertex
 10
1.802755
 20
6.676241
 30
0.0
 70
    16
  0
VERTEX
  5
B5
100
AcDbEntity
  8
NETWORK
  6
CONTINUOUS
 62
     7
100
AcDbVertex
100
AcDb2dVertex
 10
1.757844
 20
6.560865
 30
0.0
 70
    16
  0
VERTEX
  5
B6
100
AcDbEntity
  8
NETWORK
  6
CONTINUOUS
 62
     7
100
AcDbVertex
100
AcDb2dVertex
 10
1.722916
 20
6.428401
 30
0.0
 70
    16
  0
VERTEX
  5
B7
100
AcDbEntity
  8
NETWORK
  6
CONTINUOUS
 62
     7
100
AcDbVertex
100
AcDb2dVertex
 10
1.695872
 20
6.279462
 30
0.0
 70
    16
  0
VERTEX
  5
B8
100
AcDbEntity
  8
NETWORK
  6
CONTINUOUS
 62
     7
100
AcDbVertex
100
AcDb2dVertex
 10
1.675825
 20
6.125656
 30
0.0
 70
    16
  0
VERTEX
  5
B9
100
AcDbEntity
  8
NETWORK
  6
CONTINUOUS
 62
     7
100
AcDbVertex
100
AcDb2dVertex
 10
1.661906
 20
5.979521
 30
0.0
 70
    16
  0
VERTEX
  5
BA
100
AcDbEntity
  8
NETWORK
  6
CONTINUOUS
 62
     7
100
AcDbVertex
100
AcDb2dVertex
 10
1.653242
 20
5.853347
 30
0.0
 70
    16
  0
VERTEX
  5
BB
100
AcDbEntity
  8
NETWORK
  6
CONTINUOUS
 62
     7
100
AcDbVertex
100
AcDb2dVertex
 10
1.648958
 20
5.759493
 30
0.0
 70
    16
  0
VERTEX
  5
BC
100
AcDbEntity
  8
NETWORK
  6
CONTINUOUS
 62
     7
100
AcDbVertex
100
AcDb2dVertex
 10
1.648441
 20
5.726696
 30
0.0
 70
    16
  0
VERTEX
  5
BD
100
AcDbEntity
  8
NETWORK
  6
CONTINUOUS
 62
     7
100
AcDbVertex
100
AcDb2dVertex
 10
1.648622
 20
5.719798
 30
0.0
 70
    16
  0
SEQEND
  5
BE
100
AcDbEntity
  8
NETWORK
  6
CONTINUOUS
 62
     7
  0
POLYLINE
  5
BF
100
AcDbEntity
  8
NETWORK
  6
CONTINUOUS
 62
     7
100
AcDb2dPolyline
 66
     1
 10
0.0
 20
0.0
 30
0.0
 70
     1
  0
VERTEX
  5
C0
100
AcDbEntity
  8
NETWORK
  6
CONTINUOUS
 62
     7
100
AcDbVertex
100
AcDb2dVertex
 10
3.080386
 20
6.398249
 30
0.0
  0
VERTEX
  5
C1
100
AcDbEntity
  8
NETWORK
  6
CONTINUOUS
 62
     7
100
AcDbVertex
100
AcDb2dVertex
 10
3.074557
 20
7.403771
 30
0.0
  0
VERTEX
  5
C2
100
AcDbEntity
  8
NETWORK
  6
CONTINUOUS
 62
     7
100
AcDbVertex
100
AcDb2dVertex
 10
2.999508
 20
7.480315
 30
0.0
  0
VERTEX
  5
C3
100
AcDbEntity
  8
NETWORK
  6
CONTINUOUS
 62
     7
100
AcDbVertex
100
AcDb2dVertex
 10
2.924459
 20
7.480315
 30
0.0
  0
VERTEX
  5
C4
100
AcDbEntity
  8
NETWORK
  6
CONTINUOUS
 62
     7
100
AcDbVertex
100
AcDb2dVertex
 10
2.849409
 20
7.403771
 30
0.0
  0
VERTEX
  5
C5
100
AcDbEntity
  8
NETWORK
  6
CONTINUOUS
 62
     7
100
AcDbVertex
100
AcDb2dVertex
 10
2.848471
 20
6.90432
 30
0.0
  0
SEQEND
  5
C6
100
AcDbEntity
  8
NETWORK
  6
CONTINUOUS
 62
     7
  0
SOLID
  5
C7
100
AcDbEntity
  8
NETWORK
 62
   253
100
AcDbTrace
 10
2.718073
 20
6.102519
 30
0.0
 11
2.718073
 21
6.829689
 31
0.0
 12
2.023868
 22
6.829689
 32
0.0
 13
2.023868
 23
6.829689
 33
0.0
  0
SOLID
  5
C8
100
AcDbEntity
  8
NETWORK
 62
   253
100
AcDbTrace
 10
2.718073
 20
6.102519
 30
0.0
 11
2.023868
 21
6.829689
 31
0.0
 12
2.023868
 22
6.102519
 32
0.0
 13
2.023868
 23
6.102519
 33
0.0
  0
POLYLINE
  5
C9
100
AcDbEntity
  8
NETWORK
  6
CONTINUOUS
 62
     7
100
AcDb2dPolyline
 66
     1
 10
0.0
 20
0.0
 30
0.0
 70
     1
  0
VERTEX
  5
CA
100
AcDbEntity
  8
NETWORK
  6
CONTINUOUS
 62
     7
100
AcDbVertex
100
AcDb2dVertex
 10
2.023868
 20
6.102519
 30
0.0
  0
VERTEX
  5
CB
100
AcDbEntity
  8
NETWORK
  6
CONTINUOUS
 62
     7
100
AcDbVertex
100
AcDb2dVertex
 10
2.718073
 20
6.102519
 30
0.0
  0
VERTEX
  5
CC
100
AcDbEntity
  8
NETWORK
  6
CONTINUOUS
 62
     7
100
AcDbVertex
100
AcDb2dVertex
 10
2.718073
 20
6.829689
 30
0.0
  0
VERTEX
  5
CD
100
AcDbEntity
  8
NETWORK
  6
CONTINUOUS
 62
     7
100
AcDbVertex
100
AcDb2dVertex
 10
2.023868
 20
6.829689
 30
0.0
  0
SEQEND
  5
CE
100
AcDbEntity
  8
NETWORK
  6
CONTINUOUS
 62
     7
  0
SOLID
  5
CF
100
AcDbEntity
  8
NETWORK
 62
   253
100
AcDbTrace
 10
2.677772
 20
6.583621
 30
0.0
 11
2.616065
 21
6.685266
 31
0.0
 12
2.522524
 22
6.757312
 32
0.0
 13
2.522524
 23
6.757312
 33
0.0
  0
SOLID
  5
D0
100
AcDbEntity
  8
NETWORK
 62
   253
100
AcDbTrace
 10
2.677772
 20
6.583621
 30
0.0
 11
2.522524
 21
6.757312
 31
0.0
 12
2.409782
 22
6.790029
 32
0.0
 13
2.409782
 23
6.790029
 33
0.0
  0
SOLID
  5
D1
100
AcDbEntity
  8
NETWORK
 62
   253
100
AcDbTrace
 10
2.677772
 20
6.583621
 30
0.0
 11
2.409782
 21
6.790029
 31
0.0
 12
2.293065
 22
6.778998
 32
0.0
 13
2.293065
 23
6.778998
 33
0.0
  0
SOLID
  5
D2
100
AcDbEntity
  8
NETWORK
 62
   253
100
AcDbTrace
 10
2.677772
 20
6.583621
 30
0.0
 11
2.293065
 21
6.778998
 31
0.0
 12
2.188136
 22
6.725709
 32
0.0
 13
2.188136
 23
6.725709
 33
0.0
  0
SOLID
  5
D3
100
AcDbEntity
  8
NETWORK
 62
   253
100
AcDbTrace
 10
2.677772
 20
6.583621
 30
0.0
 11
2.188136
 21
6.725709
 31
0.0
 12
2.109167
 22
6.637359
 32
0.0
 13
2.109167
 23
6.637359
 33
0.0
  0
SOLID
  5
D4
100
AcDbEntity
  8
NETWORK
 62
   253
100
AcDbTrace
 10
2.677772
 20
6.583621
 30
0.0
 11
2.109167
 21
6.637359
 31
0.0
 12
2.066824
 22
6.52588
 32
0.0
 13
2.066824
 23
6.52588
 33
0.0
  0
SOLID
  5
D5
100
AcDbEntity
  8
NETWORK
 62
   253
100
AcDbTrace
 10
2.677772
 20
6.583621
 30
0.0
 11
2.066824
 21
6.52588
 31
0.0
 12
2.066824
 22
6.406328
 32
0.0
 13
2.066824
 23
6.406328
 33
0.0
  0
SOLID
  5
D6
100
AcDbEntity
  8
NETWORK
 62
   253
100
AcDbTrace
 10
2.677772
 20
6.583621
 30
0.0
 11
2.066824
 21
6.406328
 31
0.0
 12
2.109167
 22
6.294849
 32
0.0
 13
2.109167
 23
6.294849
 33
0.0
  0
SOLID
  5
D7
100
AcDbEntity
  8
NETWORK
 62
   253
100
AcDbTrace
 10
2.677772
 20
6.583621
 30
0.0
 11
2.109167
 21
6.294849
 31
0.0
 12
2.188136
 22
6.206499
 32
0.0
 13
2.188136
 23
6.206499
 33
0.0
  0
SOLID
  5
D8
100
AcDbEntity
  8
NETWORK
 62
   253
100
AcDbTrace
 10
2.677772
 20
6.583621
 30
0.0
 11
2.188136
 21
6.206499
 31
0.0
 12
2.293065
 22
6.15321
 32
0.0
 13
2.293065
 23
6.15321
 33
0.0
  0
SOLID
  5
D9
100
AcDbEntity
  8
NETWORK
 62
   253
100
AcDbTrace
 10
2.677772
 20
6.583621
 30
0.0
 11
2.293065
 21
6.15321
 31
0.0
 12
2.409782
 22
6.142179
 32
0.0
 13
2.409782
 23
6.142179
 33
0.0
  0
SOLID
  5
DA
100
AcDbEntity
  8
NETWORK
 62
   253
100
AcDbTrace
 10
2.677772
 20
6.583621
 30
0.0
 11
2.409782
 21
6.142179
 31
0.0
 12
2.522524
 22
6.174896
 32
0.0
 13
2.522524
 23
6.174896
 33
0.0
  0
SOLID
  5
DB
100
AcDbEntity
  8
NETWORK
 62
   253
100
AcDbTrace
 10
2.677772
 20
6.583621
 30
0.0
 11
2.522524
 21
6.174896
 31
0.0
 12
2.616065
 22
6.246942
 32
0.0
 13
2.616065
 23
6.246942
 33
0.0
  0
SOLID
  5
DC
100
AcDbEntity
  8
NETWORK
 62
   253
100
AcDbTrace
 10
2.677772
 20
6.583621
 30
0.0
 11
2.616065
 21
6.246942
 31
0.0
 12
2.677772
 22
6.348588
 32
0.0
 13
2.677772
 23
6.348588
 33
0.0
  0
SOLID
  5
DD
100
AcDbEntity
  8
NETWORK
 62
   253
100
AcDbTrace
 10
2.677772
 20
6.583621
 30
0.0
 11
2.677772
 21
6.348588
 31
0.0
 12
2.699311
 22
6.466104
 32
0.0
 13
2.699311
 23
6.466104
 33
0.0
  0
POLYLINE
  5
DE
100
AcDbEntity
  8
NETWORK
  6
CONTINUOUS
 62
     7
100
AcDb2dPolyline
 66
     1
 10
0.0
 20
0.0
 30
0.0
 70
     1
  0
VERTEX
  5
DF
100
AcDbEntity
  8
NETWORK
  6
CONTINUOUS
 62
     7
100
AcDbVertex
100
AcDb2dVertex
 10
2.699311
 20
6.466104
 30
0.0
 42
0.096744
  0
VERTEX
  5
E0
100
AcDbEntity
  8
NETWORK
  6
CONTINUOUS
 62
     7
100
AcDbVertex
100
AcDb2dVertex
 10
2.675032
 20
6.590596
 30
0.0
 42
0.09775
  0
VERTEX
  5
E1
100
AcDbEntity
  8
NETWORK
  6
CONTINUOUS
 62
     7
100
AcDbVertex
100
AcDb2dVertex
 10
2.60589
 20
6.696135
 30
0.0
 42
0.099208
  0
VERTEX
  5
E2
100
AcDbEntity
  8
NETWORK
  6
CONTINUOUS
 62
     7
100
AcDbVertex
100
AcDb2dVertex
 10
2.502412
 20
6.766654
 30
0.0
 42
0.100264
  0
VERTEX
  5
E3
100
AcDbEntity
  8
NETWORK
  6
CONTINUOUS
 62
     7
100
AcDbVertex
100
AcDb2dVertex
 10
2.380352
 20
6.791417
 30
0.0
 42
0.100264
  0
VERTEX
  5
E4
100
AcDbEntity
  8
NETWORK
  6
CONTINUOUS
 62
     7
100
AcDbVertex
100
AcDb2dVertex
 10
2.258291
 20
6.766654
 30
0.0
 42
0.099208
  0
VERTEX
  5
E5
100
AcDbEntity
  8
NETWORK
  6
CONTINUOUS
 62
     7
100
AcDbVertex
100
AcDb2dVertex
 10
2.154814
 20
6.696135
 30
0.0
 42
0.09775
  0
VERTEX
  5
E6
100
AcDbEntity
  8
NETWORK
  6
CONTINUOUS
 62
     7
100
AcDbVertex
100
AcDb2dVertex
 10
2.085672
 20
6.590596
 30
0.0
 42
0.096744
  0
VERTEX
  5
E7
100
AcDbEntity
  8
NETWORK
  6
CONTINUOUS
 62
     7
100
AcDbVertex
100
AcDb2dVertex
 10
2.061393
 20
6.466104
 30
0.0
 42
0.096744
  0
VERTEX
  5
E8
100
AcDbEntity
  8
NETWORK
  6
CONTINUOUS
 62
     7
100
AcDbVertex
100
AcDb2dVertex
 10
2.085672
 20
6.341612
 30
0.0
 42
0.09775
  0
VERTEX
  5
E9
100
AcDbEntity
  8
NETWORK
  6
CONTINUOUS
 62
     7
100
AcDbVertex
100
AcDb2dVertex
 10
2.154814
 20
6.236073
 30
0.0
 42
0.099208
  0
VERTEX
  5
EA
100
AcDbEntity
  8
NETWORK
  6
CONTINUOUS
 62
     7
100
AcDbVertex
100
AcDb2dVertex
 10
2.258291
 20
6.165554
 30
0.0
 42
0.100264
  0
VERTEX
  5
EB
100
AcDbEntity
  8
NETWORK
  6
CONTINUOUS
 62
     7
100
AcDbVertex
100
AcDb2dVertex
 10
2.380352
 20
6.140791
 30
0.0
 42
0.100264
  0
VERTEX
  5
EC
100
AcDbEntity
  8
NETWORK
  6
CONTINUOUS
 62
     7
100
AcDbVertex
100
AcDb2dVertex
 10
2.502412
 20
6.165554
 30
0.0
 42
0.099208
  0
VERTEX
  5
ED
100
AcDbEntity
  8
NETWORK
  6
CONTINUOUS
 62
     7
100
AcDbVertex
100
AcDb2dVertex
 10
2.60589
 20
6.236073
 30
0.0
 42
0.09775
  0
VERTEX
  5
EE
100
AcDbEntity
  8
NETWORK
  6
CONTINUOUS
 62
     7
100
AcDbVertex
100
AcDb2dVertex
 10
2.675032
 20
6.341612
 30
0.0
 42
0.096744
  0
SEQEND
  5
EF
100
AcDbEntity
  8
NETWORK
  6
CONTINUOUS
 62
     7
  0
SOLID
  5
F0
100
AcDbEntity
  8
NETWORK
 62
   253
100
AcDbTrace
 10
2.249016
 20
6.676601
 30
0.0
 11
2.249016
 21
6.332152
 31
0.0
 12
2.34661
 22
6.142617
 32
0.0
 13
2.34661
 23
6.142617
 33
0.0
  0
SOLID
  5
F1
100
AcDbEntity
  8
NETWORK
 62
   253
100
AcDbTrace
 10
2.249016
 20
6.676601
 30
0.0
 11
2.34661
 21
6.142617
 31
0.0
 12
2.380352
 22
6.140791
 32
0.0
 13
2.380352
 23
6.140791
 33
0.0
  0
SOLID
  5
F2
100
AcDbEntity
  8
NETWORK
 62
   253
100
AcDbTrace
 10
2.249016
 20
6.676601
 30
0.0
 11
2.380352
 21
6.140791
 31
0.0
 12
2.474163
 22
6.332152
 32
0.0
 13
2.474163
 23
6.332152
 33
0.0
  0
SOLID
  5
F3
100
AcDbEntity
  8
NETWORK
 62
   253
100
AcDbTrace
 10
2.249016
 20
6.676601
 30
0.0
 11
2.474163
 21
6.332152
 31
0.0
 12
2.474163
 22
6.676601
 32
0.0
 13
2.474163
 23
6.676601
 33
0.0
  0
SOLID
  5
F4
100
AcDbEntity
  8
NETWORK
 62
   253
100
AcDbTrace
 10
2.249016
 20
6.676601
 30
0.0
 11
2.474163
 21
6.676601
 31
0.0
 12
2.380621
 22
6.792294
 32
0.0
 13
2.380621
 23
6.792294
 33
0.0
  0
SOLID
  5
F5
100
AcDbEntity
  8
NETWORK
 62
   253
100
AcDbTrace
 10
2.249016
 20
6.676601
 30
0.0
 11
2.380621
 21
6.792294
 31
0.0
 12
2.355991
 22
6.791315
 32
0.0
 13
2.355991
 23
6.791315
 33
0.0
  0
POLYLINE
  5
F6
100
AcDbEntity
  8
NETWORK
  6
CONTINUOUS
 62
     7
100
AcDb2dPolyline
 66
     1
 10
0.0
 20
0.0
 30
0.0
 70
     1
  0
VERTEX
  5
F7
100
AcDbEntity
  8
NETWORK
  6
CONTINUOUS
 62
     7
100
AcDbVertex
100
AcDb2dVertex
 10
2.355991
 20
6.791315
 30
0.0
  0
VERTEX
  5
F8
100
AcDbEntity
  8
NETWORK
  6
CONTINUOUS
 62
     7
100
AcDbVertex
100
AcDb2dVertex
 10
2.249016
 20
6.676601
 30
0.0
  0
VERTEX
  5
F9
100
AcDbEntity
  8
NETWORK
  6
CONTINUOUS
 62
     7
100
AcDbVertex
100
AcDb2dVertex
 10
2.249016
 20
6.332152
 30
0.0
  0
VERTEX
  5
FA
100
AcDbEntity
  8
NETWORK
  6
CONTINUOUS
 62
     7
100
AcDbVertex
100
AcDb2dVertex
 10
2.34661
 20
6.142617
 30
0.0
  0
VERTEX
  5
FB
100
AcDbEntity
  8
NETWORK
  6
CONTINUOUS
 62
     7
100
AcDbVertex
100
AcDb2dVertex
 10
2.380352
 20
6.140791
 30
0.0
  0
VERTEX
  5
FC
100
AcDbEntity
  8
NETWORK
  6
CONTINUOUS
 62
     7
100
AcDbVertex
100
AcDb2dVertex
 10
2.474163
 20
6.332152
 30
0.0
  0
VERTEX
  5
FD
100
AcDbEntity
  8
NETWORK
  6
CONTINUOUS
 62
     7
100
AcDbVertex
100
AcDb2dVertex
 10
2.474163
 20
6.676601
 30
0.0
  0
VERTEX
  5
FE
100
AcDbEntity
  8
NETWORK
  6
CONTINUOUS
 62
     7
100
AcDbVertex
100
AcDb2dVertex
 10
2.380621
 20
6.792294
 30
0.0
  0
SEQEND
  5
FF
100
AcDbEntity
  8
NETWORK
  6
CONTINUOUS
 62
     7
  0
SOLID
  5
100
100
AcDbEntity
  8
NETWORK
 62
   253
100
AcDbTrace
 10
1.948819
 20
5.949431
 30
0.0
 11
2.886934
 21
5.949431
 31
0.0
 12
3.074557
 22
5.911159
 32
0.0
 13
3.074557
 23
5.911159
 33
0.0
  0
SOLID
  5
101
100
AcDbEntity
  8
NETWORK
 62
   253
100
AcDbTrace
 10
1.948819
 20
5.949431
 30
0.0
 11
3.074557
 21
5.911159
 31
0.0
 12
3.074557
 22
4.858676
 32
0.0
 13
3.074557
 23
4.858676
 33
0.0
  0
SOLID
  5
102
100
AcDbEntity
  8
NETWORK
 62
   253
100
AcDbTrace
 10
1.948819
 20
5.949431
 30
0.0
 11
3.074557
 21
4.858676
 31
0.0
 12
1.761196
 22
4.858676
 32
0.0
 13
1.761196
 23
4.858676
 33
0.0
  0
SOLID
  5
103
100
AcDbEntity
  8
NETWORK
 62
   253
100
AcDbTrace
 10
1.948819
 20
5.949431
 30
0.0
 11
1.761196
 21
4.858676
 31
0.0
 12
1.761196
 22
5.911159
 32
0.0
 13
1.761196
 23
5.911159
 33
0.0
  0
POLYLINE
  5
104
100
AcDbEntity
  8
NETWORK
  6
CONTINUOUS
 62
     7
100
AcDb2dPolyline
 66
     1
 10
0.0
 20
0.0
 30
0.0
 70
     1
  0
VERTEX
  5
105
100
AcDbEntity
  8
NETWORK
  6
CONTINUOUS
 62
     7
100
AcDbVertex
100
AcDb2dVertex
 10
1.761196
 20
5.911159
 30
0.0
  0
VERTEX
  5
106
100
AcDbEntity
  8
NETWORK
  6
CONTINUOUS
 62
     7
100
AcDbVertex
100
AcDb2dVertex
 10
1.948819
 20
5.949431
 30
0.0
  0
VERTEX
  5
107
100
AcDbEntity
  8
NETWORK
  6
CONTINUOUS
 62
     7
100
AcDbVertex
100
AcDb2dVertex
 10
2.886934
 20
5.949431
 30
0.0
  0
VERTEX
  5
108
100
AcDbEntity
  8
NETWORK
  6
CONTINUOUS
 62
     7
100
AcDbVertex
100
AcDb2dVertex
 10
3.074557
 20
5.911159
 30
0.0
  0
VERTEX
  5
109
100
AcDbEntity
  8
NETWORK
  6
CONTINUOUS
 62
     7
100
AcDbVertex
100
AcDb2dVertex
 10
3.074557
 20
4.858676
 30
0.0
  0
VERTEX
  5
10A
100
AcDbEntity
  8
NETWORK
  6
CONTINUOUS
 62
     7
100
AcDbVertex
100
AcDb2dVertex
 10
1.761196
 20
4.858676
 30
0.0
  0
SEQEND
  5
10B
100
AcDbEntity
  8
NETWORK
  6
CONTINUOUS
 62
     7
  0
SOLID
  5
10C
100
AcDbEntity
  8
NETWORK
 62
   253
100
AcDbTrace
 10
2.133423
 20
4.646014
 30
0.0
 11
2.0988
 21
4.698458
 31
0.0
 12
2.038101
 22
4.740555
 32
0.0
 13
2.038101
 23
4.740555
 33
0.0
  0
SOLID
  5
10D
100
AcDbEntity
  8
NETWORK
 62
   253
100
AcDbTrace
 10
2.133423
 20
4.646014
 30
0.0
 11
2.038101
 21
4.740555
 31
0.0
 12
1.970599
 22
4.75894
 32
0.0
 13
1.970599
 23
4.75894
 33
0.0
  0
SOLID
  5
10E
100
AcDbEntity
  8
NETWORK
 62
   253
100
AcDbTrace
 10
2.133423
 20
4.646014
 30
0.0
 11
1.970599
 21
4.75894
 31
0.0
 12
1.917725
 22
4.747775
 32
0.0
 13
1.917725
 23
4.747775
 33
0.0
  0
SOLID
  5
10F
100
AcDbEntity
  8
NETWORK
 62
   253
100
AcDbTrace
 10
2.133423
 20
4.646014
 30
0.0
 11
1.917725
 21
4.747775
 31
0.0
 12
1.896265
 22
4.710606
 32
0.0
 13
1.896265
 23
4.710606
 33
0.0
  0
SOLID
  5
110
100
AcDbEntity
  8
NETWORK
 62
   253
100
AcDbTrace
 10
2.133423
 20
4.646014
 30
0.0
 11
1.896265
 21
4.710606
 31
0.0
 12
1.913033
 22
4.659233
 32
0.0
 13
1.913033
 23
4.659233
 33
0.0
  0
SOLID
  5
111
100
AcDbEntity
  8
NETWORK
 62
   253
100
AcDbTrace
 10
2.133423
 20
4.646014
 30
0.0
 11
1.913033
 21
4.659233
 31
0.0
 12
1.962706
 22
4.609967
 32
0.0
 13
1.962706
 23
4.609967
 33
0.0
  0
SOLID
  5
112
100
AcDbEntity
  8
NETWORK
 62
   253
100
AcDbTrace
 10
2.133423
 20
4.646014
 30
0.0
 11
1.962706
 21
4.609967
 31
0.0
 12
2.029513
 22
4.578449
 32
0.0
 13
2.029513
 23
4.578449
 33
0.0
  0
SOLID
  5
113
100
AcDbEntity
  8
NETWORK
 62
   253
100
AcDbTrace
 10
2.133423
 20
4.646014
 30
0.0
 11
2.029513
 21
4.578449
 31
0.0
 12
2.092242
 22
4.574687
 32
0.0
 13
2.092242
 23
4.574687
 33
0.0
  0
SOLID
  5
114
100
AcDbEntity
  8
NETWORK
 62
   253
100
AcDbTrace
 10
2.133423
 20
4.646014
 30
0.0
 11
2.092242
 21
4.574687
 31
0.0
 12
2.130978
 22
4.599874
 32
0.0
 13
2.130978
 23
4.599874
 33
0.0
  0
POLYLINE
  5
115
100
AcDbEntity
  8
NETWORK
  6
CONTINUOUS
 62
     7
100
AcDb2dPolyline
 66
     1
 10
0.0
 20
0.0
 30
0.0
 70
     1
  0
VERTEX
  5
116
100
AcDbEntity
  8
NETWORK
  6
CONTINUOUS
 62
     7
100
AcDbVertex
100
AcDb2dVertex
 10
2.130978
 20
4.599874
 30
0.0
 42
0.156906
  0
VERTEX
  5
117
100
AcDbEntity
  8
NETWORK
  6
CONTINUOUS
 62
     7
100
AcDbVertex
100
AcDb2dVertex
 10
2.136852
 20
4.630141
 30
0.0
 42
0.106612
  0
VERTEX
  5
118
100
AcDbEntity
  8
NETWORK
  6
CONTINUOUS
 62
     7
100
AcDbVertex
100
AcDb2dVertex
 10
2.124429
 20
4.665848
 30
0.0
 42
0.072318
  0
VERTEX
  5
119
100
AcDbEntity
  8
NETWORK
  6
CONTINUOUS
 62
     7
100
AcDbVertex
100
AcDb2dVertex
 10
2.095601
 20
4.701558
 30
0.0
 42
0.058726
  0
VERTEX
  5
11A
100
AcDbEntity
  8
NETWORK
  6
CONTINUOUS
 62
     7
100
AcDbVertex
100
AcDb2dVertex
 10
2.054757
 20
4.731834
 30
0.0
 42
0.058726
  0
VERTEX
  5
11B
100
AcDbEntity
  8
NETWORK
  6
CONTINUOUS
 62
     7
100
AcDbVertex
100
AcDb2dVertex
 10
2.008114
 20
4.752068
 30
0.0
 42
0.072318
  0
VERTEX
  5
11C
100
AcDbEntity
  8
NETWORK
  6
CONTINUOUS
 62
     7
100
AcDbVertex
100
AcDb2dVertex
 10
1.962775
 20
4.759179
 30
0.0
 42
0.106612
  0
VERTEX
  5
11D
100
AcDbEntity
  8
NETWORK
  6
CONTINUOUS
 62
     7
100
AcDbVertex
100
AcDb2dVertex
 10
1.92564
 20
4.752084
 30
0.0
 42
0.156906
  0
VERTEX
  5
11E
100
AcDbEntity
  8
NETWORK
  6
CONTINUOUS
 62
     7
100
AcDbVertex
100
AcDb2dVertex
 10
1.902365
 20
4.731864
 30
0.0
 42
0.156906
  0
VERTEX
  5
11F
100
AcDbEntity
  8
NETWORK
  6
CONTINUOUS
 62
     7
100
AcDbVertex
100
AcDb2dVertex
 10
1.896491
 20
4.701596
 30
0.0
 42
0.106612
  0
VERTEX
  5
120
100
AcDbEntity
  8
NETWORK
  6
CONTINUOUS
 62
     7
100
AcDbVertex
100
AcDb2dVertex
 10
1.908914
 20
4.66589
 30
0.0
 42
0.072318
  0
VERTEX
  5
121
100
AcDbEntity
  8
NETWORK
  6
CONTINUOUS
 62
     7
100
AcDbVertex
100
AcDb2dVertex
 10
1.937742
 20
4.63018
 30
0.0
 42
0.058726
  0
VERTEX
  5
122
100
AcDbEntity
  8
NETWORK
  6
CONTINUOUS
 62
     7
100
AcDbVertex
100
AcDb2dVertex
 10
1.978586
 20
4.599903
 30
0.0
 42
0.058726
  0
VERTEX
  5
123
100
AcDbEntity
  8
NETWORK
  6
CONTINUOUS
 62
     7
100
AcDbVertex
100
AcDb2dVertex
 10
2.025229
 20
4.579669
 30
0.0
 42
0.072318
  0
VERTEX
  5
124
100
AcDbEntity
  8
NETWORK
  6
CONTINUOUS
 62
     7
100
AcDbVertex
100
AcDb2dVertex
 10
2.070568
 20
4.572559
 30
0.0
 42
0.106612
  0
VERTEX
  5
125
100
AcDbEntity
  8
NETWORK
  6
CONTINUOUS
 62
     7
100
AcDbVertex
100
AcDb2dVertex
 10
2.107703
 20
4.579653
 30
0.0
 42
0.156906
  0
SEQEND
  5
126
100
AcDbEntity
  8
NETWORK
  6
CONTINUOUS
 62
     7
  0
SOLID
  5
127
100
AcDbEntity
  8
NETWORK
 62
   253
100
AcDbTrace
 10
2.152475
 20
4.13219
 30
0.0
 11
2.092925
 21
4.170155
 31
0.0
 12
2.008959
 22
4.188141
 32
0.0
 13
2.008959
 23
4.188141
 33
0.0
  0
SOLID
  5
128
100
AcDbEntity
  8
NETWORK
 62
   253
100
AcDbTrace
 10
2.152475
 20
4.13219
 30
0.0
 11
2.008959
 21
4.188141
 31
0.0
 12
1.919811
 22
4.182027
 32
0.0
 13
1.919811
 23
4.182027
 33
0.0
  0
SOLID
  5
129
100
AcDbEntity
  8
NETWORK
 62
   253
100
AcDbTrace
 10
2.152475
 20
4.13219
 30
0.0
 11
1.919811
 21
4.182027
 31
0.0
 12
1.845906
 22
4.153214
 32
0.0
 13
1.845906
 23
4.153214
 33
0.0
  0
SOLID
  5
12A
100
AcDbEntity
  8
NETWORK
 62
   253
100
AcDbTrace
 10
2.152475
 20
4.13219
 30
0.0
 11
1.845906
 21
4.153214
 31
0.0
 12
1.804172
 22
4.108303
 32
0.0
 13
1.804172
 23
4.108303
 33
0.0
  0
SOLID
  5
12B
100
AcDbEntity
  8
NETWORK
 62
   253
100
AcDbTrace
 10
2.152475
 20
4.13219
 30
0.0
 11
1.804172
 21
4.108303
 31
0.0
 12
1.804172
 22
4.057582
 32
0.0
 13
1.804172
 23
4.057582
 33
0.0
  0
SOLID
  5
12C
100
AcDbEntity
  8
NETWORK
 62
   253
100
AcDbTrace
 10
2.152475
 20
4.13219
 30
0.0
 11
1.804172
 21
4.057582
 31
0.0
 12
1.845906
 22
4.01267
 32
0.0
 13
1.845906
 23
4.01267
 33
0.0
  0
SOLID
  5
12D
100
AcDbEntity
  8
NETWORK
 62
   253
100
AcDbTrace
 10
2.152475
 20
4.13219
 30
0.0
 11
1.845906
 21
4.01267
 31
0.0
 12
1.919811
 22
3.983857
 32
0.0
 13
1.919811
 23
3.983857
 33
0.0
  0
SOLID
  5
12E
100
AcDbEntity
  8
NETWORK
 62
   253
100
AcDbTrace
 10
2.152475
 20
4.13219
 30
0.0
 11
1.919811
 21
3.983857
 31
0.0
 12
2.008959
 22
3.977744
 32
0.0
 13
2.008959
 23
3.977744
 33
0.0
  0
SOLID
  5
12F
100
AcDbEntity
  8
NETWORK
 62
   253
100
AcDbTrace
 10
2.152475
 20
4.13219
 30
0.0
 11
2.008959
 21
3.977744
 31
0.0
 12
2.092925
 22
3.99573
 32
0.0
 13
2.092925
 23
3.99573
 33
0.0
  0
SOLID
  5
130
100
AcDbEntity
  8
NETWORK
 62
   253
100
AcDbTrace
 10
2.152475
 20
4.13219
 30
0.0
 11
2.092925
 21
3.99573
 31
0.0
 12
2.152475
 22
4.033695
 32
0.0
 13
2.152475
 23
4.033695
 33
0.0
  0
SOLID
  5
131
100
AcDbEntity
  8
NETWORK
 62
   253
100
AcDbTrace
 10
2.152475
 20
4.13219
 30
0.0
 11
2.152475
 21
4.033695
 31
0.0
 12
2.173966
 22
4.082942
 32
0.0
 13
2.173966
 23
4.082942
 33
0.0
  0
POLYLINE
  5
132
100
AcDbEntity
  8
NETWORK
  6
CONTINUOUS
 62
     7
100
AcDb2dPolyline
 66
     1
 10
0.0
 20
0.0
 30
0.0
 70
     1
  0
VERTEX
  5
133
100
AcDbEntity
  8
NETWORK
  6
CONTINUOUS
 62
     7
100
AcDbVertex
100
AcDb2dVertex
 10
2.173966
 20
4.082942
 30
0.0
 42
0.159526
  0
VERTEX
  5
134
100
AcDbEntity
  8
NETWORK
  6
CONTINUOUS
 62
     7
100
AcDbVertex
100
AcDb2dVertex
 10
2.159685
 20
4.123496
 30
0.0
 42
0.106369
  0
VERTEX
  5
135
100
AcDbEntity
  8
NETWORK
  6
CONTINUOUS
 62
     7
100
AcDbVertex
100
AcDb2dVertex
 10
2.119013
 20
4.157875
 30
0.0
 42
0.071201
  0
VERTEX
  5
136
100
AcDbEntity
  8
NETWORK
  6
CONTINUOUS
 62
     7
100
AcDbVertex
100
AcDb2dVertex
 10
2.058144
 20
4.180847
 30
0.0
 42
0.057518
  0
VERTEX
  5
137
100
AcDbEntity
  8
NETWORK
  6
CONTINUOUS
 62
     7
100
AcDbVertex
100
AcDb2dVertex
 10
1.986343
 20
4.188914
 30
0.0
 42
0.057518
  0
VERTEX
  5
138
100
AcDbEntity
  8
NETWORK
  6
CONTINUOUS
 62
     7
100
AcDbVertex
100
AcDb2dVertex
 10
1.914543
 20
4.180847
 30
0.0
 42
0.071201
  0
VERTEX
  5
139
100
AcDbEntity
  8
NETWORK
  6
CONTINUOUS
 62
     7
100
AcDbVertex
100
AcDb2dVertex
 10
1.853674
 20
4.157875
 30
0.0
 42
0.106369
  0
VERTEX
  5
13A
100
AcDbEntity
  8
NETWORK
  6
CONTINUOUS
 62
     7
100
AcDbVertex
100
AcDb2dVertex
 10
1.813002
 20
4.123496
 30
0.0
 42
0.159526
  0
VERTEX
  5
13B
100
AcDbEntity
  8
NETWORK
  6
CONTINUOUS
 62
     7
100
AcDbVertex
100
AcDb2dVertex
 10
1.79872
 20
4.082942
 30
0.0
 42
0.159526
  0
VERTEX
  5
13C
100
AcDbEntity
  8
NETWORK
  6
CONTINUOUS
 62
     7
100
AcDbVertex
100
AcDb2dVertex
 10
1.813002
 20
4.042389
 30
0.0
 42
0.106369
  0
VERTEX
  5
13D
100
AcDbEntity
  8
NETWORK
  6
CONTINUOUS
 62
     7
100
AcDbVertex
100
AcDb2dVertex
 10
1.853674
 20
4.008009
 30
0.0
 42
0.071201
  0
VERTEX
  5
13E
100
AcDbEntity
  8
NETWORK
  6
CONTINUOUS
 62
     7
100
AcDbVertex
100
AcDb2dVertex
 10
1.914543
 20
3.985037
 30
0.0
 42
0.057518
  0
VERTEX
  5
13F
100
AcDbEntity
  8
NETWORK
  6
CONTINUOUS
 62
     7
100
AcDbVertex
100
AcDb2dVertex
 10
1.986343
 20
3.976971
 30
0.0
 42
0.057518
  0
VERTEX
  5
140
100
AcDbEntity
  8
NETWORK
  6
CONTINUOUS
 62
     7
100
AcDbVertex
100
AcDb2dVertex
 10
2.058144
 20
3.985037
 30
0.0
 42
0.071201
  0
VERTEX
  5
141
100
AcDbEntity
  8
NETWORK
  6
CONTINUOUS
 62
     7
100
AcDbVertex
100
AcDb2dVertex
 10
2.119013
 20
4.008009
 30
0.0
 42
0.106369
  0
VERTEX
  5
142
100
AcDbEntity
  8
NETWORK
  6
CONTINUOUS
 62
     7
100
AcDbVertex
100
AcDb2dVertex
 10
2.159685
 20
4.042389
 30
0.0
 42
0.159526
  0
SEQEND
  5
143
100
AcDbEntity
  8
NETWORK
  6
CONTINUOUS
 62
     7
  0
SOLID
  5
144
100
AcDbEntity
  8
NETWORK
 62
   253
100
AcDbTrace
 10
2.152475
 20
3.846595
 30
0.0
 11
2.092925
 21
3.88456
 31
0.0
 12
2.008959
 22
3.902546
 32
0.0
 13
2.008959
 23
3.902546
 33
0.0
  0
SOLID
  5
145
100
AcDbEntity
  8
NETWORK
 62
   253
100
AcDbTrace
 10
2.152475
 20
3.846595
 30
0.0
 11
2.008959
 21
3.902546
 31
0.0
 12
1.919811
 22
3.896433
 32
0.0
 13
1.919811
 23
3.896433
 33
0.0
  0
SOLID
  5
146
100
AcDbEntity
  8
NETWORK
 62
   253
100
AcDbTrace
 10
2.152475
 20
3.846595
 30
0.0
 11
1.919811
 21
3.896433
 31
0.0
 12
1.845906
 22
3.86762
 32
0.0
 13
1.845906
 23
3.86762
 33
0.0
  0
SOLID
  5
147
100
AcDbEntity
  8
NETWORK
 62
   253
100
AcDbTrace
 10
2.152475
 20
3.846595
 30
0.0
 11
1.845906
 21
3.86762
 31
0.0
 12
1.804172
 22
3.822708
 32
0.0
 13
1.804172
 23
3.822708
 33
0.0
  0
SOLID
  5
148
100
AcDbEntity
  8
NETWORK
 62
   253
100
AcDbTrace
 10
2.152475
 20
3.846595
 30
0.0
 11
1.804172
 21
3.822708
 31
0.0
 12
1.804172
 22
3.771987
 32
0.0
 13
1.804172
 23
3.771987
 33
0.0
  0
SOLID
  5
149
100
AcDbEntity
  8
NETWORK
 62
   253
100
AcDbTrace
 10
2.152475
 20
3.846595
 30
0.0
 11
1.804172
 21
3.771987
 31
0.0
 12
1.845906
 22
3.727076
 32
0.0
 13
1.845906
 23
3.727076
 33
0.0
  0
SOLID
  5
14A
100
AcDbEntity
  8
NETWORK
 62
   253
100
AcDbTrace
 10
2.152475
 20
3.846595
 30
0.0
 11
1.845906
 21
3.727076
 31
0.0
 12
1.919811
 22
3.698263
 32
0.0
 13
1.919811
 23
3.698263
 33
0.0
  0
SOLID
  5
14B
100
AcDbEntity
  8
NETWORK
 62
   253
100
AcDbTrace
 10
2.152475
 20
3.846595
 30
0.0
 11
1.919811
 21
3.698263
 31
0.0
 12
2.008959
 22
3.692149
 32
0.0
 13
2.008959
 23
3.692149
 33
0.0
  0
SOLID
  5
14C
100
AcDbEntity
  8
NETWORK
 62
   253
100
AcDbTrace
 10
2.152475
 20
3.846595
 30
0.0
 11
2.008959
 21
3.692149
 31
0.0
 12
2.092925
 22
3.710135
 32
0.0
 13
2.092925
 23
3.710135
 33
0.0
  0
SOLID
  5
14D
100
AcDbEntity
  8
NETWORK
 62
   253
100
AcDbTrace
 10
2.152475
 20
3.846595
 30
0.0
 11
2.092925
 21
3.710135
 31
0.0
 12
2.152475
 22
3.7481
 32
0.0
 13
2.152475
 23
3.7481
 33
0.0
  0
SOLID
  5
14E
100
AcDbEntity
  8
NETWORK
 62
   253
100
AcDbTrace
 10
2.152475
 20
3.846595
 30
0.0
 11
2.152475
 21
3.7481
 31
0.0
 12
2.173966
 22
3.797348
 32
0.0
 13
2.173966
 23
3.797348
 33
0.0
  0
POLYLINE
  5
14F
100
AcDbEntity
  8
NETWORK
  6
CONTINUOUS
 62
     7
100
AcDb2dPolyline
 66
     1
 10
0.0
 20
0.0
 30
0.0
 70
     1
  0
VERTEX
  5
150
100
AcDbEntity
  8
NETWORK
  6
CONTINUOUS
 62
     7
100
AcDbVertex
100
AcDb2dVertex
 10
2.173966
 20
3.797348
 30
0.0
 42
0.159526
  0
VERTEX
  5
151
100
AcDbEntity
  8
NETWORK
  6
CONTINUOUS
 62
     7
100
AcDbVertex
100
AcDb2dVertex
 10
2.159685
 20
3.837901
 30
0.0
 42
0.106369
  0
VERTEX
  5
152
100
AcDbEntity
  8
NETWORK
  6
CONTINUOUS
 62
     7
100
AcDbVertex
100
AcDb2dVertex
 10
2.119013
 20
3.872281
 30
0.0
 42
0.071201
  0
VERTEX
  5
153
100
AcDbEntity
  8
NETWORK
  6
CONTINUOUS
 62
     7
100
AcDbVertex
100
AcDb2dVertex
 10
2.058144
 20
3.895252
 30
0.0
 42
0.057518
  0
VERTEX
  5
154
100
AcDbEntity
  8
NETWORK
  6
CONTINUOUS
 62
     7
100
AcDbVertex
100
AcDb2dVertex
 10
1.986343
 20
3.903319
 30
0.0
 42
0.057518
  0
VERTEX
  5
155
100
AcDbEntity
  8
NETWORK
  6
CONTINUOUS
 62
     7
100
AcDbVertex
100
AcDb2dVertex
 10
1.914543
 20
3.895252
 30
0.0
 42
0.071201
  0
VERTEX
  5
156
100
AcDbEntity
  8
NETWORK
  6
CONTINUOUS
 62
     7
100
AcDbVertex
100
AcDb2dVertex
 10
1.853674
 20
3.872281
 30
0.0
 42
0.106369
  0
VERTEX
  5
157
100
AcDbEntity
  8
NETWORK
  6
CONTINUOUS
 62
     7
100
AcDbVertex
100
AcDb2dVertex
 10
1.813002
 20
3.837901
 30
0.0
 42
0.159526
  0
VERTEX
  5
158
100
AcDbEntity
  8
NETWORK
  6
CONTINUOUS
 62
     7
100
AcDbVertex
100
AcDb2dVertex
 10
1.79872
 20
3.797348
 30
0.0
 42
0.159526
  0
VERTEX
  5
159
100
AcDbEntity
  8
NETWORK
  6
CONTINUOUS
 62
     7
100
AcDbVertex
100
AcDb2dVertex
 10
1.813002
 20
3.756794
 30
0.0
 42
0.106369
  0
VERTEX
  5
15A
100
AcDbEntity
  8
NETWORK
  6
CONTINUOUS
 62
     7
100
AcDbVertex
100
AcDb2dVertex
 10
1.853674
 20
3.722415
 30
0.0
 42
0.071201
  0
VERTEX
  5
15B
100
AcDbEntity
  8
NETWORK
  6
CONTINUOUS
 62
     7
100
AcDbVertex
100
AcDb2dVertex
 10
1.914543
 20
3.699443
 30
0.0
 42
0.057518
  0
VERTEX
  5
15C
100
AcDbEntity
  8
NETWORK
  6
CONTINUOUS
 62
     7
100
AcDbVertex
100
AcDb2dVertex
 10
1.986343
 20
3.691376
 30
0.0
 42
0.057518
  0
VERTEX
  5
15D
100
AcDbEntity
  8
NETWORK
  6
CONTINUOUS
 62
     7
100
AcDbVertex
100
AcDb2dVertex
 10
2.058144
 20
3.699443
 30
0.0
 42
0.071201
  0
VERTEX
  5
15E
100
AcDbEntity
  8
NETWORK
  6
CONTINUOUS
 62
     7
100
AcDbVertex
100
AcDb2dVertex
 10
2.119013
 20
3.722415
 30
0.0
 42
0.106369
  0
VERTEX
  5
15F
100
AcDbEntity
  8
NETWORK
  6
CONTINUOUS
 62
     7
100
AcDbVertex
100
AcDb2dVertex
 10
2.159685
 20
3.756794
 30
0.0
 42
0.159526
  0
SEQEND
  5
160
100
AcDbEntity
  8
NETWORK
  6
CONTINUOUS
 62
     7
  0
SOLID
  5
161
100
AcDbEntity
  8
NETWORK
 62
   253
100
AcDbTrace
 10
2.584008
 20
4.1145
 30
0.0
 11
2.524458
 21
4.152465
 31
0.0
 12
2.440492
 22
4.170451
 32
0.0
 13
2.440492
 23
4.170451
 33
0.0
  0
SOLID
  5
162
100
AcDbEntity
  8
NETWORK
 62
   253
100
AcDbTrace
 10
2.584008
 20
4.1145
 30
0.0
 11
2.440492
 21
4.170451
 31
0.0
 12
2.351344
 22
4.164337
 32
0.0
 13
2.351344
 23
4.164337
 33
0.0
  0
SOLID
  5
163
100
AcDbEntity
  8
NETWORK
 62
   253
100
AcDbTrace
 10
2.584008
 20
4.1145
 30
0.0
 11
2.351344
 21
4.164337
 31
0.0
 12
2.277439
 22
4.135524
 32
0.0
 13
2.277439
 23
4.135524
 33
0.0
  0
SOLID
  5
164
100
AcDbEntity
  8
NETWORK
 62
   253
100
AcDbTrace
 10
2.584008
 20
4.1145
 30
0.0
 11
2.277439
 21
4.135524
 31
0.0
 12
2.235705
 22
4.090613
 32
0.0
 13
2.235705
 23
4.090613
 33
0.0
  0
SOLID
  5
165
100
AcDbEntity
  8
NETWORK
 62
   253
100
AcDbTrace
 10
2.584008
 20
4.1145
 30
0.0
 11
2.235705
 21
4.090613
 31
0.0
 12
2.235705
 22
4.039892
 32
0.0
 13
2.235705
 23
4.039892
 33
0.0
  0
SOLID
  5
166
100
AcDbEntity
  8
NETWORK
 62
   253
100
AcDbTrace
 10
2.584008
 20
4.1145
 30
0.0
 11
2.235705
 21
4.039892
 31
0.0
 12
2.277439
 22
3.99498
 32
0.0
 13
2.277439
 23
3.99498
 33
0.0
  0
SOLID
  5
167
100
AcDbEntity
  8
NETWORK
 62
   253
100
AcDbTrace
 10
2.584008
 20
4.1145
 30
0.0
 11
2.277439
 21
3.99498
 31
0.0
 12
2.351344
 22
3.966167
 32
0.0
 13
2.351344
 23
3.966167
 33
0.0
  0
SOLID
  5
168
100
AcDbEntity
  8
NETWORK
 62
   253
100
AcDbTrace
 10
2.584008
 20
4.1145
 30
0.0
 11
2.351344
 21
3.966167
 31
0.0
 12
2.440492
 22
3.960054
 32
0.0
 13
2.440492
 23
3.960054
 33
0.0
  0
SOLID
  5
169
100
AcDbEntity
  8
NETWORK
 62
   253
100
AcDbTrace
 10
2.584008
 20
4.1145
 30
0.0
 11
2.440492
 21
3.960054
 31
0.0
 12
2.524458
 22
3.97804
 32
0.0
 13
2.524458
 23
3.97804
 33
0.0
  0
SOLID
  5
16A
100
AcDbEntity
  8
NETWORK
 62
   253
100
AcDbTrace
 10
2.584008
 20
4.1145
 30
0.0
 11
2.524458
 21
3.97804
 31
0.0
 12
2.584008
 22
4.016005
 32
0.0
 13
2.584008
 23
4.016005
 33
0.0
  0
SOLID
  5
16B
100
AcDbEntity
  8
NETWORK
 62
   253
100
AcDbTrace
 10
2.584008
 20
4.1145
 30
0.0
 11
2.584008
 21
4.016005
 31
0.0
 12
2.605499
 22
4.065252
 32
0.0
 13
2.605499
 23
4.065252
 33
0.0
  0
POLYLINE
  5
16C
100
AcDbEntity
  8
NETWORK
  6
CONTINUOUS
 62
     7
100
AcDb2dPolyline
 66
     1
 10
0.0
 20
0.0
 30
0.0
 70
     1
  0
VERTEX
  5
16D
100
AcDbEntity
  8
NETWORK
  6
CONTINUOUS
 62
     7
100
AcDbVertex
100
AcDb2dVertex
 10
2.605499
 20
4.065252
 30
0.0
 42
0.159526
  0
VERTEX
  5
16E
100
AcDbEntity
  8
NETWORK
  6
CONTINUOUS
 62
     7
100
AcDbVertex
100
AcDb2dVertex
 10
2.591217
 20
4.105806
 30
0.0
 42
0.106369
  0
VERTEX
  5
16F
100
AcDbEntity
  8
NETWORK
  6
CONTINUOUS
 62
     7
100
AcDbVertex
100
AcDb2dVertex
 10
2.550546
 20
4.140185
 30
0.0
 42
0.071201
  0
VERTEX
  5
170
100
AcDbEntity
  8
NETWORK
  6
CONTINUOUS
 62
     7
100
AcDbVertex
100
AcDb2dVertex
 10
2.489677
 20
4.163157
 30
0.0
 42
0.057518
  0
VERTEX
  5
171
100
AcDbEntity
  8
NETWORK
  6
CONTINUOUS
 62
     7
100
AcDbVertex
100
AcDb2dVertex
 10
2.417876
 20
4.171224
 30
0.0
 42
0.057518
  0
VERTEX
  5
172
100
AcDbEntity
  8
NETWORK
  6
CONTINUOUS
 62
     7
100
AcDbVertex
100
AcDb2dVertex
 10
2.346076
 20
4.163157
 30
0.0
 42
0.071201
  0
VERTEX
  5
173
100
AcDbEntity
  8
NETWORK
  6
CONTINUOUS
 62
     7
100
AcDbVertex
100
AcDb2dVertex
 10
2.285207
 20
4.140185
 30
0.0
 42
0.106369
  0
VERTEX
  5
174
100
AcDbEntity
  8
NETWORK
  6
CONTINUOUS
 62
     7
100
AcDbVertex
100
AcDb2dVertex
 10
2.244535
 20
4.105806
 30
0.0
 42
0.159526
  0
VERTEX
  5
175
100
AcDbEntity
  8
NETWORK
  6
CONTINUOUS
 62
     7
100
AcDbVertex
100
AcDb2dVertex
 10
2.230253
 20
4.065252
 30
0.0
 42
0.159526
  0
VERTEX
  5
176
100
AcDbEntity
  8
NETWORK
  6
CONTINUOUS
 62
     7
100
AcDbVertex
100
AcDb2dVertex
 10
2.244535
 20
4.024699
 30
0.0
 42
0.106369
  0
VERTEX
  5
177
100
AcDbEntity
  8
NETWORK
  6
CONTINUOUS
 62
     7
100
AcDbVertex
100
AcDb2dVertex
 10
2.285207
 20
3.990319
 30
0.0
 42
0.071201
  0
VERTEX
  5
178
100
AcDbEntity
  8
NETWORK
  6
CONTINUOUS
 62
     7
100
AcDbVertex
100
AcDb2dVertex
 10
2.346076
 20
3.967348
 30
0.0
 42
0.057518
  0
VERTEX
  5
179
100
AcDbEntity
  8
NETWORK
  6
CONTINUOUS
 62
     7
100
AcDbVertex
100
AcDb2dVertex
 10
2.417876
 20
3.959281
 30
0.0
 42
0.057518
  0
VERTEX
  5
17A
100
AcDbEntity
  8
NETWORK
  6
CONTINUOUS
 62
     7
100
AcDbVertex
100
AcDb2dVertex
 10
2.489677
 20
3.967348
 30
0.0
 42
0.071201
  0
VERTEX
  5
17B
100
AcDbEntity
  8
NETWORK
  6
CONTINUOUS
 62
     7
100
AcDbVertex
100
AcDb2dVertex
 10
2.550546
 20
3.990319
 30
0.0
 42
0.106369
  0
VERTEX
  5
17C
100
AcDbEntity
  8
NETWORK
  6
CONTINUOUS
 62
     7
100
AcDbVertex
100
AcDb2dVertex
 10
2.591217
 20
4.024699
 30
0.0
 42
0.159526
  0
SEQEND
  5
17D
100
AcDbEntity
  8
NETWORK
  6
CONTINUOUS
 62
     7
  0
SOLID
  5
17E
100
AcDbEntity
  8
NETWORK
 62
   253
100
AcDbTrace
 10
3.015541
 20
4.123345
 30
0.0
 11
2.955991
 21
4.16131
 31
0.0
 12
2.872025
 22
4.179296
 32
0.0
 13
2.872025
 23
4.179296
 33
0.0
  0
SOLID
  5
17F
100
AcDbEntity
  8
NETWORK
 62
   253
100
AcDbTrace
 10
3.015541
 20
4.123345
 30
0.0
 11
2.872025
 21
4.179296
 31
0.0
 12
2.782877
 22
4.173182
 32
0.0
 13
2.782877
 23
4.173182
 33
0.0
  0
SOLID
  5
180
100
AcDbEntity
  8
NETWORK
 62
   253
100
AcDbTrace
 10
3.015541
 20
4.123345
 30
0.0
 11
2.782877
 21
4.173182
 31
0.0
 12
2.708972
 22
4.144369
 32
0.0
 13
2.708972
 23
4.144369
 33
0.0
  0
SOLID
  5
181
100
AcDbEntity
  8
NETWORK
 62
   253
100
AcDbTrace
 10
3.015541
 20
4.123345
 30
0.0
 11
2.708972
 21
4.144369
 31
0.0
 12
2.667238
 22
4.099458
 32
0.0
 13
2.667238
 23
4.099458
 33
0.0
  0
SOLID
  5
182
100
AcDbEntity
  8
NETWORK
 62
   253
100
AcDbTrace
 10
3.015541
 20
4.123345
 30
0.0
 11
2.667238
 21
4.099458
 31
0.0
 12
2.667238
 22
4.048737
 32
0.0
 13
2.667238
 23
4.048737
 33
0.0
  0
SOLID
  5
183
100
AcDbEntity
  8
NETWORK
 62
   253
100
AcDbTrace
 10
3.015541
 20
4.123345
 30
0.0
 11
2.667238
 21
4.048737
 31
0.0
 12
2.708972
 22
4.003825
 32
0.0
 13
2.708972
 23
4.003825
 33
0.0
  0
SOLID
  5
184
100
AcDbEntity
  8
NETWORK
 62
   253
100
AcDbTrace
 10
3.015541
 20
4.123345
 30
0.0
 11
2.708972
 21
4.003825
 31
0.0
 12
2.782877
 22
3.975012
 32
0.0
 13
2.782877
 23
3.975012
 33
0.0
  0
SOLID
  5
185
100
AcDbEntity
  8
NETWORK
 62
   253
100
AcDbTrace
 10
3.015541
 20
4.123345
 30
0.0
 11
2.782877
 21
3.975012
 31
0.0
 12
2.872025
 22
3.968899
 32
0.0
 13
2.872025
 23
3.968899
 33
0.0
  0
SOLID
  5
186
100
AcDbEntity
  8
NETWORK
 62
   253
100
AcDbTrace
 10
3.015541
 20
4.123345
 30
0.0
 11
2.872025
 21
3.968899
 31
0.0
 12
2.955991
 22
3.986885
 32
0.0
 13
2.955991
 23
3.986885
 33
0.0
  0
SOLID
  5
187
100
AcDbEntity
  8
NETWORK
 62
   253
100
AcDbTrace
 10
3.015541
 20
4.123345
 30
0.0
 11
2.955991
 21
3.986885
 31
0.0
 12
3.015541
 22
4.02485
 32
0.0
 13
3.015541
 23
4.02485
 33
0.0
  0
SOLID
  5
188
100
AcDbEntity
  8
NETWORK
 62
   253
100
AcDbTrace
 10
3.015541
 20
4.123345
 30
0.0
 11
3.015541
 21
4.02485
 31
0.0
 12
3.037032
 22
4.074097
 32
0.0
 13
3.037032
 23
4.074097
 33
0.0
  0
POLYLINE
  5
189
100
AcDbEntity
  8
NETWORK
  6
CONTINUOUS
 62
     7
100
AcDb2dPolyline
 66
     1
 10
0.0
 20
0.0
 30
0.0
 70
     1
  0
VERTEX
  5
18A
100
AcDbEntity
  8
NETWORK
  6
CONTINUOUS
 62
     7
100
AcDbVertex
100
AcDb2dVertex
 10
3.037032
 20
4.074097
 30
0.0
 42
0.159526
  0
VERTEX
  5
18B
100
AcDbEntity
  8
NETWORK
  6
CONTINUOUS
 62
     7
100
AcDbVertex
100
AcDb2dVertex
 10
3.02275
 20
4.114651
 30
0.0
 42
0.106369
  0
VERTEX
  5
18C
100
AcDbEntity
  8
NETWORK
  6
CONTINUOUS
 62
     7
100
AcDbVertex
100
AcDb2dVertex
 10
2.982079
 20
4.14903
 30
0.0
 42
0.071201
  0
VERTEX
  5
18D
100
AcDbEntity
  8
NETWORK
  6
CONTINUOUS
 62
     7
100
AcDbVertex
100
AcDb2dVertex
 10
2.92121
 20
4.172002
 30
0.0
 42
0.057518
  0
VERTEX
  5
18E
100
AcDbEntity
  8
NETWORK
  6
CONTINUOUS
 62
     7
100
AcDbVertex
100
AcDb2dVertex
 10
2.849409
 20
4.180069
 30
0.0
 42
0.057518
  0
VERTEX
  5
18F
100
AcDbEntity
  8
NETWORK
  6
CONTINUOUS
 62
     7
100
AcDbVertex
100
AcDb2dVertex
 10
2.777609
 20
4.172002
 30
0.0
 42
0.071201
  0
VERTEX
  5
190
100
AcDbEntity
  8
NETWORK
  6
CONTINUOUS
 62
     7
100
AcDbVertex
100
AcDb2dVertex
 10
2.71674
 20
4.14903
 30
0.0
 42
0.106369
  0
VERTEX
  5
191
100
AcDbEntity
  8
NETWORK
  6
CONTINUOUS
 62
     7
100
AcDbVertex
100
AcDb2dVertex
 10
2.676068
 20
4.114651
 30
0.0
 42
0.159526
  0
VERTEX
  5
192
100
AcDbEntity
  8
NETWORK
  6
CONTINUOUS
 62
     7
100
AcDbVertex
100
AcDb2dVertex
 10
2.661786
 20
4.074097
 30
0.0
 42
0.159526
  0
VERTEX
  5
193
100
AcDbEntity
  8
NETWORK
  6
CONTINUOUS
 62
     7
100
AcDbVertex
100
AcDb2dVertex
 10
2.676068
 20
4.033544
 30
0.0
 42
0.106369
  0
VERTEX
  5
194
100
AcDbEntity
  8
NETWORK
  6
CONTINUOUS
 62
     7
100
AcDbVertex
100
AcDb2dVertex
 10
2.71674
 20
3.999164
 30
0.0
 42
0.071201
  0
VERTEX
  5
195
100
AcDbEntity
  8
NETWORK
  6
CONTINUOUS
 62
     7
100
AcDbVertex
100
AcDb2dVertex
 10
2.777609
 20
3.976193
 30
0.0
 42
0.057518
  0
VERTEX
  5
196
100
AcDbEntity
  8
NETWORK
  6
CONTINUOUS
 62
     7
100
AcDbVertex
100
AcDb2dVertex
 10
2.849409
 20
3.968126
 30
0.0
 42
0.057518
  0
VERTEX
  5
197
100
AcDbEntity
  8
NETWORK
  6
CONTINUOUS
 62
     7
100
AcDbVertex
100
AcDb2dVertex
 10
2.92121
 20
3.976193
 30
0.0
 42
0.071201
  0
VERTEX
  5
198
100
AcDbEntity
  8
NETWORK
  6
CONTINUOUS
 62
     7
100
AcDbVertex
100
AcDb2dVertex
 10
2.982079
 20
3.999164
 30
0.0
 42
0.106369
  0
VERTEX
  5
199
100
AcDbEntity
  8
NETWORK
  6
CONTINUOUS
 62
     7
100
AcDbVertex
100
AcDb2dVertex
 10
3.02275
 20
4.033544
 30
0.0
 42
0.159526
  0
SEQEND
  5
19A
100
AcDbEntity
  8
NETWORK
  6
CONTINUOUS
 62
     7
  0
SOLID
  5
19B
100
AcDbEntity
  8
NETWORK
 62
   253
100
AcDbTrace
 10
3.015541
 20
3.826013
 30
0.0
 11
2.955991
 21
3.863978
 31
0.0
 12
2.872025
 22
3.881964
 32
0.0
 13
2.872025
 23
3.881964
 33
0.0
  0
SOLID
  5
19C
100
AcDbEntity
  8
NETWORK
 62
   253
100
AcDbTrace
 10
3.015541
 20
3.826013
 30
0.0
 11
2.872025
 21
3.881964
 31
0.0
 12
2.782877
 22
3.87585
 32
0.0
 13
2.782877
 23
3.87585
 33
0.0
  0
SOLID
  5
19D
100
AcDbEntity
  8
NETWORK
 62
   253
100
AcDbTrace
 10
3.015541
 20
3.826013
 30
0.0
 11
2.782877
 21
3.87585
 31
0.0
 12
2.708972
 22
3.847037
 32
0.0
 13
2.708972
 23
3.847037
 33
0.0
  0
SOLID
  5
19E
100
AcDbEntity
  8
NETWORK
 62
   253
100
AcDbTrace
 10
3.015541
 20
3.826013
 30
0.0
 11
2.708972
 21
3.847037
 31
0.0
 12
2.667238
 22
3.802126
 32
0.0
 13
2.667238
 23
3.802126
 33
0.0
  0
SOLID
  5
19F
100
AcDbEntity
  8
NETWORK
 62
   253
100
AcDbTrace
 10
3.015541
 20
3.826013
 30
0.0
 11
2.667238
 21
3.802126
 31
0.0
 12
2.667238
 22
3.751405
 32
0.0
 13
2.667238
 23
3.751405
 33
0.0
  0
SOLID
  5
1A0
100
AcDbEntity
  8
NETWORK
 62
   253
100
AcDbTrace
 10
3.015541
 20
3.826013
 30
0.0
 11
2.667238
 21
3.751405
 31
0.0
 12
2.708972
 22
3.706493
 32
0.0
 13
2.708972
 23
3.706493
 33
0.0
  0
SOLID
  5
1A1
100
AcDbEntity
  8
NETWORK
 62
   253
100
AcDbTrace
 10
3.015541
 20
3.826013
 30
0.0
 11
2.708972
 21
3.706493
 31
0.0
 12
2.782877
 22
3.67768
 32
0.0
 13
2.782877
 23
3.67768
 33
0.0
  0
SOLID
  5
1A2
100
AcDbEntity
  8
NETWORK
 62
   253
100
AcDbTrace
 10
3.015541
 20
3.826013
 30
0.0
 11
2.782877
 21
3.67768
 31
0.0
 12
2.872025
 22
3.671567
 32
0.0
 13
2.872025
 23
3.671567
 33
0.0
  0
SOLID
  5
1A3
100
AcDbEntity
  8
NETWORK
 62
   253
100
AcDbTrace
 10
3.015541
 20
3.826013
 30
0.0
 11
2.872025
 21
3.671567
 31
0.0
 12
2.955991
 22
3.689553
 32
0.0
 13
2.955991
 23
3.689553
 33
0.0
  0
SOLID
  5
1A4
100
AcDbEntity
  8
NETWORK
 62
   253
100
AcDbTrace
 10
3.015541
 20
3.826013
 30
0.0
 11
2.955991
 21
3.689553
 31
0.0
 12
3.015541
 22
3.727518
 32
0.0
 13
3.015541
 23
3.727518
 33
0.0
  0
SOLID
  5
1A5
100
AcDbEntity
  8
NETWORK
 62
   253
100
AcDbTrace
 10
3.015541
 20
3.826013
 30
0.0
 11
3.015541
 21
3.727518
 31
0.0
 12
3.037032
 22
3.776765
 32
0.0
 13
3.037032
 23
3.776765
 33
0.0
  0
POLYLINE
  5
1A6
100
AcDbEntity
  8
NETWORK
  6
CONTINUOUS
 62
     7
100
AcDb2dPolyline
 66
     1
 10
0.0
 20
0.0
 30
0.0
 70
     1
  0
VERTEX
  5
1A7
100
AcDbEntity
  8
NETWORK
  6
CONTINUOUS
 62
     7
100
AcDbVertex
100
AcDb2dVertex
 10
3.037032
 20
3.776765
 30
0.0
 42
0.159526
  0
VERTEX
  5
1A8
100
AcDbEntity
  8
NETWORK
  6
CONTINUOUS
 62
     7
100
AcDbVertex
100
AcDb2dVertex
 10
3.02275
 20
3.817319
 30
0.0
 42
0.106369
  0
VERTEX
  5
1A9
100
AcDbEntity
  8
NETWORK
  6
CONTINUOUS
 62
     7
100
AcDbVertex
100
AcDb2dVertex
 10
2.982079
 20
3.851698
 30
0.0
 42
0.071201
  0
VERTEX
  5
1AA
100
AcDbEntity
  8
NETWORK
  6
CONTINUOUS
 62
     7
100
AcDbVertex
100
AcDb2dVertex
 10
2.92121
 20
3.87467
 30
0.0
 42
0.057518
  0
VERTEX
  5
1AB
100
AcDbEntity
  8
NETWORK
  6
CONTINUOUS
 62
     7
100
AcDbVertex
100
AcDb2dVertex
 10
2.849409
 20
3.882737
 30
0.0
 42
0.057518
  0
VERTEX
  5
1AC
100
AcDbEntity
  8
NETWORK
  6
CONTINUOUS
 62
     7
100
AcDbVertex
100
AcDb2dVertex
 10
2.777609
 20
3.87467
 30
0.0
 42
0.071201
  0
VERTEX
  5
1AD
100
AcDbEntity
  8
NETWORK
  6
CONTINUOUS
 62
     7
100
AcDbVertex
100
AcDb2dVertex
 10
2.71674
 20
3.851698
 30
0.0
 42
0.106369
  0
VERTEX
  5
1AE
100
AcDbEntity
  8
NETWORK
  6
CONTINUOUS
 62
     7
100
AcDbVertex
100
AcDb2dVertex
 10
2.676068
 20
3.817319
 30
0.0
 42
0.159526
  0
VERTEX
  5
1AF
100
AcDbEntity
  8
NETWORK
  6
CONTINUOUS
 62
     7
100
AcDbVertex
100
AcDb2dVertex
 10
2.661786
 20
3.776765
 30
0.0
 42
0.159526
  0
VERTEX
  5
1B0
100
AcDbEntity
  8
NETWORK
  6
CONTINUOUS
 62
     7
100
AcDbVertex
100
AcDb2dVertex
 10
2.676068
 20
3.736212
 30
0.0
 42
0.106369
  0
VERTEX
  5
1B1
100
AcDbEntity
  8
NETWORK
  6
CONTINUOUS
 62
     7
100
AcDbVertex
100
AcDb2dVertex
 10
2.71674
 20
3.701832
 30
0.0
 42
0.071201
  0
VERTEX
  5
1B2
100
AcDbEntity
  8
NETWORK
  6
CONTINUOUS
 62
     7
100
AcDbVertex
100
AcDb2dVertex
 10
2.777609
 20
3.678861
 30
0.0
 42
0.057518
  0
VERTEX
  5
1B3
100
AcDbEntity
  8
NETWORK
  6
CONTINUOUS
 62
     7
100
AcDbVertex
100
AcDb2dVertex
 10
2.849409
 20
3.670794
 30
0.0
 42
0.057518
  0
VERTEX
  5
1B4
100
AcDbEntity
  8
NETWORK
  6
CONTINUOUS
 62
     7
100
AcDbVertex
100
AcDb2dVertex
 10
2.92121
 20
3.678861
 30
0.0
 42
0.071201
  0
VERTEX
  5
1B5
100
AcDbEntity
  8
NETWORK
  6
CONTINUOUS
 62
     7
100
AcDbVertex
100
AcDb2dVertex
 10
2.982079
 20
3.701832
 30
0.0
 42
0.106369
  0
VERTEX
  5
1B6
100
AcDbEntity
  8
NETWORK
  6
CONTINUOUS
 62
     7
100
AcDbVertex
100
AcDb2dVertex
 10
3.02275
 20
3.736212
 30
0.0
 42
0.159526
  0
SEQEND
  5
1B7
100
AcDbEntity
  8
NETWORK
  6
CONTINUOUS
 62
     7
  0
SOLID
  5
1B8
100
AcDbEntity
  8
NETWORK
 62
   253
100
AcDbTrace
 10
2.584008
 20
3.817168
 30
0.0
 11
2.524458
 21
3.855133
 31
0.0
 12
2.440492
 22
3.873119
 32
0.0
 13
2.440492
 23
3.873119
 33
0.0
  0
SOLID
  5
1B9
100
AcDbEntity
  8
NETWORK
 62
   253
100
AcDbTrace
 10
2.584008
 20
3.817168
 30
0.0
 11
2.440492
 21
3.873119
 31
0.0
 12
2.351344
 22
3.867005
 32
0.0
 13
2.351344
 23
3.867005
 33
0.0
  0
SOLID
  5
1BA
100
AcDbEntity
  8
NETWORK
 62
   253
100
AcDbTrace
 10
2.584008
 20
3.817168
 30
0.0
 11
2.351344
 21
3.867005
 31
0.0
 12
2.277439
 22
3.838192
 32
0.0
 13
2.277439
 23
3.838192
 33
0.0
  0
SOLID
  5
1BB
100
AcDbEntity
  8
NETWORK
 62
   253
100
AcDbTrace
 10
2.584008
 20
3.817168
 30
0.0
 11
2.277439
 21
3.838192
 31
0.0
 12
2.235705
 22
3.793281
 32
0.0
 13
2.235705
 23
3.793281
 33
0.0
  0
SOLID
  5
1BC
100
AcDbEntity
  8
NETWORK
 62
   253
100
AcDbTrace
 10
2.584008
 20
3.817168
 30
0.0
 11
2.235705
 21
3.793281
 31
0.0
 12
2.235705
 22
3.74256
 32
0.0
 13
2.235705
 23
3.74256
 33
0.0
  0
SOLID
  5
1BD
100
AcDbEntity
  8
NETWORK
 62
   253
100
AcDbTrace
 10
2.584008
 20
3.817168
 30
0.0
 11
2.235705
 21
3.74256
 31
0.0
 12
2.277439
 22
3.697648
 32
0.0
 13
2.277439
 23
3.697648
 33
0.0
  0
SOLID
  5
1BE
100
AcDbEntity
  8
NETWORK
 62
   253
100
AcDbTrace
 10
2.584008
 20
3.817168
 30
0.0
 11
2.277439
 21
3.697648
 31
0.0
 12
2.351344
 22
3.668835
 32
0.0
 13
2.351344
 23
3.668835
 33
0.0
  0
SOLID
  5
1BF
100
AcDbEntity
  8
NETWORK
 62
   253
100
AcDbTrace
 10
2.584008
 20
3.817168
 30
0.0
 11
2.351344
 21
3.668835
 31
0.0
 12
2.440492
 22
3.662722
 32
0.0
 13
2.440492
 23
3.662722
 33
0.0
  0
SOLID
  5
1C0
100
AcDbEntity
  8
NETWORK
 62
   253
100
AcDbTrace
 10
2.584008
 20
3.817168
 30
0.0
 11
2.440492
 21
3.662722
 31
0.0
 12
2.524458
 22
3.680708
 32
0.0
 13
2.524458
 23
3.680708
 33
0.0
  0
SOLID
  5
1C1
100
AcDbEntity
  8
NETWORK
 62
   253
100
AcDbTrace
 10
2.584008
 20
3.817168
 30
0.0
 11
2.524458
 21
3.680708
 31
0.0
 12
2.584008
 22
3.718673
 32
0.0
 13
2.584008
 23
3.718673
 33
0.0
  0
SOLID
  5
1C2
100
AcDbEntity
  8
NETWORK
 62
   253
100
AcDbTrace
 10
2.584008
 20
3.817168
 30
0.0
 11
2.584008
 21
3.718673
 31
0.0
 12
2.605499
 22
3.76792
 32
0.0
 13
2.605499
 23
3.76792
 33
0.0
  0
POLYLINE
  5
1C3
100
AcDbEntity
  8
NETWORK
  6
CONTINUOUS
 62
     7
100
AcDb2dPolyline
 66
     1
 10
0.0
 20
0.0
 30
0.0
 70
     1
  0
VERTEX
  5
1C4
100
AcDbEntity
  8
NETWORK
  6
CONTINUOUS
 62
     7
100
AcDbVertex
100
AcDb2dVertex
 10
2.605499
 20
3.76792
 30
0.0
 42
0.159526
  0
VERTEX
  5
1C5
100
AcDbEntity
  8
NETWORK
  6
CONTINUOUS
 62
     7
100
AcDbVertex
100
AcDb2dVertex
 10
2.591217
 20
3.808474
 30
0.0
 42
0.106369
  0
VERTEX
  5
1C6
100
AcDbEntity
  8
NETWORK
  6
CONTINUOUS
 62
     7
100
AcDbVertex
100
AcDb2dVertex
 10
2.550546
 20
3.842854
 30
0.0
 42
0.071201
  0
VERTEX
  5
1C7
100
AcDbEntity
  8
NETWORK
  6
CONTINUOUS
 62
     7
100
AcDbVertex
100
AcDb2dVertex
 10
2.489677
 20
3.865825
 30
0.0
 42
0.057518
  0
VERTEX
  5
1C8
100
AcDbEntity
  8
NETWORK
  6
CONTINUOUS
 62
     7
100
AcDbVertex
100
AcDb2dVertex
 10
2.417876
 20
3.873892
 30
0.0
 42
0.057518
  0
VERTEX
  5
1C9
100
AcDbEntity
  8
NETWORK
  6
CONTINUOUS
 62
     7
100
AcDbVertex
100
AcDb2dVertex
 10
2.346076
 20
3.865825
 30
0.0
 42
0.071201
  0
VERTEX
  5
1CA
100
AcDbEntity
  8
NETWORK
  6
CONTINUOUS
 62
     7
100
AcDbVertex
100
AcDb2dVertex
 10
2.285207
 20
3.842854
 30
0.0
 42
0.106369
  0
VERTEX
  5
1CB
100
AcDbEntity
  8
NETWORK
  6
CONTINUOUS
 62
     7
100
AcDbVertex
100
AcDb2dVertex
 10
2.244535
 20
3.808474
 30
0.0
 42
0.159526
  0
VERTEX
  5
1CC
100
AcDbEntity
  8
NETWORK
  6
CONTINUOUS
 62
     7
100
AcDbVertex
100
AcDb2dVertex
 10
2.230253
 20
3.76792
 30
0.0
 42
0.159526
  0
VERTEX
  5
1CD
100
AcDbEntity
  8
NETWORK
  6
CONTINUOUS
 62
     7
100
AcDbVertex
100
AcDb2dVertex
 10
2.244535
 20
3.727367
 30
0.0
 42
0.106369
  0
VERTEX
  5
1CE
100
AcDbEntity
  8
NETWORK
  6
CONTINUOUS
 62
     7
100
AcDbVertex
100
AcDb2dVertex
 10
2.285207
 20
3.692987
 30
0.0
 42
0.071201
  0
VERTEX
  5
1CF
100
AcDbEntity
  8
NETWORK
  6
CONTINUOUS
 62
     7
100
AcDbVertex
100
AcDb2dVertex
 10
2.346076
 20
3.670016
 30
0.0
 42
0.057518
  0
VERTEX
  5
1D0
100
AcDbEntity
  8
NETWORK
  6
CONTINUOUS
 62
     7
100
AcDbVertex
100
AcDb2dVertex
 10
2.417876
 20
3.661949
 30
0.0
 42
0.057518
  0
VERTEX
  5
1D1
100
AcDbEntity
  8
NETWORK
  6
CONTINUOUS
 62
     7
100
AcDbVertex
100
AcDb2dVertex
 10
2.489677
 20
3.670016
 30
0.0
 42
0.071201
  0
VERTEX
  5
1D2
100
AcDbEntity
  8
NETWORK
  6
CONTINUOUS
 62
     7
100
AcDbVertex
100
AcDb2dVertex
 10
2.550546
 20
3.692987
 30
0.0
 42
0.106369
  0
VERTEX
  5
1D3
100
AcDbEntity
  8
NETWORK
  6
CONTINUOUS
 62
     7
100
AcDbVertex
100
AcDb2dVertex
 10
2.591217
 20
3.727367
 30
0.0
 42
0.159526
  0
SEQEND
  5
1D4
100
AcDbEntity
  8
NETWORK
  6
CONTINUOUS
 62
     7
  0
SOLID
  5
1D5
100
AcDbEntity
  8
NETWORK
 62
   253
100
AcDbTrace
 10
3.015541
 20
3.540418
 30
0.0
 11
2.955991
 21
3.578383
 31
0.0
 12
2.872025
 22
3.596369
 32
0.0
 13
2.872025
 23
3.596369
 33
0.0
  0
SOLID
  5
1D6
100
AcDbEntity
  8
NETWORK
 62
   253
100
AcDbTrace
 10
3.015541
 20
3.540418
 30
0.0
 11
2.872025
 21
3.596369
 31
0.0
 12
2.782877
 22
3.590256
 32
0.0
 13
2.782877
 23
3.590256
 33
0.0
  0
SOLID
  5
1D7
100
AcDbEntity
  8
NETWORK
 62
   253
100
AcDbTrace
 10
3.015541
 20
3.540418
 30
0.0
 11
2.782877
 21
3.590256
 31
0.0
 12
2.708972
 22
3.561443
 32
0.0
 13
2.708972
 23
3.561443
 33
0.0
  0
SOLID
  5
1D8
100
AcDbEntity
  8
NETWORK
 62
   253
100
AcDbTrace
 10
3.015541
 20
3.540418
 30
0.0
 11
2.708972
 21
3.561443
 31
0.0
 12
2.667238
 22
3.516531
 32
0.0
 13
2.667238
 23
3.516531
 33
0.0
  0
SOLID
  5
1D9
100
AcDbEntity
  8
NETWORK
 62
   253
100
AcDbTrace
 10
3.015541
 20
3.540418
 30
0.0
 11
2.667238
 21
3.516531
 31
0.0
 12
2.667238
 22
3.46581
 32
0.0
 13
2.667238
 23
3.46581
 33
0.0
  0
SOLID
  5
1DA
100
AcDbEntity
  8
NETWORK
 62
   253
100
AcDbTrace
 10
3.015541
 20
3.540418
 30
0.0
 11
2.667238
 21
3.46581
 31
0.0
 12
2.708972
 22
3.420899
 32
0.0
 13
2.708972
 23
3.420899
 33
0.0
  0
SOLID
  5
1DB
100
AcDbEntity
  8
NETWORK
 62
   253
100
AcDbTrace
 10
3.015541
 20
3.540418
 30
0.0
 11
2.708972
 21
3.420899
 31
0.0
 12
2.782877
 22
3.392086
 32
0.0
 13
2.782877
 23
3.392086
 33
0.0
  0
SOLID
  5
1DC
100
AcDbEntity
  8
NETWORK
 62
   253
100
AcDbTrace
 10
3.015541
 20
3.540418
 30
0.0
 11
2.782877
 21
3.392086
 31
0.0
 12
2.872025
 22
3.385972
 32
0.0
 13
2.872025
 23
3.385972
 33
0.0
  0
SOLID
  5
1DD
100
AcDbEntity
  8
NETWORK
 62
   253
100
AcDbTrace
 10
3.015541
 20
3.540418
 30
0.0
 11
2.872025
 21
3.385972
 31
0.0
 12
2.955991
 22
3.403958
 32
0.0
 13
2.955991
 23
3.403958
 33
0.0
  0
SOLID
  5
1DE
100
AcDbEntity
  8
NETWORK
 62
   253
100
AcDbTrace
 10
3.015541
 20
3.540418
 30
0.0
 11
2.955991
 21
3.403958
 31
0.0
 12
3.015541
 22
3.441923
 32
0.0
 13
3.015541
 23
3.441923
 33
0.0
  0
SOLID
  5
1DF
100
AcDbEntity
  8
NETWORK
 62
   253
100
AcDbTrace
 10
3.015541
 20
3.540418
 30
0.0
 11
3.015541
 21
3.441923
 31
0.0
 12
3.037032
 22
3.491171
 32
0.0
 13
3.037032
 23
3.491171
 33
0.0
  0
POLYLINE
  5
1E0
100
AcDbEntity
  8
NETWORK
  6
CONTINUOUS
 62
     7
100
AcDb2dPolyline
 66
     1
 10
0.0
 20
0.0
 30
0.0
 70
     1
  0
VERTEX
  5
1E1
100
AcDbEntity
  8
NETWORK
  6
CONTINUOUS
 62
     7
100
AcDbVertex
100
AcDb2dVertex
 10
3.037032
 20
3.491171
 30
0.0
 42
0.159526
  0
VERTEX
  5
1E2
100
AcDbEntity
  8
NETWORK
  6
CONTINUOUS
 62
     7
100
AcDbVertex
100
AcDb2dVertex
 10
3.02275
 20
3.531724
 30
0.0
 42
0.106369
  0
VERTEX
  5
1E3
100
AcDbEntity
  8
NETWORK
  6
CONTINUOUS
 62
     7
100
AcDbVertex
100
AcDb2dVertex
 10
2.982079
 20
3.566104
 30
0.0
 42
0.071201
  0
VERTEX
  5
1E4
100
AcDbEntity
  8
NETWORK
  6
CONTINUOUS
 62
     7
100
AcDbVertex
100
AcDb2dVertex
 10
2.92121
 20
3.589075
 30
0.0
 42
0.057518
  0
VERTEX
  5
1E5
100
AcDbEntity
  8
NETWORK
  6
CONTINUOUS
 62
     7
100
AcDbVertex
100
AcDb2dVertex
 10
2.849409
 20
3.597142
 30
0.0
 42
0.057518
  0
VERTEX
  5
1E6
100
AcDbEntity
  8
NETWORK
  6
CONTINUOUS
 62
     7
100
AcDbVertex
100
AcDb2dVertex
 10
2.777609
 20
3.589075
 30
0.0
 42
0.071201
  0
VERTEX
  5
1E7
100
AcDbEntity
  8
NETWORK
  6
CONTINUOUS
 62
     7
100
AcDbVertex
100
AcDb2dVertex
 10
2.71674
 20
3.566104
 30
0.0
 42
0.106369
  0
VERTEX
  5
1E8
100
AcDbEntity
  8
NETWORK
  6
CONTINUOUS
 62
     7
100
AcDbVertex
100
AcDb2dVertex
 10
2.676068
 20
3.531724
 30
0.0
 42
0.159526
  0
VERTEX
  5
1E9
100
AcDbEntity
  8
NETWORK
  6
CONTINUOUS
 62
     7
100
AcDbVertex
100
AcDb2dVertex
 10
2.661786
 20
3.491171
 30
0.0
 42
0.159526
  0
VERTEX
  5
1EA
100
AcDbEntity
  8
NETWORK
  6
CONTINUOUS
 62
     7
100
AcDbVertex
100
AcDb2dVertex
 10
2.676068
 20
3.450617
 30
0.0
 42
0.106369
  0
VERTEX
  5
1EB
100
AcDbEntity
  8
NETWORK
  6
CONTINUOUS
 62
     7
100
AcDbVertex
100
AcDb2dVertex
 10
2.71674
 20
3.416238
 30
0.0
 42
0.071201
  0
VERTEX
  5
1EC
100
AcDbEntity
  8
NETWORK
  6
CONTINUOUS
 62
     7
100
AcDbVertex
100
AcDb2dVertex
 10
2.777609
 20
3.393266
 30
0.0
 42
0.057518
  0
VERTEX
  5
1ED
100
AcDbEntity
  8
NETWORK
  6
CONTINUOUS
 62
     7
100
AcDbVertex
100
AcDb2dVertex
 10
2.849409
 20
3.385199
 30
0.0
 42
0.057518
  0
VERTEX
  5
1EE
100
AcDbEntity
  8
NETWORK
  6
CONTINUOUS
 62
     7
100
AcDbVertex
100
AcDb2dVertex
 10
2.92121
 20
3.393266
 30
0.0
 42
0.071201
  0
VERTEX
  5
1EF
100
AcDbEntity
  8
NETWORK
  6
CONTINUOUS
 62
     7
100
AcDbVertex
100
AcDb2dVertex
 10
2.982079
 20
3.416238
 30
0.0
 42
0.106369
  0
VERTEX
  5
1F0
100
AcDbEntity
  8
NETWORK
  6
CONTINUOUS
 62
     7
100
AcDbVertex
100
AcDb2dVertex
 10
3.02275
 20
3.450617
 30
0.0
 42
0.159526
  0
SEQEND
  5
1F1
100
AcDbEntity
  8
NETWORK
  6
CONTINUOUS
 62
     7
  0
SOLID
  5
1F2
100
AcDbEntity
  8
NETWORK
 62
   253
100
AcDbTrace
 10
2.565246
 20
3.540418
 30
0.0
 11
2.505696
 21
3.578383
 31
0.0
 12
2.42173
 22
3.596369
 32
0.0
 13
2.42173
 23
3.596369
 33
0.0
  0
SOLID
  5
1F3
100
AcDbEntity
  8
NETWORK
 62
   253
100
AcDbTrace
 10
2.565246
 20
3.540418
 30
0.0
 11
2.42173
 21
3.596369
 31
0.0
 12
2.332582
 22
3.590256
 32
0.0
 13
2.332582
 23
3.590256
 33
0.0
  0
SOLID
  5
1F4
100
AcDbEntity
  8
NETWORK
 62
   253
100
AcDbTrace
 10
2.565246
 20
3.540418
 30
0.0
 11
2.332582
 21
3.590256
 31
0.0
 12
2.258676
 22
3.561443
 32
0.0
 13
2.258676
 23
3.561443
 33
0.0
  0
SOLID
  5
1F5
100
AcDbEntity
  8
NETWORK
 62
   253
100
AcDbTrace
 10
2.565246
 20
3.540418
 30
0.0
 11
2.258676
 21
3.561443
 31
0.0
 12
2.216943
 22
3.516531
 32
0.0
 13
2.216943
 23
3.516531
 33
0.0
  0
SOLID
  5
1F6
100
AcDbEntity
  8
NETWORK
 62
   253
100
AcDbTrace
 10
2.565246
 20
3.540418
 30
0.0
 11
2.216943
 21
3.516531
 31
0.0
 12
2.216943
 22
3.46581
 32
0.0
 13
2.216943
 23
3.46581
 33
0.0
  0
SOLID
  5
1F7
100
AcDbEntity
  8
NETWORK
 62
   253
100
AcDbTrace
 10
2.565246
 20
3.540418
 30
0.0
 11
2.216943
 21
3.46581
 31
0.0
 12
2.258676
 22
3.420899
 32
0.0
 13
2.258676
 23
3.420899
 33
0.0
  0
SOLID
  5
1F8
100
AcDbEntity
  8
NETWORK
 62
   253
100
AcDbTrace
 10
2.565246
 20
3.540418
 30
0.0
 11
2.258676
 21
3.420899
 31
0.0
 12
2.332582
 22
3.392086
 32
0.0
 13
2.332582
 23
3.392086
 33
0.0
  0
SOLID
  5
1F9
100
AcDbEntity
  8
NETWORK
 62
   253
100
AcDbTrace
 10
2.565246
 20
3.540418
 30
0.0
 11
2.332582
 21
3.392086
 31
0.0
 12
2.42173
 22
3.385972
 32
0.0
 13
2.42173
 23
3.385972
 33
0.0
  0
SOLID
  5
1FA
100
AcDbEntity
  8
NETWORK
 62
   253
100
AcDbTrace
 10
2.565246
 20
3.540418
 30
0.0
 11
2.42173
 21
3.385972
 31
0.0
 12
2.505696
 22
3.403958
 32
0.0
 13
2.505696
 23
3.403958
 33
0.0
  0
SOLID
  5
1FB
100
AcDbEntity
  8
NETWORK
 62
   253
100
AcDbTrace
 10
2.565246
 20
3.540418
 30
0.0
 11
2.505696
 21
3.403958
 31
0.0
 12
2.565246
 22
3.441923
 32
0.0
 13
2.565246
 23
3.441923
 33
0.0
  0
SOLID
  5
1FC
100
AcDbEntity
  8
NETWORK
 62
   253
100
AcDbTrace
 10
2.565246
 20
3.540418
 30
0.0
 11
2.565246
 21
3.441923
 31
0.0
 12
2.586737
 22
3.491171
 32
0.0
 13
2.586737
 23
3.491171
 33
0.0
  0
POLYLINE
  5
1FD
100
AcDbEntity
  8
NETWORK
  6
CONTINUOUS
 62
     7
100
AcDb2dPolyline
 66
     1
 10
0.0
 20
0.0
 30
0.0
 70
     1
  0
VERTEX
  5
1FE
100
AcDbEntity
  8
NETWORK
  6
CONTINUOUS
 62
     7
100
AcDbVertex
100
AcDb2dVertex
 10
2.586737
 20
3.491171
 30
0.0
 42
0.159526
  0
VERTEX
  5
1FF
100
AcDbEntity
  8
NETWORK
  6
CONTINUOUS
 62
     7
100
AcDbVertex
100
AcDb2dVertex
 10
2.572455
 20
3.531724
 30
0.0
 42
0.106369
  0
VERTEX
  5
200
100
AcDbEntity
  8
NETWORK
  6
CONTINUOUS
 62
     7
100
AcDbVertex
100
AcDb2dVertex
 10
2.531784
 20
3.566104
 30
0.0
 42
0.071201
  0
VERTEX
  5
201
100
AcDbEntity
  8
NETWORK
  6
CONTINUOUS
 62
     7
100
AcDbVertex
100
AcDb2dVertex
 10
2.470914
 20
3.589075
 30
0.0
 42
0.057518
  0
VERTEX
  5
202
100
AcDbEntity
  8
NETWORK
  6
CONTINUOUS
 62
     7
100
AcDbVertex
100
AcDb2dVertex
 10
2.399114
 20
3.597142
 30
0.0
 42
0.057518
  0
VERTEX
  5
203
100
AcDbEntity
  8
NETWORK
  6
CONTINUOUS
 62
     7
100
AcDbVertex
100
AcDb2dVertex
 10
2.327314
 20
3.589075
 30
0.0
 42
0.071201
  0
VERTEX
  5
204
100
AcDbEntity
  8
NETWORK
  6
CONTINUOUS
 62
     7
100
AcDbVertex
100
AcDb2dVertex
 10
2.266445
 20
3.566104
 30
0.0
 42
0.106369
  0
VERTEX
  5
205
100
AcDbEntity
  8
NETWORK
  6
CONTINUOUS
 62
     7
100
AcDbVertex
100
AcDb2dVertex
 10
2.225773
 20
3.531724
 30
0.0
 42
0.159526
  0
VERTEX
  5
206
100
AcDbEntity
  8
NETWORK
  6
CONTINUOUS
 62
     7
100
AcDbVertex
100
AcDb2dVertex
 10
2.211491
 20
3.491171
 30
0.0
 42
0.159526
  0
VERTEX
  5
207
100
AcDbEntity
  8
NETWORK
  6
CONTINUOUS
 62
     7
100
AcDbVertex
100
AcDb2dVertex
 10
2.225773
 20
3.450617
 30
0.0
 42
0.106369
  0
VERTEX
  5
208
100
AcDbEntity
  8
NETWORK
  6
CONTINUOUS
 62
     7
100
AcDbVertex
100
AcDb2dVertex
 10
2.266445
 20
3.416238
 30
0.0
 42
0.071201
  0
VERTEX
  5
209
100
AcDbEntity
  8
NETWORK
  6
CONTINUOUS
 62
     7
100
AcDbVertex
100
AcDb2dVertex
 10
2.327314
 20
3.393266
 30
0.0
 42
0.057518
  0
VERTEX
  5
20A
100
AcDbEntity
  8
NETWORK
  6
CONTINUOUS
 62
     7
100
AcDbVertex
100
AcDb2dVertex
 10
2.399114
 20
3.385199
 30
0.0
 42
0.057518
  0
VERTEX
  5
20B
100
AcDbEntity
  8
NETWORK
  6
CONTINUOUS
 62
     7
100
AcDbVertex
100
AcDb2dVertex
 10
2.470914
 20
3.393266
 30
0.0
 42
0.071201
  0
VERTEX
  5
20C
100
AcDbEntity
  8
NETWORK
  6
CONTINUOUS
 62
     7
100
AcDbVertex
100
AcDb2dVertex
 10
2.531784
 20
3.416238
 30
0.0
 42
0.106369
  0
VERTEX
  5
20D
100
AcDbEntity
  8
NETWORK
  6
CONTINUOUS
 62
     7
100
AcDbVertex
100
AcDb2dVertex
 10
2.572455
 20
3.450617
 30
0.0
 42
0.159526
  0
SEQEND
  5
20E
100
AcDbEntity
  8
NETWORK
  6
CONTINUOUS
 62
     7
  0
SOLID
  5
20F
100
AcDbEntity
  8
NETWORK
 62
   253
100
AcDbTrace
 10
2.152475
 20
3.540418
 30
0.0
 11
2.092925
 21
3.578383
 31
0.0
 12
2.008959
 22
3.596369
 32
0.0
 13
2.008959
 23
3.596369
 33
0.0
  0
SOLID
  5
210
100
AcDbEntity
  8
NETWORK
 62
   253
100
AcDbTrace
 10
2.152475
 20
3.540418
 30
0.0
 11
2.008959
 21
3.596369
 31
0.0
 12
1.919811
 22
3.590256
 32
0.0
 13
1.919811
 23
3.590256
 33
0.0
  0
SOLID
  5
211
100
AcDbEntity
  8
NETWORK
 62
   253
100
AcDbTrace
 10
2.152475
 20
3.540418
 30
0.0
 11
1.919811
 21
3.590256
 31
0.0
 12
1.845906
 22
3.561443
 32
0.0
 13
1.845906
 23
3.561443
 33
0.0
  0
SOLID
  5
212
100
AcDbEntity
  8
NETWORK
 62
   253
100
AcDbTrace
 10
2.152475
 20
3.540418
 30
0.0
 11
1.845906
 21
3.561443
 31
0.0
 12
1.804172
 22
3.516531
 32
0.0
 13
1.804172
 23
3.516531
 33
0.0
  0
SOLID
  5
213
100
AcDbEntity
  8
NETWORK
 62
   253
100
AcDbTrace
 10
2.152475
 20
3.540418
 30
0.0
 11
1.804172
 21
3.516531
 31
0.0
 12
1.804172
 22
3.46581
 32
0.0
 13
1.804172
 23
3.46581
 33
0.0
  0
SOLID
  5
214
100
AcDbEntity
  8
NETWORK
 62
   253
100
AcDbTrace
 10
2.152475
 20
3.540418
 30
0.0
 11
1.804172
 21
3.46581
 31
0.0
 12
1.845906
 22
3.420899
 32
0.0
 13
1.845906
 23
3.420899
 33
0.0
  0
SOLID
  5
215
100
AcDbEntity
  8
NETWORK
 62
   253
100
AcDbTrace
 10
2.152475
 20
3.540418
 30
0.0
 11
1.845906
 21
3.420899
 31
0.0
 12
1.919811
 22
3.392086
 32
0.0
 13
1.919811
 23
3.392086
 33
0.0
  0
SOLID
  5
216
100
AcDbEntity
  8
NETWORK
 62
   253
100
AcDbTrace
 10
2.152475
 20
3.540418
 30
0.0
 11
1.919811
 21
3.392086
 31
0.0
 12
2.008959
 22
3.385972
 32
0.0
 13
2.008959
 23
3.385972
 33
0.0
  0
SOLID
  5
217
100
AcDbEntity
  8
NETWORK
 62
   253
100
AcDbTrace
 10
2.152475
 20
3.540418
 30
0.0
 11
2.008959
 21
3.385972
 31
0.0
 12
2.092925
 22
3.403958
 32
0.0
 13
2.092925
 23
3.403958
 33
0.0
  0
SOLID
  5
218
100
AcDbEntity
  8
NETWORK
 62
   253
100
AcDbTrace
 10
2.152475
 20
3.540418
 30
0.0
 11
2.092925
 21
3.403958
 31
0.0
 12
2.152475
 22
3.441923
 32
0.0
 13
2.152475
 23
3.441923
 33
0.0
  0
SOLID
  5
219
100
AcDbEntity
  8
NETWORK
 62
   253
100
AcDbTrace
 10
2.152475
 20
3.540418
 30
0.0
 11
2.152475
 21
3.441923
 31
0.0
 12
2.173966
 22
3.491171
 32
0.0
 13
2.173966
 23
3.491171
 33
0.0
  0
POLYLINE
  5
21A
100
AcDbEntity
  8
NETWORK
  6
CONTINUOUS
 62
     7
100
AcDb2dPolyline
 66
     1
 10
0.0
 20
0.0
 30
0.0
 70
     1
  0
VERTEX
  5
21B
100
AcDbEntity
  8
NETWORK
  6
CONTINUOUS
 62
     7
100
AcDbVertex
100
AcDb2dVertex
 10
2.173966
 20
3.491171
 30
0.0
 42
0.159526
  0
VERTEX
  5
21C
100
AcDbEntity
  8
NETWORK
  6
CONTINUOUS
 62
     7
100
AcDbVertex
100
AcDb2dVertex
 10
2.159685
 20
3.531724
 30
0.0
 42
0.106369
  0
VERTEX
  5
21D
100
AcDbEntity
  8
NETWORK
  6
CONTINUOUS
 62
     7
100
AcDbVertex
100
AcDb2dVertex
 10
2.119013
 20
3.566104
 30
0.0
 42
0.071201
  0
VERTEX
  5
21E
100
AcDbEntity
  8
NETWORK
  6
CONTINUOUS
 62
     7
100
AcDbVertex
100
AcDb2dVertex
 10
2.058144
 20
3.589075
 30
0.0
 42
0.057518
  0
VERTEX
  5
21F
100
AcDbEntity
  8
NETWORK
  6
CONTINUOUS
 62
     7
100
AcDbVertex
100
AcDb2dVertex
 10
1.986343
 20
3.597142
 30
0.0
 42
0.057518
  0
VERTEX
  5
220
100
AcDbEntity
  8
NETWORK
  6
CONTINUOUS
 62
     7
100
AcDbVertex
100
AcDb2dVertex
 10
1.914543
 20
3.589075
 30
0.0
 42
0.071201
  0
VERTEX
  5
221
100
AcDbEntity
  8
NETWORK
  6
CONTINUOUS
 62
     7
100
AcDbVertex
100
AcDb2dVertex
 10
1.853674
 20
3.566104
 30
0.0
 42
0.106369
  0
VERTEX
  5
222
100
AcDbEntity
  8
NETWORK
  6
CONTINUOUS
 62
     7
100
AcDbVertex
100
AcDb2dVertex
 10
1.813002
 20
3.531724
 30
0.0
 42
0.159526
  0
VERTEX
  5
223
100
AcDbEntity
  8
NETWORK
  6
CONTINUOUS
 62
     7
100
AcDbVertex
100
AcDb2dVertex
 10
1.79872
 20
3.491171
 30
0.0
 42
0.159526
  0
VERTEX
  5
224
100
AcDbEntity
  8
NETWORK
  6
CONTINUOUS
 62
     7
100
AcDbVertex
100
AcDb2dVertex
 10
1.813002
 20
3.450617
 30
0.0
 42
0.106369
  0
VERTEX
  5
225
100
AcDbEntity
  8
NETWORK
  6
CONTINUOUS
 62
     7
100
AcDbVertex
100
AcDb2dVertex
 10
1.853674
 20
3.416238
 30
0.0
 42
0.071201
  0
VERTEX
  5
226
100
AcDbEntity
  8
NETWORK
  6
CONTINUOUS
 62
     7
100
AcDbVertex
100
AcDb2dVertex
 10
1.914543
 20
3.393266
 30
0.0
 42
0.057518
  0
VERTEX
  5
227
100
AcDbEntity
  8
NETWORK
  6
CONTINUOUS
 62
     7
100
AcDbVertex
100
AcDb2dVertex
 10
1.986343
 20
3.385199
 30
0.0
 42
0.057518
  0
VERTEX
  5
228
100
AcDbEntity
  8
NETWORK
  6
CONTINUOUS
 62
     7
100
AcDbVertex
100
AcDb2dVertex
 10
2.058144
 20
3.393266
 30
0.0
 42
0.071201
  0
VERTEX
  5
229
100
AcDbEntity
  8
NETWORK
  6
CONTINUOUS
 62
     7
100
AcDbVertex
100
AcDb2dVertex
 10
2.119013
 20
3.416238
 30
0.0
 42
0.106369
  0
VERTEX
  5
22A
100
AcDbEntity
  8
NETWORK
  6
CONTINUOUS
 62
     7
100
AcDbVertex
100
AcDb2dVertex
 10
2.159685
 20
3.450617
 30
0.0
 42
0.159526
  0
SEQEND
  5
22B
100
AcDbEntity
  8
NETWORK
  6
CONTINUOUS
 62
     7
  0
SOLID
  5
22C
100
AcDbEntity
  8
NETWORK
 62
   253
100
AcDbTrace
 10
3.021662
 20
3.204599
 30
0.0
 11
2.969571
 21
3.252312
 31
0.0
 12
2.889951
 22
3.284604
 32
0.0
 13
2.889951
 23
3.284604
 33
0.0
  0
SOLID
  5
22D
100
AcDbEntity
  8
NETWORK
 62
   253
100
AcDbTrace
 10
3.021662
 20
3.204599
 30
0.0
 11
2.889951
 21
3.284604
 31
0.0
 12
2.801045
 22
3.294076
 32
0.0
 13
2.801045
 23
3.294076
 33
0.0
  0
SOLID
  5
22E
100
AcDbEntity
  8
NETWORK
 62
   253
100
AcDbTrace
 10
3.021662
 20
3.204599
 30
0.0
 11
2.801045
 21
3.294076
 31
0.0
 12
2.723217
 22
3.278559
 32
0.0
 13
2.723217
 23
3.278559
 33
0.0
  0
SOLID
  5
22F
100
AcDbEntity
  8
NETWORK
 62
   253
100
AcDbTrace
 10
3.021662
 20
3.204599
 30
0.0
 11
2.723217
 21
3.278559
 31
0.0
 12
2.674299
 22
3.241607
 32
0.0
 13
2.674299
 23
3.241607
 33
0.0
  0
SOLID
  5
230
100
AcDbEntity
  8
NETWORK
 62
   253
100
AcDbTrace
 10
3.021662
 20
3.204599
 30
0.0
 11
2.674299
 21
3.241607
 31
0.0
 12
2.665497
 22
3.191686
 32
0.0
 13
2.665497
 23
3.191686
 33
0.0
  0
SOLID
  5
231
100
AcDbEntity
  8
NETWORK
 62
   253
100
AcDbTrace
 10
3.021662
 20
3.204599
 30
0.0
 11
2.665497
 21
3.191686
 31
0.0
 12
2.698827
 22
3.140232
 32
0.0
 13
2.698827
 23
3.140232
 33
0.0
  0
SOLID
  5
232
100
AcDbEntity
  8
NETWORK
 62
   253
100
AcDbTrace
 10
3.021662
 20
3.204599
 30
0.0
 11
2.698827
 21
3.140232
 31
0.0
 12
2.766653
 22
3.099032
 32
0.0
 13
2.766653
 23
3.099032
 33
0.0
  0
SOLID
  5
233
100
AcDbEntity
  8
NETWORK
 62
   253
100
AcDbTrace
 10
3.021662
 20
3.204599
 30
0.0
 11
2.766653
 21
3.099032
 31
0.0
 12
2.853438
 22
3.077525
 32
0.0
 13
2.853438
 23
3.077525
 33
0.0
  0
SOLID
  5
234
100
AcDbEntity
  8
NETWORK
 62
   253
100
AcDbTrace
 10
3.021662
 20
3.204599
 30
0.0
 11
2.853438
 21
3.077525
 31
0.0
 12
2.9393
 22
3.080638
 32
0.0
 13
2.9393
 23
3.080638
 33
0.0
  0
SOLID
  5
235
100
AcDbEntity
  8
NETWORK
 62
   253
100
AcDbTrace
 10
3.021662
 20
3.204599
 30
0.0
 11
2.9393
 21
3.080638
 31
0.0
 12
3.004569
 22
3.107657
 32
0.0
 13
3.004569
 23
3.107657
 33
0.0
  0
SOLID
  5
236
100
AcDbEntity
  8
NETWORK
 62
   253
100
AcDbTrace
 10
3.021662
 20
3.204599
 30
0.0
 11
3.004569
 21
3.107657
 31
0.0
 12
3.034293
 22
3.152394
 32
0.0
 13
3.034293
 23
3.152394
 33
0.0
  0
POLYLINE
  5
237
100
AcDbEntity
  8
NETWORK
  6
CONTINUOUS
 62
     7
100
AcDb2dPolyline
 66
     1
 10
0.0
 20
0.0
 30
0.0
 70
     1
  0
VERTEX
  5
238
100
AcDbEntity
  8
NETWORK
  6
CONTINUOUS
 62
     7
100
AcDbVertex
100
AcDb2dVertex
 10
3.034293
 20
3.152394
 30
0.0
 42
0.159671
  0
VERTEX
  5
239
100
AcDbEntity
  8
NETWORK
  6
CONTINUOUS
 62
     7
100
AcDbVertex
100
AcDb2dVertex
 10
3.027257
 20
3.194789
 30
0.0
 42
0.106354
  0
VERTEX
  5
23A
100
AcDbEntity
  8
NETWORK
  6
CONTINUOUS
 62
     7
100
AcDbVertex
100
AcDb2dVertex
 10
2.993146
 20
3.235693
 30
0.0
 42
0.071139
  0
VERTEX
  5
23B
100
AcDbEntity
  8
NETWORK
  6
CONTINUOUS
 62
     7
100
AcDbVertex
100
AcDb2dVertex
 10
2.937152
 20
3.268879
 30
0.0
 42
0.057452
  0
VERTEX
  5
23C
100
AcDbEntity
  8
NETWORK
  6
CONTINUOUS
 62
     7
100
AcDbVertex
100
AcDb2dVertex
 10
2.8678
 20
3.289294
 30
0.0
 42
0.057452
  0
VERTEX
  5
23D
100
AcDbEntity
  8
NETWORK
  6
CONTINUOUS
 62
     7
100
AcDbVertex
100
AcDb2dVertex
 10
2.795648
 20
3.29383
 30
0.0
 42
0.071139
  0
VERTEX
  5
23E
100
AcDbEntity
  8
NETWORK
  6
CONTINUOUS
 62
     7
100
AcDbVertex
100
AcDb2dVertex
 10
2.731681
 20
3.281797
 30
0.0
 42
0.106354
  0
VERTEX
  5
23F
100
AcDbEntity
  8
NETWORK
  6
CONTINUOUS
 62
     7
100
AcDbVertex
100
AcDb2dVertex
 10
2.685637
 20
3.255026
 30
0.0
 42
0.159671
  0
VERTEX
  5
240
100
AcDbEntity
  8
NETWORK
  6
CONTINUOUS
 62
     7
100
AcDbVertex
100
AcDb2dVertex
 10
2.664526
 20
3.217594
 30
0.0
 42
0.159671
  0
VERTEX
  5
241
100
AcDbEntity
  8
NETWORK
  6
CONTINUOUS
 62
     7
100
AcDbVertex
100
AcDb2dVertex
 10
2.671561
 20
3.175198
 30
0.0
 42
0.106354
  0
VERTEX
  5
242
100
AcDbEntity
  8
NETWORK
  6
CONTINUOUS
 62
     7
100
AcDbVertex
100
AcDb2dVertex
 10
2.705673
 20
3.134294
 30
0.0
 42
0.071139
  0
VERTEX
  5
243
100
AcDbEntity
  8
NETWORK
  6
CONTINUOUS
 62
     7
100
AcDbVertex
100
AcDb2dVertex
 10
2.761666
 20
3.101109
 30
0.0
 42
0.057452
  0
VERTEX
  5
244
100
AcDbEntity
  8
NETWORK
  6
CONTINUOUS
 62
     7
100
AcDbVertex
100
AcDb2dVertex
 10
2.831018
 20
3.080694
 30
0.0
 42
0.057452
  0
VERTEX
  5
245
100
AcDbEntity
  8
NETWORK
  6
CONTINUOUS
 62
     7
100
AcDbVertex
100
AcDb2dVertex
 10
2.90317
 20
3.076158
 30
0.0
 42
0.071139
  0
VERTEX
  5
246
100
AcDbEntity
  8
NETWORK
  6
CONTINUOUS
 62
     7
100
AcDbVertex
100
AcDb2dVertex
 10
2.967137
 20
3.088191
 30
0.0
 42
0.106354
  0
VERTEX
  5
247
100
AcDbEntity
  8
NETWORK
  6
CONTINUOUS
 62
     7
100
AcDbVertex
100
AcDb2dVertex
 10
3.013182
 20
3.114962
 30
0.0
 42
0.159671
  0
SEQEND
  5
248
100
AcDbEntity
  8
NETWORK
  6
CONTINUOUS
 62
     7
  0
SOLID
  5
249
100
AcDbEntity
  8
NETWORK
 62
   253
100
AcDbTrace
 10
2.122741
 20
3.241748
 30
0.0
 11
2.057472
 21
3.268768
 31
0.0
 12
1.97161
 22
3.271881
 32
0.0
 13
1.97161
 23
3.271881
 33
0.0
  0
SOLID
  5
24A
100
AcDbEntity
  8
NETWORK
 62
   253
100
AcDbTrace
 10
2.122741
 20
3.241748
 30
0.0
 11
1.97161
 21
3.271881
 31
0.0
 12
1.884825
 22
3.250374
 32
0.0
 13
1.884825
 23
3.250374
 33
0.0
  0
SOLID
  5
24B
100
AcDbEntity
  8
NETWORK
 62
   253
100
AcDbTrace
 10
2.122741
 20
3.241748
 30
0.0
 11
1.884825
 21
3.250374
 31
0.0
 12
1.816998
 22
3.209174
 32
0.0
 13
1.816998
 23
3.209174
 33
0.0
  0
SOLID
  5
24C
100
AcDbEntity
  8
NETWORK
 62
   253
100
AcDbTrace
 10
2.122741
 20
3.241748
 30
0.0
 11
1.816998
 21
3.209174
 31
0.0
 12
1.783669
 22
3.15772
 32
0.0
 13
1.783669
 23
3.15772
 33
0.0
  0
SOLID
  5
24D
100
AcDbEntity
  8
NETWORK
 62
   253
100
AcDbTrace
 10
2.122741
 20
3.241748
 30
0.0
 11
1.783669
 21
3.15772
 31
0.0
 12
1.792471
 22
3.107798
 32
0.0
 13
1.792471
 23
3.107798
 33
0.0
  0
SOLID
  5
24E
100
AcDbEntity
  8
NETWORK
 62
   253
100
AcDbTrace
 10
2.122741
 20
3.241748
 30
0.0
 11
1.792471
 21
3.107798
 31
0.0
 12
1.841389
 22
3.070847
 32
0.0
 13
1.841389
 23
3.070847
 33
0.0
  0
SOLID
  5
24F
100
AcDbEntity
  8
NETWORK
 62
   253
100
AcDbTrace
 10
2.122741
 20
3.241748
 30
0.0
 11
1.841389
 21
3.070847
 31
0.0
 12
1.919216
 22
3.055329
 32
0.0
 13
1.919216
 23
3.055329
 33
0.0
  0
SOLID
  5
250
100
AcDbEntity
  8
NETWORK
 62
   253
100
AcDbTrace
 10
2.122741
 20
3.241748
 30
0.0
 11
1.919216
 21
3.055329
 31
0.0
 12
2.008123
 22
3.064802
 32
0.0
 13
2.008123
 23
3.064802
 33
0.0
  0
SOLID
  5
251
100
AcDbEntity
  8
NETWORK
 62
   253
100
AcDbTrace
 10
2.122741
 20
3.241748
 30
0.0
 11
2.008123
 21
3.064802
 31
0.0
 12
2.087742
 22
3.097093
 32
0.0
 13
2.087742
 23
3.097093
 33
0.0
  0
SOLID
  5
252
100
AcDbEntity
  8
NETWORK
 62
   253
100
AcDbTrace
 10
2.122741
 20
3.241748
 30
0.0
 11
2.087742
 21
3.097093
 31
0.0
 12
2.139834
 22
3.144807
 32
0.0
 13
2.139834
 23
3.144807
 33
0.0
  0
SOLID
  5
253
100
AcDbEntity
  8
NETWORK
 62
   253
100
AcDbTrace
 10
2.122741
 20
3.241748
 30
0.0
 11
2.139834
 21
3.144807
 31
0.0
 12
2.152465
 22
3.197012
 32
0.0
 13
2.152465
 23
3.197012
 33
0.0
  0
POLYLINE
  5
254
100
AcDbEntity
  8
NETWORK
  6
CONTINUOUS
 62
     7
100
AcDb2dPolyline
 66
     1
 10
0.0
 20
0.0
 30
0.0
 70
     1
  0
VERTEX
  5
255
100
AcDbEntity
  8
NETWORK
  6
CONTINUOUS
 62
     7
100
AcDbVertex
100
AcDb2dVertex
 10
2.152465
 20
3.197012
 30
0.0
 42
0.159671
  0
VERTEX
  5
256
100
AcDbEntity
  8
NETWORK
  6
CONTINUOUS
 62
     7
100
AcDbVertex
100
AcDb2dVertex
 10
2.131353
 20
3.234444
 30
0.0
 42
0.106354
  0
VERTEX
  5
257
100
AcDbEntity
  8
NETWORK
  6
CONTINUOUS
 62
     7
100
AcDbVertex
100
AcDb2dVertex
 10
2.085309
 20
3.261215
 30
0.0
 42
0.071139
  0
VERTEX
  5
258
100
AcDbEntity
  8
NETWORK
  6
CONTINUOUS
 62
     7
100
AcDbVertex
100
AcDb2dVertex
 10
2.021342
 20
3.273248
 30
0.0
 42
0.057452
  0
VERTEX
  5
259
100
AcDbEntity
  8
NETWORK
  6
CONTINUOUS
 62
     7
100
AcDbVertex
100
AcDb2dVertex
 10
1.94919
 20
3.268712
 30
0.0
 42
0.057452
  0
VERTEX
  5
25A
100
AcDbEntity
  8
NETWORK
  6
CONTINUOUS
 62
     7
100
AcDbVertex
100
AcDb2dVertex
 10
1.879838
 20
3.248297
 30
0.0
 42
0.071139
  0
VERTEX
  5
25B
100
AcDbEntity
  8
NETWORK
  6
CONTINUOUS
 62
     7
100
AcDbVertex
100
AcDb2dVertex
 10
1.823844
 20
3.215111
 30
0.0
 42
0.106354
  0
VERTEX
  5
25C
100
AcDbEntity
  8
NETWORK
  6
CONTINUOUS
 62
     7
100
AcDbVertex
100
AcDb2dVertex
 10
1.789733
 20
3.174207
 30
0.0
 42
0.159671
  0
VERTEX
  5
25D
100
AcDbEntity
  8
NETWORK
  6
CONTINUOUS
 62
     7
100
AcDbVertex
100
AcDb2dVertex
 10
1.782698
 20
3.131812
 30
0.0
 42
0.159671
  0
VERTEX
  5
25E
100
AcDbEntity
  8
NETWORK
  6
CONTINUOUS
 62
     7
100
AcDbVertex
100
AcDb2dVertex
 10
1.803809
 20
3.094379
 30
0.0
 42
0.106354
  0
VERTEX
  5
25F
100
AcDbEntity
  8
NETWORK
  6
CONTINUOUS
 62
     7
100
AcDbVertex
100
AcDb2dVertex
 10
1.849853
 20
3.067609
 30
0.0
 42
0.071139
  0
VERTEX
  5
260
100
AcDbEntity
  8
NETWORK
  6
CONTINUOUS
 62
     7
100
AcDbVertex
100
AcDb2dVertex
 10
1.91382
 20
3.055576
 30
0.0
 42
0.057452
  0
VERTEX
  5
261
100
AcDbEntity
  8
NETWORK
  6
CONTINUOUS
 62
     7
100
AcDbVertex
100
AcDb2dVertex
 10
1.985972
 20
3.060112
 30
0.0
 42
0.057452
  0
VERTEX
  5
262
100
AcDbEntity
  8
NETWORK
  6
CONTINUOUS
 62
     7
100
AcDbVertex
100
AcDb2dVertex
 10
2.055324
 20
3.080527
 30
0.0
 42
0.071139
  0
VERTEX
  5
263
100
AcDbEntity
  8
NETWORK
  6
CONTINUOUS
 62
     7
100
AcDbVertex
100
AcDb2dVertex
 10
2.111318
 20
3.113712
 30
0.0
 42
0.106354
  0
VERTEX
  5
264
100
AcDbEntity
  8
NETWORK
  6
CONTINUOUS
 62
     7
100
AcDbVertex
100
AcDb2dVertex
 10
2.145429
 20
3.154616
 30
0.0
 42
0.159671
  0
SEQEND
  5
265
100
AcDbEntity
  8
NETWORK
  6
CONTINUOUS
 62
     7
  0
SOLID
  5
266
100
AcDbEntity
  8
NETWORK
 62
   253
100
AcDbTrace
 10
2.565246
 20
3.251931
 30
0.0
 11
2.505696
 21
3.289897
 31
0.0
 12
2.42173
 22
3.307882
 32
0.0
 13
2.42173
 23
3.307882
 33
0.0
  0
SOLID
  5
267
100
AcDbEntity
  8
NETWORK
 62
   253
100
AcDbTrace
 10
2.565246
 20
3.251931
 30
0.0
 11
2.42173
 21
3.307882
 31
0.0
 12
2.332582
 22
3.301769
 32
0.0
 13
2.332582
 23
3.301769
 33
0.0
  0
SOLID
  5
268
100
AcDbEntity
  8
NETWORK
 62
   253
100
AcDbTrace
 10
2.565246
 20
3.251931
 30
0.0
 11
2.332582
 21
3.301769
 31
0.0
 12
2.258676
 22
3.272956
 32
0.0
 13
2.258676
 23
3.272956
 33
0.0
  0
SOLID
  5
269
100
AcDbEntity
  8
NETWORK
 62
   253
100
AcDbTrace
 10
2.565246
 20
3.251931
 30
0.0
 11
2.258676
 21
3.272956
 31
0.0
 12
2.216943
 22
3.228044
 32
0.0
 13
2.216943
 23
3.228044
 33
0.0
  0
SOLID
  5
26A
100
AcDbEntity
  8
NETWORK
 62
   253
100
AcDbTrace
 10
2.565246
 20
3.251931
 30
0.0
 11
2.216943
 21
3.228044
 31
0.0
 12
2.216943
 22
3.177323
 32
0.0
 13
2.216943
 23
3.177323
 33
0.0
  0
SOLID
  5
26B
100
AcDbEntity
  8
NETWORK
 62
   253
100
AcDbTrace
 10
2.565246
 20
3.251931
 30
0.0
 11
2.216943
 21
3.177323
 31
0.0
 12
2.258676
 22
3.132412
 32
0.0
 13
2.258676
 23
3.132412
 33
0.0
  0
SOLID
  5
26C
100
AcDbEntity
  8
NETWORK
 62
   253
100
AcDbTrace
 10
2.565246
 20
3.251931
 30
0.0
 11
2.258676
 21
3.132412
 31
0.0
 12
2.332582
 22
3.103599
 32
0.0
 13
2.332582
 23
3.103599
 33
0.0
  0
SOLID
  5
26D
100
AcDbEntity
  8
NETWORK
 62
   253
100
AcDbTrace
 10
2.565246
 20
3.251931
 30
0.0
 11
2.332582
 21
3.103599
 31
0.0
 12
2.42173
 22
3.097485
 32
0.0
 13
2.42173
 23
3.097485
 33
0.0
  0
SOLID
  5
26E
100
AcDbEntity
  8
NETWORK
 62
   253
100
AcDbTrace
 10
2.565246
 20
3.251931
 30
0.0
 11
2.42173
 21
3.097485
 31
0.0
 12
2.505696
 22
3.115471
 32
0.0
 13
2.505696
 23
3.115471
 33
0.0
  0
SOLID
  5
26F
100
AcDbEntity
  8
NETWORK
 62
   253
100
AcDbTrace
 10
2.565246
 20
3.251931
 30
0.0
 11
2.505696
 21
3.115471
 31
0.0
 12
2.565246
 22
3.153436
 32
0.0
 13
2.565246
 23
3.153436
 33
0.0
  0
SOLID
  5
270
100
AcDbEntity
  8
NETWORK
 62
   253
100
AcDbTrace
 10
2.565246
 20
3.251931
 30
0.0
 11
2.565246
 21
3.153436
 31
0.0
 12
2.586737
 22
3.202684
 32
0.0
 13
2.586737
 23
3.202684
 33
0.0
  0
POLYLINE
  5
271
100
AcDbEntity
  8
NETWORK
  6
CONTINUOUS
 62
     7
100
AcDb2dPolyline
 66
     1
 10
0.0
 20
0.0
 30
0.0
 70
     1
  0
VERTEX
  5
272
100
AcDbEntity
  8
NETWORK
  6
CONTINUOUS
 62
     7
100
AcDbVertex
100
AcDb2dVertex
 10
2.586737
 20
3.202684
 30
0.0
 42
0.159526
  0
VERTEX
  5
273
100
AcDbEntity
  8
NETWORK
  6
CONTINUOUS
 62
     7
100
AcDbVertex
100
AcDb2dVertex
 10
2.572455
 20
3.243237
 30
0.0
 42
0.106369
  0
VERTEX
  5
274
100
AcDbEntity
  8
NETWORK
  6
CONTINUOUS
 62
     7
100
AcDbVertex
100
AcDb2dVertex
 10
2.531784
 20
3.277617
 30
0.0
 42
0.071201
  0
VERTEX
  5
275
100
AcDbEntity
  8
NETWORK
  6
CONTINUOUS
 62
     7
100
AcDbVertex
100
AcDb2dVertex
 10
2.470914
 20
3.300589
 30
0.0
 42
0.057518
  0
VERTEX
  5
276
100
AcDbEntity
  8
NETWORK
  6
CONTINUOUS
 62
     7
100
AcDbVertex
100
AcDb2dVertex
 10
2.399114
 20
3.308655
 30
0.0
 42
0.057518
  0
VERTEX
  5
277
100
AcDbEntity
  8
NETWORK
  6
CONTINUOUS
 62
     7
100
AcDbVertex
100
AcDb2dVertex
 10
2.327314
 20
3.300589
 30
0.0
 42
0.071201
  0
VERTEX
  5
278
100
AcDbEntity
  8
NETWORK
  6
CONTINUOUS
 62
     7
100
AcDbVertex
100
AcDb2dVertex
 10
2.266445
 20
3.277617
 30
0.0
 42
0.106369
  0
VERTEX
  5
279
100
AcDbEntity
  8
NETWORK
  6
CONTINUOUS
 62
     7
100
AcDbVertex
100
AcDb2dVertex
 10
2.225773
 20
3.243237
 30
0.0
 42
0.159526
  0
VERTEX
  5
27A
100
AcDbEntity
  8
NETWORK
  6
CONTINUOUS
 62
     7
100
AcDbVertex
100
AcDb2dVertex
 10
2.211491
 20
3.202684
 30
0.0
 42
0.159526
  0
VERTEX
  5
27B
100
AcDbEntity
  8
NETWORK
  6
CONTINUOUS
 62
     7
100
AcDbVertex
100
AcDb2dVertex
 10
2.225773
 20
3.16213
 30
0.0
 42
0.106369
  0
VERTEX
  5
27C
100
AcDbEntity
  8
NETWORK
  6
CONTINUOUS
 62
     7
100
AcDbVertex
100
AcDb2dVertex
 10
2.266445
 20
3.127751
 30
0.0
 42
0.071201
  0
VERTEX
  5
27D
100
AcDbEntity
  8
NETWORK
  6
CONTINUOUS
 62
     7
100
AcDbVertex
100
AcDb2dVertex
 10
2.327314
 20
3.104779
 30
0.0
 42
0.057518
  0
VERTEX
  5
27E
100
AcDbEntity
  8
NETWORK
  6
CONTINUOUS
 62
     7
100
AcDbVertex
100
AcDb2dVertex
 10
2.399114
 20
3.096712
 30
0.0
 42
0.057518
  0
VERTEX
  5
27F
100
AcDbEntity
  8
NETWORK
  6
CONTINUOUS
 62
     7
100
AcDbVertex
100
AcDb2dVertex
 10
2.470914
 20
3.104779
 30
0.0
 42
0.071201
  0
VERTEX
  5
280
100
AcDbEntity
  8
NETWORK
  6
CONTINUOUS
 62
     7
100
AcDbVertex
100
AcDb2dVertex
 10
2.531784
 20
3.127751
 30
0.0
 42
0.106369
  0
VERTEX
  5
281
100
AcDbEntity
  8
NETWORK
  6
CONTINUOUS
 62
     7
100
AcDbVertex
100
AcDb2dVertex
 10
2.572455
 20
3.16213
 30
0.0
 42
0.159526
  0
SEQEND
  5
282
100
AcDbEntity
  8
NETWORK
  6
CONTINUOUS
 62
     7
  0
SOLID
  5
283
100
AcDbEntity
  8
NETWORK
 62
   253
100
AcDbTrace
 10
2.849409
 20
4.571635
 30
0.0
 11
2.888544
 21
4.610587
 31
0.0
 12
2.943221
 22
4.609907
 32
0.0
 13
2.943221
 23
4.609907
 33
0.0
  0
SOLID
  5
284
100
AcDbEntity
  8
NETWORK
 62
   253
100
AcDbTrace
 10
2.849409
 20
4.571635
 30
0.0
 11
2.943221
 21
4.609907
 31
0.0
 12
2.961983
 22
4.762995
 32
0.0
 13
2.961983
 23
4.762995
 33
0.0
  0
SOLID
  5
285
100
AcDbEntity
  8
NETWORK
 62
   253
100
AcDbTrace
 10
2.849409
 20
4.571635
 30
0.0
 11
2.961983
 21
4.762995
 31
0.0
 12
2.878866
 22
4.76896
 32
0.0
 13
2.878866
 23
4.76896
 33
0.0
  0
SOLID
  5
286
100
AcDbEntity
  8
NETWORK
 62
   253
100
AcDbTrace
 10
2.849409
 20
4.571635
 30
0.0
 11
2.878866
 21
4.76896
 31
0.0
 12
2.79982
 22
4.742087
 32
0.0
 13
2.79982
 23
4.742087
 33
0.0
  0
SOLID
  5
287
100
AcDbEntity
  8
NETWORK
 62
   253
100
AcDbTrace
 10
2.849409
 20
4.571635
 30
0.0
 11
2.79982
 21
4.742087
 31
0.0
 12
2.736836
 22
4.686451
 32
0.0
 13
2.736836
 23
4.686451
 33
0.0
  0
POLYLINE
  5
288
100
AcDbEntity
  8
NETWORK
  6
CONTINUOUS
 62
     7
100
AcDb2dPolyline
 66
     1
 10
0.0
 20
0.0
 30
0.0
 70
     1
  0
VERTEX
  5
289
100
AcDbEntity
  8
NETWORK
  6
CONTINUOUS
 62
     7
100
AcDbVertex
100
AcDb2dVertex
 10
2.736836
 20
4.686451
 30
0.0
  0
VERTEX
  5
28A
100
AcDbEntity
  8
NETWORK
  6
CONTINUOUS
 62
     7
100
AcDbVertex
100
AcDb2dVertex
 10
2.849409
 20
4.571635
 30
0.0
 42
-0.097793
  0
VERTEX
  5
28B
100
AcDbEntity
  8
NETWORK
  6
CONTINUOUS
 62
     7
100
AcDbVertex
100
AcDb2dVertex
 10
2.865178
 20
4.59508
 30
0.0
 42
-0.099251
  0
VERTEX
  5
28C
100
AcDbEntity
  8
NETWORK
  6
CONTINUOUS
 62
     7
100
AcDbVertex
100
AcDb2dVertex
 10
2.888544
 20
4.610587
 30
0.0
 42
-0.100282
  0
VERTEX
  5
28D
100
AcDbEntity
  8
NETWORK
  6
CONTINUOUS
 62
     7
100
AcDbVertex
100
AcDb2dVertex
 10
2.915948
 20
4.615793
 30
0.0
 42
-0.100245
  0
VERTEX
  5
28E
100
AcDbEntity
  8
NETWORK
  6
CONTINUOUS
 62
     7
100
AcDbVertex
100
AcDb2dVertex
 10
2.943221
 20
4.609907
 30
0.0
  0
VERTEX
  5
28F
100
AcDbEntity
  8
NETWORK
  6
CONTINUOUS
 62
     7
100
AcDbVertex
100
AcDb2dVertex
 10
2.961983
 20
4.762995
 30
0.0
 42
0.100216
  0
VERTEX
  5
290
100
AcDbEntity
  8
NETWORK
  6
CONTINUOUS
 62
     7
100
AcDbVertex
100
AcDb2dVertex
 10
2.878866
 20
4.76896
 30
0.0
 42
0.099842
  0
VERTEX
  5
291
100
AcDbEntity
  8
NETWORK
  6
CONTINUOUS
 62
     7
100
AcDbVertex
100
AcDb2dVertex
 10
2.79982
 20
4.742087
 30
0.0
 42
0.09857
  0
SEQEND
  5
292
100
AcDbEntity
  8
NETWORK
  6
CONTINUOUS
 62
     7
  0
SOLID
  5
293
100
AcDbEntity
  8
NETWORK
 62
   253
100
AcDbTrace
 10
2.699311
 20
4.428114
 30
0.0
 11
2.72887
 21
4.347137
 31
0.0
 12
2.788776
 22
4.286037
 32
0.0
 13
2.788776
 23
4.286037
 33
0.0
  0
SOLID
  5
294
100
AcDbEntity
  8
NETWORK
 62
   253
100
AcDbTrace
 10
2.699311
 20
4.428114
 30
0.0
 11
2.788776
 21
4.286037
 31
0.0
 12
2.868172
 22
4.25589
 32
0.0
 13
2.868172
 23
4.25589
 33
0.0
  0
SOLID
  5
295
100
AcDbEntity
  8
NETWORK
 62
   253
100
AcDbTrace
 10
2.699311
 20
4.428114
 30
0.0
 11
2.868172
 21
4.25589
 31
0.0
 12
2.905696
 22
4.389842
 32
0.0
 13
2.905696
 23
4.389842
 33
0.0
  0
SOLID
  5
296
100
AcDbEntity
  8
NETWORK
 62
   253
100
AcDbTrace
 10
2.699311
 20
4.428114
 30
0.0
 11
2.905696
 21
4.389842
 31
0.0
 12
2.858206
 22
4.417951
 32
0.0
 13
2.858206
 23
4.417951
 33
0.0
  0
SOLID
  5
297
100
AcDbEntity
  8
NETWORK
 62
   253
100
AcDbTrace
 10
2.699311
 20
4.428114
 30
0.0
 11
2.858206
 21
4.417951
 31
0.0
 12
2.830647
 22
4.466386
 32
0.0
 13
2.830647
 23
4.466386
 33
0.0
  0
POLYLINE
  5
298
100
AcDbEntity
  8
NETWORK
  6
CONTINUOUS
 62
     7
100
AcDb2dPolyline
 66
     1
 10
0.0
 20
0.0
 30
0.0
 70
     1
  0
VERTEX
  5
299
100
AcDbEntity
  8
NETWORK
  6
CONTINUOUS
 62
     7
100
AcDbVertex
100
AcDb2dVertex
 10
2.830647
 20
4.466386
 30
0.0
  0
VERTEX
  5
29A
100
AcDbEntity
  8
NETWORK
  6
CONTINUOUS
 62
     7
100
AcDbVertex
100
AcDb2dVertex
 10
2.699311
 20
4.428114
 30
0.0
 42
0.106097
  0
VERTEX
  5
29B
100
AcDbEntity
  8
NETWORK
  6
CONTINUOUS
 62
     7
100
AcDbVertex
100
AcDb2dVertex
 10
2.72887
 20
4.347137
 30
0.0
 42
0.107645
  0
VERTEX
  5
29C
100
AcDbEntity
  8
NETWORK
  6
CONTINUOUS
 62
     7
100
AcDbVertex
100
AcDb2dVertex
 10
2.788776
 20
4.286037
 30
0.0
 42
0.109236
  0
VERTEX
  5
29D
100
AcDbEntity
  8
NETWORK
  6
CONTINUOUS
 62
     7
100
AcDbVertex
100
AcDb2dVertex
 10
2.868172
 20
4.25589
 30
0.0
  0
VERTEX
  5
29E
100
AcDbEntity
  8
NETWORK
  6
CONTINUOUS
 62
     7
100
AcDbVertex
100
AcDb2dVertex
 10
2.905696
 20
4.389842
 30
0.0
 42
-0.087814
  0
VERTEX
  5
29F
100
AcDbEntity
  8
NETWORK
  6
CONTINUOUS
 62
     7
100
AcDbVertex
100
AcDb2dVertex
 10
2.872359
 20
4.40582
 30
0.0
 42
-0.086725
  0
VERTEX
  5
2A0
100
AcDbEntity
  8
NETWORK
  6
CONTINUOUS
 62
     7
100
AcDbVertex
100
AcDb2dVertex
 10
2.846313
 20
4.432385
 30
0.0
 42
-0.085663
  0
SEQEND
  5
2A1
100
AcDbEntity
  8
NETWORK
  6
CONTINUOUS
 62
     7
  0
SOLID
  5
2A2
100
AcDbEntity
  8
NETWORK
 62
   253
100
AcDbTrace
 10
2.249016
 20
4.533363
 30
0.0
 11
2.347253
 21
4.499419
 31
0.0
 12
2.450975
 22
4.499419
 32
0.0
 13
2.450975
 23
4.499419
 33
0.0
  0
SOLID
  5
2A3
100
AcDbEntity
  8
NETWORK
 62
   253
100
AcDbTrace
 10
2.249016
 20
4.533363
 30
0.0
 11
2.450975
 21
4.499419
 31
0.0
 12
2.549213
 22
4.533363
 32
0.0
 13
2.549213
 23
4.533363
 33
0.0
  0
SOLID
  5
2A4
100
AcDbEntity
  8
NETWORK
 62
   253
100
AcDbTrace
 10
2.249016
 20
4.533363
 30
0.0
 11
2.549213
 21
4.533363
 31
0.0
 12
2.586737
 22
4.724723
 32
0.0
 13
2.586737
 23
4.724723
 33
0.0
  0
SOLID
  5
2A5
100
AcDbEntity
  8
NETWORK
 62
   253
100
AcDbTrace
 10
2.249016
 20
4.533363
 30
0.0
 11
2.586737
 21
4.724723
 31
0.0
 12
2.462623
 22
4.75226
 32
0.0
 13
2.462623
 23
4.75226
 33
0.0
  0
SOLID
  5
2A6
100
AcDbEntity
  8
NETWORK
 62
   253
100
AcDbTrace
 10
2.249016
 20
4.533363
 30
0.0
 11
2.462623
 21
4.75226
 31
0.0
 12
2.335606
 22
4.75226
 32
0.0
 13
2.335606
 23
4.75226
 33
0.0
  0
SOLID
  5
2A7
100
AcDbEntity
  8
NETWORK
 62
   253
100
AcDbTrace
 10
2.249016
 20
4.533363
 30
0.0
 11
2.335606
 21
4.75226
 31
0.0
 12
2.211491
 22
4.724723
 32
0.0
 13
2.211491
 23
4.724723
 33
0.0
  0
POLYLINE
  5
2A8
100
AcDbEntity
  8
NETWORK
  6
CONTINUOUS
 62
     7
100
AcDb2dPolyline
 66
     1
 10
0.0
 20
0.0
 30
0.0
 70
     1
  0
VERTEX
  5
2A9
100
AcDbEntity
  8
NETWORK
  6
CONTINUOUS
 62
     7
100
AcDbVertex
100
AcDb2dVertex
 10
2.211491
 20
4.724723
 30
0.0
  0
VERTEX
  5
2AA
100
AcDbEntity
  8
NETWORK
  6
CONTINUOUS
 62
     7
100
AcDbVertex
100
AcDb2dVertex
 10
2.249016
 20
4.533363
 30
0.0
 42
0.125196
  0
VERTEX
  5
2AB
100
AcDbEntity
  8
NETWORK
  6
CONTINUOUS
 62
     7
100
AcDbVertex
100
AcDb2dVertex
 10
2.399114
 20
4.495091
 30
0.0
 42
0.125196
  0
VERTEX
  5
2AC
100
AcDbEntity
  8
NETWORK
  6
CONTINUOUS
 62
     7
100
AcDbVertex
100
AcDb2dVertex
 10
2.549213
 20
4.533363
 30
0.0
  0
VERTEX
  5
2AD
100
AcDbEntity
  8
NETWORK
  6
CONTINUOUS
 62
     7
100
AcDbVertex
100
AcDb2dVertex
 10
2.586737
 20
4.724723
 30
0.0
 42
0.081997
  0
VERTEX
  5
2AE
100
AcDbEntity
  8
NETWORK
  6
CONTINUOUS
 62
     7
100
AcDbVertex
100
AcDb2dVertex
 10
2.399114
 20
4.755732
 30
0.0
 42
0.081997
  0
SEQEND
  5
2AF
100
AcDbEntity
  8
NETWORK
  6
CONTINUOUS
 62
     7
  0
TEXT
  5
2B1
100
AcDbEntity
  8
NETWORK
 62
     7
100
AcDbText
 10
1.969716
 20
2.541054
 30
0.0
 40
0.111111
  1
Cell phone
  7
_NET_TEXT
 72
     1
 11
2.399114
 21
2.582721
 31
0.0
100
AcDbText
 73
     2
  0
ENDBLK
  5
2B3
100
AcDbEntity
  8
0
100
AcDbBlockEnd
  0
ENDSEC
  0
SECTION
  2
ENTITIES
  0
INSERT
  5
2B4
100
AcDbEntity
  8
NETWORK
100
AcDbBlockReference
 66
     1
  2
CELL_PHONE
 10
2.399114
 20
5.07874
 30
0.0
  0
ATTRIB
  5
2B5
100
AcDbEntity
  8
NETWORK
100
AcDbText
 10
2.399114
 20
52.70374
 30
0.0
 40
6.35
  1

100
AcDbAttribute
  2
MANUFACTURER
 70
     1
  0
ATTRIB
  5
2B6
100
AcDbEntity
  8
NETWORK
100
AcDbText
 10
2.399114
 20
43.17874
 30
0.0
 40
6.35
  1

100
AcDbAttribute
  2
PRODUCTNUMBER
 70
     1
  0
ATTRIB
  5
2B7
100
AcDbEntity
  8
NETWORK
100
AcDbText
 10
2.399114
 20
33.65374
 30
0.0
 40
6.35
  1

100
AcDbAttribute
  2
PARTNUMBER
 70
     1
  0
ATTRIB
  5
2B8
100
AcDbEntity
  8
NETWORK
100
AcDbText
 10
2.399114
 20
24.12874
 30
0.0
 40
6.35
  1

100
AcDbAttribute
  2
PRODUCTDESCRIPTION
 70
     1
  0
ATTRIB
  5
2B9
100
AcDbEntity
  8
NETWORK
100
AcDbText
 10
2.399114
 20
14.60374
 30
0.0
 40
6.35
  1

100
AcDbAttribute
  2
ASSETNUMBER
 70
     1
  0
ATTRIB
  5
2BA
100
AcDbEntity
  8
NETWORK
100
AcDbText
 10
2.399114
 20
5.07874
 30
0.0
 40
6.35
  1

100
AcDbAttribute
  2
SERIALNUMBER
 70
     1
  0
ATTRIB
  5
2BB
100
AcDbEntity
  8
NETWORK
100
AcDbText
 10
2.399114
 20
-4.44626
 30
0.0
 40
6.35
  1

100
AcDbAttribute
  2
LOCATION
 70
     1
  0
ATTRIB
  5
2BC
100
AcDbEntity
  8
NETWORK
100
AcDbText
 10
2.399114
 20
-13.97126
 30
0.0
 40
6.35
  1

100
AcDbAttribute
  2
BUILDING
 70
     1
  0
ATTRIB
  5
2BD
100
AcDbEntity
  8
NETWORK
100
AcDbText
 10
2.399114
 20
-23.49626
 30
0.0
 40
6.35
  1

100
AcDbAttribute
  2
ROOM
 70
     1
  0
ATTRIB
  5
2BE
100
AcDbEntity
  8
NETWORK
100
AcDbText
 10
2.399114
 20
-33.02126
 30
0.0
 40
6.35
  1

100
AcDbAttribute
  2
DEPARTMENT
 70
     1
  0
SEQEND
  5
2BF
100
AcDbEntity
  8
NETWORK
  0
ENDSEC
  0
SECTION
  2
OBJECTS
  0
DICTIONARY
  5
C
100
AcDbDictionary
  3
ACAD_GROUP
350
D
  3
ACAD_MLINESTYLE
350
1B
  0
DICTIONARY
  5
D
102
{ACAD_REACTORS
330
C
102
}
100
AcDbDictionary
  0
DICTIONARY
  5
1B
102
{ACAD_REACTORS
330
C
102
}
100
AcDbDictionary
  3
STANDARD
350
1C
  0
MLINESTYLE
  5
1C
102
{ACAD_REACTORS
330
1B
102
}
100
AcDbMlineStyle
  2
STANDARD
 70
     0
  3

 62
   256
 51
90.0
 52
90.0
 71
     2
 49
0.5
 62
   256
  6
BYLAYER
 49
-0.5
 62
   256
  6
BYLAYER
  0
ENDSEC
  0
EOF
