  0
SECTION
  2
HEADER
  9
$ACADVER
  1
AC1014
  9
$ACADMAINTVER
 70
     0
  9
$DWGCODEPAGE
  3
ANSI_1252
  9
$INSBASE
 10
0.0
 20
0.0
 30
0.0
  9
$EXTMIN
 10
0.0
 20
0.0
 30
0.0
  9
$EXTMAX
 10
11.692913
 20
8.267717
 30
0.0
  9
$LIMMIN
 10
0.0
 20
0.0
  9
$LIMMAX
 10
12.0
 20
9.0
  9
$ORTHOMODE
 70
     0
  9
$REGENMODE
 70
     1
  9
$FILLMODE
 70
     1
  9
$QTEXTMODE
 70
     0
  9
$MIRRTEXT
 70
     1
  9
$DRAGMODE
 70
     2
  9
$LTSCALE
 40
1.0
  9
$OSMODE
 70
     0
  9
$ATTMODE
 70
     1
  9
$TEXTSIZE
 40
0.2
  9
$TRACEWID
 40
0.05
  9
$TEXTSTYLE
  7
STANDARD
  9
$CLAYER
  8
0
  9
$CELTYPE
  6
BYLAYER
  9
$CECOLOR
 62
   256
  9
$CELTSCALE
 40
1.0
  9
$DELOBJ
 70
     1
  9
$DISPSILH
 70
     0
  9
$DIMSCALE
 40
1.0
  9
$DIMASZ
 40
0.18
  9
$DIMEXO
 40
0.0625
  9
$DIMDLI
 40
0.38
  9
$DIMRND
 40
0.0
  9
$DIMDLE
 40
0.0
  9
$DIMEXE
 40
0.18
  9
$DIMTP
 40
0.0
  9
$DIMTM
 40
0.0
  9
$DIMTXT
 40
0.18
  9
$DIMCEN
 40
0.09
  9
$DIMTSZ
 40
0.0
  9
$DIMTOL
 70
     0
  9
$DIMLIM
 70
     0
  9
$DIMTIH
 70
     1
  9
$DIMTOH
 70
     1
  9
$DIMSE1
 70
     0
  9
$DIMSE2
 70
     0
  9
$DIMTAD
 70
     0
  9
$DIMZIN
 70
     0
  9
$DIMBLK
  1

  9
$DIMASO
 70
     1
  9
$DIMSHO
 70
     1
  9
$DIMPOST
  1

  9
$DIMAPOST
  1

  9
$DIMALT
 70
     0
  9
$DIMALTD
 70
     2
  9
$DIMALTF
 40
25.4
  9
$DIMLFAC
 40
1.0
  9
$DIMTOFL
 70
     0
  9
$DIMTVP
 40
0.0
  9
$DIMTIX
 70
     0
  9
$DIMSOXD
 70
     0
  9
$DIMSAH
 70
     0
  9
$DIMBLK1
  1

  9
$DIMBLK2
  1

  9
$DIMSTYLE
  2
STANDARD
  9
$DIMCLRD
 70
     0
  9
$DIMCLRE
 70
     0
  9
$DIMCLRT
 70
     0
  9
$DIMTFAC
 40
1.0
  9
$DIMGAP
 40
0.09
  9
$DIMJUST
 70
     0
  9
$DIMSD1
 70
     0
  9
$DIMSD2
 70
     0
  9
$DIMTOLJ
 70
     1
  9
$DIMTZIN
 70
     0
  9
$DIMALTZ
 70
     0
  9
$DIMALTTZ
 70
     0
  9
$DIMFIT
 70
     3
  9
$DIMUPT
 70
     0
  9
$DIMUNIT
 70
     2
  9
$DIMDEC
 70
     4
  9
$DIMTDEC
 70
     4
  9
$DIMALTU
 70
     2
  9
$DIMALTTD
 70
     2
  9
$DIMTXSTY
  7
STANDARD
  9
$DIMAUNIT
 70
     0
  9
$LUNITS
 70
     2
  9
$LUPREC
 70
     4
  9
$SKETCHINC
 40
0.1
  9
$FILLETRAD
 40
0.5
  9
$AUNITS
 70
     0
  9
$AUPREC
 70
     0
  9
$MENU
  1
.
  9
$ELEVATION
 40
0.0
  9
$PELEVATION
 40
0.0
  9
$THICKNESS
 40
0.0
  9
$LIMCHECK
 70
     0
  9
$BLIPMODE
 70
     0
  9
$CHAMFERA
 40
0.5
  9
$CHAMFERB
 40
0.5
  9
$CHAMFERC
 40
1.0
  9
$CHAMFERD
 40
0.0
  9
$SKPOLY
 70
     0
  9
$TDCREATE
 40
2450772.666465926
  9
$TDUPDATE
 40
2453226.522442118
  9
$TDINDWG
 40
0.0011564931
  9
$TDUSRTIMER
 40
0.0011564931
  9
$USRTIMER
 70
     1
  9
$ANGBASE
 50
0.0
  9
$ANGDIR
 70
     0
  9
$PDMODE
 70
     0
  9
$PDSIZE
 40
0.0
  9
$PLINEWID
 40
0.0
  9
$COORDS
 70
     1
  9
$SPLFRAME
 70
     0
  9
$SPLINETYPE
 70
     6
  9
$SPLINESEGS
 70
     8
  9
$ATTDIA
 70
     0
  9
$ATTREQ
 70
     1
  9
$HANDLING
 70
     1
  9
$HANDSEED
  5
9C
  9
$SURFTAB1
 70
     6
  9
$SURFTAB2
 70
     6
  9
$SURFTYPE
 70
     6
  9
$SURFU
 70
     6
  9
$SURFV
 70
     6
  9
$UCSNAME
  2

  9
$UCSORG
 10
0.0
 20
0.0
 30
0.0
  9
$UCSXDIR
 10
1.0
 20
0.0
 30
0.0
  9
$UCSYDIR
 10
0.0
 20
1.0
 30
0.0
  9
$PUCSNAME
  2

  9
$PUCSORG
 10
0.0
 20
0.0
 30
0.0
  9
$PUCSXDIR
 10
1.0
 20
0.0
 30
0.0
  9
$PUCSYDIR
 10
0.0
 20
1.0
 30
0.0
  9
$USERI1
 70
     0
  9
$USERI2
 70
     0
  9
$USERI3
 70
     0
  9
$USERI4
 70
     0
  9
$USERI5
 70
     0
  9
$USERR1
 40
0.0
  9
$USERR2
 40
0.0
  9
$USERR3
 40
0.0
  9
$USERR4
 40
0.0
  9
$USERR5
 40
0.0
  9
$WORLDVIEW
 70
     1
  9
$SHADEDGE
 70
     3
  9
$SHADEDIF
 70
    70
  9
$TILEMODE
 70
     1
  9
$MAXACTVP
 70
    48
  9
$PINSBASE
 10
0.0
 20
0.0
 30
0.0
  9
$PLIMCHECK
 70
     0
  9
$PEXTMIN
 10
1.000000E+20
 20
1.000000E+20
 30
1.000000E+20
  9
$PEXTMAX
 10
-1.000000E+20
 20
-1.000000E+20
 30
-1.000000E+20
  9
$PLIMMIN
 10
0.0
 20
0.0
  9
$PLIMMAX
 10
12.0
 20
9.0
  9
$UNITMODE
 70
     0
  9
$VISRETAIN
 70
     1
  9
$PLINEGEN
 70
     0
  9
$PSLTSCALE
 70
     1
  9
$TREEDEPTH
 70
  3020
  9
$PICKSTYLE
 70
     1
  9
$CMLSTYLE
  2
STANDARD
  9
$CMLJUST
 70
     0
  9
$CMLSCALE
 40
1.0
  9
$PROXYGRAPHICS
 70
     1
  9
$MEASUREMENT
 70
     0
  0
ENDSEC
  0
SECTION
  2
CLASSES
  0
CLASS
  1
LWPOLYLINE
  2
AcDbPolyline
  3
"AutoCAD"
 90
        0
280
     0
281
     1
  0
CLASS
  1
IMAGE
  2
AcDbRasterImage
  3
ISM
 90
      127
280
     0
281
     1
  0
CLASS
  1
OLE2FRAME
  2
AcDbOle2Frame
  3
""
 90
        0
280
     0
281
     1
  0
CLASS
  1
HATCH
  2
AcDbHatch
  3
"ACAD_SEDONA"
 90
        0
280
     0
281
     1
  0
CLASS
  1
DICTIONARYVAR
  2
AcDbDictionaryVar
  3
"AutoCAD"
 90
        0
280
     0
281
     0
  0
CLASS
  1
RASTERVARIABLES
  2
AcDbRasterVariables
  3
ISM
 90
        0
280
     0
281
     0
  0
CLASS
  1
IMAGEDEF
  2
AcDbRasterImageDef
  3
ISM
 90
        0
280
     0
281
     0
  0
CLASS
  1
IMAGEDEF_REACTOR
  2
AcDbRasterImageDefReactor
  3
ISM
 90
        1
280
     0
281
     0
  0
CLASS
  1
IDBUFFER
  2
AcDbIdBuffer
  3
"Acad"
 90
        0
280
     0
281
     0
  0
CLASS
  1
SPATIAL_FILTER
  2
AcDbSpatialFilter
  3
"Acad"
 90
        0
280
     0
281
     0
  0
CLASS
  1
XRECORD
  2
AcDbXrecord
  3
"<Built In>"
 90
        0
280
     0
281
     0
  0
CLASS
  1
SORTENTSTABLE
  2
AcDbSortentsTable
  3
"AutoCAD"
 90
        0
280
     0
281
     0
  0
CLASS
  1
LAYER_INDEX
  2
AcDbLayerIndex
  3
"Acad"
 90
        0
280
     0
281
     0
  0
CLASS
  1
SPATIAL_INDEX
  2
AcDbSpatialIndex
  3
"Acad"
 90
        0
280
     0
281
     0
  0
CLASS
  1
OBJECT_PTR
  2
CAseDLPNTableRecord
  3
"ASE-LPNTableRecord"
 90
        1
280
     0
281
     0
  0
CLASS
  1
LAYOUT
  2
AcDbLayout
  3
"AutoCAD 2000"
 90
        1
280
     0
281
     0
  0
CLASS
  1
PLOTSETTINGS
  2
AcDbPlotSettings
  3
"AutoCAD 2000"
 90
        1
280
     0
281
     0
  0
CLASS
  1
ACDBDICTIONARYWDFLT
  2
AcDbDictionaryWithDefault
  3
"AutoCAD 2000"
 90
        1
280
     0
281
     0
  0
CLASS
  1
ACDBPLACEHOLDER
  2
AcDbPlaceHolder
  3
"AutoCAD 2000"
 90
        1
280
     0
281
     0
  0
CLASS
  1
VBA_PROJECT
  2
AcDbVbaProject
  3
"acadvba"
 90
        1
280
     0
281
     0
  0
CLASS
  1
WIPEOUT
  2
AcDbWipeout
  3
WipeOut|AutoCAD Express Tool|expresstools@autodesk.com
 90
      127
280
     0
281
     1
  0
CLASS
  1
WIPEOUTVARIABLES
  2
AcDbWipeoutVariables
  3
WipeOut|AutoCAD Express Tool|expresstools@autodesk.com
 90
        0
280
     0
281
     0
  0
CLASS
  1
RTEXT
  2
RText
  3
RText|AutoCAD Express Tool|expresstools@autodesk.com
 90
        0
280
     0
281
     1
  0
CLASS
  1
ARCALIGNEDTEXT
  2
AcDbArcAlignedText
  3
ATEXT|AutoCAD Express Tool|expresstools@autodesk.com
 90
        0
280
     0
281
     1
  0
ENDSEC
  0
SECTION
  2
TABLES
  0
TABLE
  2
VPORT
  5
8
100
AcDbSymbolTable
 70
     1
  0
VPORT
  5
25
100
AcDbSymbolTableRecord
100
AcDbViewportTableRecord
  2
*ACTIVE
 70
    64
 10
0.0
 20
0.0
 11
1.0
 21
1.0
 12
5.846457
 22
4.133858
 13
0.0
 23
0.0
 14
0.5
 24
0.5
 15
0.5
 25
0.5
 16
0.0
 26
0.0
 36
1.0
 17
0.0
 27
0.0
 37
0.0
 40
8.267717
 41
1.414286
 42
50.0
 43
0.0
 44
0.0
 50
0.0
 51
0.0
 71
     0
 72
   100
 73
     1
 74
     1
 75
     0
 76
     0
 77
     0
 78
     0
  0
ENDTAB
  0
TABLE
  2
LTYPE
  5
5
100
AcDbSymbolTable
 70
     3
  0
LTYPE
  5
12
100
AcDbSymbolTableRecord
100
AcDbLinetypeTableRecord
  2
BYBLOCK
 70
    64
  3

 72
    65
 73
     0
 40
0.0
  0
LTYPE
  5
13
100
AcDbSymbolTableRecord
100
AcDbLinetypeTableRecord
  2
BYLAYER
 70
    64
  3

 72
    65
 73
     0
 40
0.0
  0
LTYPE
  5
14
100
AcDbSymbolTableRecord
100
AcDbLinetypeTableRecord
  2
CONTINUOUS
 70
    64
  3
Solid line
 72
    65
 73
     0
 40
0.0
  0
ENDTAB
  0
TABLE
  2
LAYER
  5
2
100
AcDbSymbolTable
 70
     2
  0
LAYER
  5
E
100
AcDbSymbolTableRecord
100
AcDbLayerTableRecord
  2
0
 70
    64
 62
     7
  6
CONTINUOUS
  0
LAYER
  5
2E
100
AcDbSymbolTableRecord
100
AcDbLayerTableRecord
  2
NETWORK
 70
     0
 62
     7
  6
CONTINUOUS
  0
ENDTAB
  0
TABLE
  2
STYLE
  5
3
100
AcDbSymbolTable
 70
     2
  0
STYLE
  5
F
100
AcDbSymbolTableRecord
100
AcDbTextStyleTableRecord
  2
STANDARD
 70
    64
 40
0.0
 41
1.0
 50
0.0
 71
     0
 42
0.2
  3
txt.shx
  4

  0
STYLE
  5
8C
100
AcDbSymbolTableRecord
100
AcDbTextStyleTableRecord
  2
_NET_TEXT
 70
     0
 40
0.0
 41
1.0
 50
0.0
 71
     0
 42
0.2
  3
arial.ttf
  4

1001
ACAD
1000
Arial
1071
 50331647
  0
ENDTAB
  0
TABLE
  2
VIEW
  5
6
100
AcDbSymbolTable
 70
     0
  0
ENDTAB
  0
TABLE
  2
UCS
  5
7
100
AcDbSymbolTable
 70
     0
  0
ENDTAB
  0
TABLE
  2
APPID
  5
9
100
AcDbSymbolTable
 70
     1
  0
APPID
  5
10
100
AcDbSymbolTableRecord
100
AcDbRegAppTableRecord
  2
ACAD
 70
    64
  0
ENDTAB
  0
TABLE
  2
DIMSTYLE
  5
A
100
AcDbSymbolTable
 70
     1
  0
DIMSTYLE
105
1D
100
AcDbSymbolTableRecord
100
AcDbDimStyleTableRecord
  2
STANDARD
 70
    64
  3

  4

  5

  6

  7

 40
1.0
 41
0.18
 42
0.0625
 43
0.38
 44
0.18
 45
0.0
 46
0.0
 47
0.0
 48
0.0
 71
     0
 72
     0
 73
     1
 74
     1
 75
     0
 76
     0
 77
     0
 78
     0
140
0.18
141
0.09
142
0.0
143
25.4
144
1.0
145
0.0
146
1.0
147
0.09
170
     0
171
     2
172
     0
173
     0
174
     0
175
     0
176
     0
177
     0
178
     0
270
     2
271
     4
272
     4
273
     2
274
     2
275
     0
280
     0
281
     0
282
     0
283
     1
284
     0
285
     0
286
     0
287
     3
288
     0
340
F
  0
ENDTAB
  0
TABLE
  2
BLOCK_RECORD
  5
1
100
AcDbSymbolTable
 70
     1
  0
BLOCK_RECORD
  5
18
100
AcDbSymbolTableRecord
100
AcDbBlockTableRecord
  2
*MODEL_SPACE
  0
BLOCK_RECORD
  5
15
100
AcDbSymbolTableRecord
100
AcDbBlockTableRecord
  2
*PAPER_SPACE
  0
BLOCK_RECORD
  5
8E
100
AcDbSymbolTableRecord
100
AcDbBlockTableRecord
  2
FLAT_SCREEN_MONITOR
  0
ENDTAB
  0
ENDSEC
  0
SECTION
  2
BLOCKS
  0
BLOCK
  5
19
100
AcDbEntity
  8
0
100
AcDbBlockBegin
  2
*MODEL_SPACE
 70
     0
 10
0.0
 20
0.0
 30
0.0
  3
*MODEL_SPACE
  1

  0
ENDBLK
  5
1A
100
AcDbEntity
  8
0
100
AcDbBlockEnd
  0
BLOCK
  5
16
100
AcDbEntity
 67
     1
  8
0
100
AcDbBlockBegin
  2
*PAPER_SPACE
 70
     0
 10
0.0
 20
0.0
 30
0.0
  3
*PAPER_SPACE
  1

  0
ENDBLK
  5
17
100
AcDbEntity
 67
     1
  8
0
100
AcDbBlockEnd
  0
BLOCK
  5
2D
100
AcDbEntity
  8
0
100
AcDbBlockBegin
  2
FLAT_SCREEN_MONITOR
 70
    66
 10
3.740157
 20
4.625984
 30
0.0
  3
FLAT_SCREEN_MONITOR
  1

  0
ATTDEF
  5
2F
100
AcDbEntity
  8
NETWORK
100
AcDbText
 10
3.740157
 20
52.250984
 30
0.0
 40
6.35
  1

100
AcDbAttributeDefinition
  3
Enter the manufacturer name.
  2
MANUFACTURER
 70
     1
  0
ATTDEF
  5
30
100
AcDbEntity
  8
NETWORK
100
AcDbText
 10
3.740157
 20
42.725984
 30
0.0
 40
6.35
  1

100
AcDbAttributeDefinition
  3
Enter the product number.
  2
PRODUCTNUMBER
 70
     1
  0
ATTDEF
  5
31
100
AcDbEntity
  8
NETWORK
100
AcDbText
 10
3.740157
 20
33.200984
 30
0.0
 40
6.35
  1

100
AcDbAttributeDefinition
  3
Enter the part number.
  2
PARTNUMBER
 70
     1
  0
ATTDEF
  5
32
100
AcDbEntity
  8
NETWORK
100
AcDbText
 10
3.740157
 20
23.675984
 30
0.0
 40
6.35
  1

100
AcDbAttributeDefinition
  3
Enter the product description.
  2
PRODUCTDESCRIPTION
 70
     1
  0
ATTDEF
  5
33
100
AcDbEntity
  8
NETWORK
100
AcDbText
 10
3.740157
 20
14.150984
 30
0.0
 40
6.35
  1

100
AcDbAttributeDefinition
  3
Enter the asset ID.
  2
ASSETNUMBER
 70
     1
  0
ATTDEF
  5
34
100
AcDbEntity
  8
NETWORK
100
AcDbText
 10
3.740157
 20
4.625984
 30
0.0
 40
6.35
  1

100
AcDbAttributeDefinition
  3
Enter the serial number.
  2
SERIALNUMBER
 70
     1
  0
ATTDEF
  5
35
100
AcDbEntity
  8
NETWORK
100
AcDbText
 10
3.740157
 20
-4.899016
 30
0.0
 40
6.35
  1

100
AcDbAttributeDefinition
  3
Enter the location.
  2
LOCATION
 70
     1
  0
ATTDEF
  5
36
100
AcDbEntity
  8
NETWORK
100
AcDbText
 10
3.740157
 20
-14.424016
 30
0.0
 40
6.35
  1

100
AcDbAttributeDefinition
  3
Enter the building.
  2
BUILDING
 70
     1
  0
ATTDEF
  5
37
100
AcDbEntity
  8
NETWORK
100
AcDbText
 10
3.740157
 20
-23.949016
 30
0.0
 40
6.35
  1

100
AcDbAttributeDefinition
  3
Enter the room.
  2
ROOM
 70
     1
  0
ATTDEF
  5
38
100
AcDbEntity
  8
NETWORK
100
AcDbText
 10
3.740157
 20
-33.474016
 30
0.0
 40
6.35
  1

100
AcDbAttributeDefinition
  3
Enter the department.
  2
DEPARTMENT
 70
     1
  0
SOLID
  5
39
100
AcDbEntity
  8
NETWORK
 62
   253
100
AcDbTrace
 10
4.800785
 20
3.661197
 30
0.0
 11
4.735539
 21
3.680143
 31
0.0
 12
4.629768
 22
3.697504
 32
0.0
 13
4.629768
 23
3.697504
 33
0.0
  0
SOLID
  5
3A
100
AcDbEntity
  8
NETWORK
 62
   253
100
AcDbTrace
 10
4.800785
 20
3.661197
 30
0.0
 11
4.629768
 21
3.697504
 31
0.0
 12
4.487801
 22
3.71257
 32
0.0
 13
4.487801
 23
3.71257
 33
0.0
  0
SOLID
  5
3B
100
AcDbEntity
  8
NETWORK
 62
   253
100
AcDbTrace
 10
4.800785
 20
3.661197
 30
0.0
 11
4.487801
 21
3.71257
 31
0.0
 12
4.315452
 22
3.724724
 32
0.0
 13
4.315452
 23
3.724724
 33
0.0
  0
SOLID
  5
3C
100
AcDbEntity
  8
NETWORK
 62
   253
100
AcDbTrace
 10
4.800785
 20
3.661197
 30
0.0
 11
4.315452
 21
3.724724
 31
0.0
 12
4.119776
 22
3.733469
 32
0.0
 13
4.119776
 23
3.733469
 33
0.0
  0
SOLID
  5
3D
100
AcDbEntity
  8
NETWORK
 62
   253
100
AcDbTrace
 10
4.800785
 20
3.661197
 30
0.0
 11
4.119776
 21
3.733469
 31
0.0
 12
3.908784
 22
3.738446
 32
0.0
 13
3.908784
 23
3.738446
 33
0.0
  0
SOLID
  5
3E
100
AcDbEntity
  8
NETWORK
 62
   253
100
AcDbTrace
 10
4.800785
 20
3.661197
 30
0.0
 11
3.908784
 21
3.738446
 31
0.0
 12
3.691114
 22
3.739452
 32
0.0
 13
3.691114
 23
3.739452
 33
0.0
  0
SOLID
  5
3F
100
AcDbEntity
  8
NETWORK
 62
   253
100
AcDbTrace
 10
4.800785
 20
3.661197
 30
0.0
 11
3.691114
 21
3.739452
 31
0.0
 12
3.475678
 22
3.736445
 32
0.0
 13
3.475678
 23
3.736445
 33
0.0
  0
SOLID
  5
40
100
AcDbEntity
  8
NETWORK
 62
   253
100
AcDbTrace
 10
4.800785
 20
3.661197
 30
0.0
 11
3.475678
 21
3.736445
 31
0.0
 12
3.271295
 22
3.729549
 32
0.0
 13
3.271295
 23
3.729549
 33
0.0
  0
SOLID
  5
41
100
AcDbEntity
  8
NETWORK
 62
   253
100
AcDbTrace
 10
4.800785
 20
3.661197
 30
0.0
 11
3.271295
 21
3.729549
 31
0.0
 12
3.086334
 22
3.719045
 32
0.0
 13
3.086334
 23
3.719045
 33
0.0
  0
SOLID
  5
42
100
AcDbEntity
  8
NETWORK
 62
   253
100
AcDbTrace
 10
4.800785
 20
3.661197
 30
0.0
 11
3.086334
 21
3.719045
 31
0.0
 12
2.928366
 22
3.705365
 32
0.0
 13
2.928366
 23
3.705365
 33
0.0
  0
SOLID
  5
43
100
AcDbEntity
  8
NETWORK
 62
   253
100
AcDbTrace
 10
4.800785
 20
3.661197
 30
0.0
 11
2.928366
 21
3.705365
 31
0.0
 12
2.803858
 22
3.689068
 32
0.0
 13
2.803858
 23
3.689068
 33
0.0
  0
SOLID
  5
44
100
AcDbEntity
  8
NETWORK
 62
   253
100
AcDbTrace
 10
4.800785
 20
3.661197
 30
0.0
 11
2.803858
 21
3.689068
 31
0.0
 12
2.717908
 22
3.67082
 32
0.0
 13
2.717908
 23
3.67082
 33
0.0
  0
SOLID
  5
45
100
AcDbEntity
  8
NETWORK
 62
   253
100
AcDbTrace
 10
4.800785
 20
3.661197
 30
0.0
 11
2.717908
 21
3.67082
 31
0.0
 12
2.674035
 22
3.651371
 32
0.0
 13
2.674035
 23
3.651371
 33
0.0
  0
SOLID
  5
46
100
AcDbEntity
  8
NETWORK
 62
   253
100
AcDbTrace
 10
4.800785
 20
3.661197
 30
0.0
 11
2.674035
 21
3.651371
 31
0.0
 12
2.674035
 22
3.631514
 32
0.0
 13
2.674035
 23
3.631514
 33
0.0
  0
SOLID
  5
47
100
AcDbEntity
  8
NETWORK
 62
   253
100
AcDbTrace
 10
4.800785
 20
3.661197
 30
0.0
 11
2.674035
 21
3.631514
 31
0.0
 12
2.717908
 22
3.612064
 32
0.0
 13
2.717908
 23
3.612064
 33
0.0
  0
SOLID
  5
48
100
AcDbEntity
  8
NETWORK
 62
   253
100
AcDbTrace
 10
4.800785
 20
3.661197
 30
0.0
 11
2.717908
 21
3.612064
 31
0.0
 12
2.803858
 22
3.593817
 32
0.0
 13
2.803858
 23
3.593817
 33
0.0
  0
SOLID
  5
49
100
AcDbEntity
  8
NETWORK
 62
   253
100
AcDbTrace
 10
4.800785
 20
3.661197
 30
0.0
 11
2.803858
 21
3.593817
 31
0.0
 12
2.928366
 22
3.57752
 32
0.0
 13
2.928366
 23
3.57752
 33
0.0
  0
SOLID
  5
4A
100
AcDbEntity
  8
NETWORK
 62
   253
100
AcDbTrace
 10
4.800785
 20
3.661197
 30
0.0
 11
2.928366
 21
3.57752
 31
0.0
 12
3.086334
 22
3.563839
 32
0.0
 13
3.086334
 23
3.563839
 33
0.0
  0
SOLID
  5
4B
100
AcDbEntity
  8
NETWORK
 62
   253
100
AcDbTrace
 10
4.800785
 20
3.661197
 30
0.0
 11
3.086334
 21
3.563839
 31
0.0
 12
3.271295
 22
3.553336
 32
0.0
 13
3.271295
 23
3.553336
 33
0.0
  0
SOLID
  5
4C
100
AcDbEntity
  8
NETWORK
 62
   253
100
AcDbTrace
 10
4.800785
 20
3.661197
 30
0.0
 11
3.271295
 21
3.553336
 31
0.0
 12
3.475678
 22
3.54644
 32
0.0
 13
3.475678
 23
3.54644
 33
0.0
  0
SOLID
  5
4D
100
AcDbEntity
  8
NETWORK
 62
   253
100
AcDbTrace
 10
4.800785
 20
3.661197
 30
0.0
 11
3.475678
 21
3.54644
 31
0.0
 12
3.691114
 22
3.543433
 32
0.0
 13
3.691114
 23
3.543433
 33
0.0
  0
SOLID
  5
4E
100
AcDbEntity
  8
NETWORK
 62
   253
100
AcDbTrace
 10
4.800785
 20
3.661197
 30
0.0
 11
3.691114
 21
3.543433
 31
0.0
 12
3.908784
 22
3.544439
 32
0.0
 13
3.908784
 23
3.544439
 33
0.0
  0
SOLID
  5
4F
100
AcDbEntity
  8
NETWORK
 62
   253
100
AcDbTrace
 10
4.800785
 20
3.661197
 30
0.0
 11
3.908784
 21
3.544439
 31
0.0
 12
4.119776
 22
3.549416
 32
0.0
 13
4.119776
 23
3.549416
 33
0.0
  0
SOLID
  5
50
100
AcDbEntity
  8
NETWORK
 62
   253
100
AcDbTrace
 10
4.800785
 20
3.661197
 30
0.0
 11
4.119776
 21
3.549416
 31
0.0
 12
4.315452
 22
3.55816
 32
0.0
 13
4.315452
 23
3.55816
 33
0.0
  0
SOLID
  5
51
100
AcDbEntity
  8
NETWORK
 62
   253
100
AcDbTrace
 10
4.800785
 20
3.661197
 30
0.0
 11
4.315452
 21
3.55816
 31
0.0
 12
4.487801
 22
3.570315
 32
0.0
 13
4.487801
 23
3.570315
 33
0.0
  0
SOLID
  5
52
100
AcDbEntity
  8
NETWORK
 62
   253
100
AcDbTrace
 10
4.800785
 20
3.661197
 30
0.0
 11
4.487801
 21
3.570315
 31
0.0
 12
4.629768
 22
3.585381
 32
0.0
 13
4.629768
 23
3.585381
 33
0.0
  0
SOLID
  5
53
100
AcDbEntity
  8
NETWORK
 62
   253
100
AcDbTrace
 10
4.800785
 20
3.661197
 30
0.0
 11
4.629768
 21
3.585381
 31
0.0
 12
4.735539
 22
3.602742
 32
0.0
 13
4.735539
 23
3.602742
 33
0.0
  0
SOLID
  5
54
100
AcDbEntity
  8
NETWORK
 62
   253
100
AcDbTrace
 10
4.800785
 20
3.661197
 30
0.0
 11
4.735539
 21
3.602742
 31
0.0
 12
4.800785
 22
3.621688
 32
0.0
 13
4.800785
 23
3.621688
 33
0.0
  0
SOLID
  5
55
100
AcDbEntity
  8
NETWORK
 62
   253
100
AcDbTrace
 10
4.800785
 20
3.661197
 30
0.0
 11
4.800785
 21
3.621688
 31
0.0
 12
4.822835
 22
3.641442
 32
0.0
 13
4.822835
 23
3.641442
 33
0.0
  0
POLYLINE
  5
56
100
AcDbEntity
  8
NETWORK
  6
CONTINUOUS
 62
     7
100
AcDb2dPolyline
 66
     1
 10
0.0
 20
0.0
 30
0.0
 70
     1
  0
VERTEX
  5
57
100
AcDbEntity
  8
NETWORK
  6
CONTINUOUS
 62
     7
100
AcDbVertex
100
AcDb2dVertex
 10
4.822835
 20
3.641442
 30
0.0
 42
0.352133
  0
VERTEX
  5
58
100
AcDbEntity
  8
NETWORK
  6
CONTINUOUS
 62
     7
100
AcDbVertex
100
AcDb2dVertex
 10
4.740841
 20
3.678997
 30
0.0
 42
0.031422
  0
VERTEX
  5
59
100
AcDbEntity
  8
NETWORK
  6
CONTINUOUS
 62
     7
100
AcDbVertex
100
AcDb2dVertex
 10
4.507341
 20
3.710834
 30
0.0
 42
0.013285
  0
VERTEX
  5
5A
100
AcDbEntity
  8
NETWORK
  6
CONTINUOUS
 62
     7
100
AcDbVertex
100
AcDb2dVertex
 10
4.157884
 20
3.732107
 30
0.0
 42
0.00943
  0
VERTEX
  5
5B
100
AcDbEntity
  8
NETWORK
  6
CONTINUOUS
 62
     7
100
AcDbVertex
100
AcDb2dVertex
 10
3.745672
 20
3.739578
 30
0.0
 42
0.00943
  0
VERTEX
  5
5C
100
AcDbEntity
  8
NETWORK
  6
CONTINUOUS
 62
     7
100
AcDbVertex
100
AcDb2dVertex
 10
3.333459
 20
3.732107
 30
0.0
 42
0.013285
  0
VERTEX
  5
5D
100
AcDbEntity
  8
NETWORK
  6
CONTINUOUS
 62
     7
100
AcDbVertex
100
AcDb2dVertex
 10
2.984003
 20
3.710834
 30
0.0
 42
0.031422
  0
VERTEX
  5
5E
100
AcDbEntity
  8
NETWORK
  6
CONTINUOUS
 62
     7
100
AcDbVertex
100
AcDb2dVertex
 10
2.750503
 20
3.678997
 30
0.0
 42
0.352133
  0
VERTEX
  5
5F
100
AcDbEntity
  8
NETWORK
  6
CONTINUOUS
 62
     7
100
AcDbVertex
100
AcDb2dVertex
 10
2.668509
 20
3.641442
 30
0.0
 42
0.352133
  0
VERTEX
  5
60
100
AcDbEntity
  8
NETWORK
  6
CONTINUOUS
 62
     7
100
AcDbVertex
100
AcDb2dVertex
 10
2.750503
 20
3.603888
 30
0.0
 42
0.031422
  0
VERTEX
  5
61
100
AcDbEntity
  8
NETWORK
  6
CONTINUOUS
 62
     7
100
AcDbVertex
100
AcDb2dVertex
 10
2.984003
 20
3.57205
 30
0.0
 42
0.013285
  0
VERTEX
  5
62
100
AcDbEntity
  8
NETWORK
  6
CONTINUOUS
 62
     7
100
AcDbVertex
100
AcDb2dVertex
 10
3.333459
 20
3.550777
 30
0.0
 42
0.00943
  0
VERTEX
  5
63
100
AcDbEntity
  8
NETWORK
  6
CONTINUOUS
 62
     7
100
AcDbVertex
100
AcDb2dVertex
 10
3.745672
 20
3.543307
 30
0.0
 42
0.00943
  0
VERTEX
  5
64
100
AcDbEntity
  8
NETWORK
  6
CONTINUOUS
 62
     7
100
AcDbVertex
100
AcDb2dVertex
 10
4.157884
 20
3.550777
 30
0.0
 42
0.013285
  0
VERTEX
  5
65
100
AcDbEntity
  8
NETWORK
  6
CONTINUOUS
 62
     7
100
AcDbVertex
100
AcDb2dVertex
 10
4.507341
 20
3.57205
 30
0.0
 42
0.031422
  0
VERTEX
  5
66
100
AcDbEntity
  8
NETWORK
  6
CONTINUOUS
 62
     7
100
AcDbVertex
100
AcDb2dVertex
 10
4.740841
 20
3.603888
 30
0.0
 42
0.352133
  0
SEQEND
  5
67
100
AcDbEntity
  8
NETWORK
  6
CONTINUOUS
 62
     7
  0
SOLID
  5
68
100
AcDbEntity
  8
NETWORK
 62
   253
100
AcDbTrace
 10
4.062454
 20
3.693428
 30
0.0
 11
3.5146
 21
3.697424
 31
0.0
 12
3.521806
 22
4.316122
 32
0.0
 13
3.521806
 23
4.316122
 33
0.0
  0
SOLID
  5
69
100
AcDbEntity
  8
NETWORK
 62
   253
100
AcDbTrace
 10
4.062454
 20
3.693428
 30
0.0
 11
3.521806
 21
4.316122
 31
0.0
 12
3.976736
 22
4.322152
 32
0.0
 13
3.976736
 23
4.322152
 33
0.0
  0
POLYLINE
  5
6A
100
AcDbEntity
  8
NETWORK
  6
CONTINUOUS
 62
     7
100
AcDb2dPolyline
 66
     1
 10
0.0
 20
0.0
 30
0.0
 70
     1
  0
VERTEX
  5
6B
100
AcDbEntity
  8
NETWORK
  6
CONTINUOUS
 62
     7
100
AcDbVertex
100
AcDb2dVertex
 10
3.976736
 20
4.322152
 30
0.0
  0
VERTEX
  5
6C
100
AcDbEntity
  8
NETWORK
  6
CONTINUOUS
 62
     7
100
AcDbVertex
100
AcDb2dVertex
 10
4.062454
 20
3.693428
 30
0.0
 42
0.006836
  0
VERTEX
  5
6D
100
AcDbEntity
  8
NETWORK
  6
CONTINUOUS
 62
     7
100
AcDbVertex
100
AcDb2dVertex
 10
3.5146
 20
3.697424
 30
0.0
  0
VERTEX
  5
6E
100
AcDbEntity
  8
NETWORK
  6
CONTINUOUS
 62
     7
100
AcDbVertex
100
AcDb2dVertex
 10
3.521806
 20
4.316122
 30
0.0
  0
SEQEND
  5
6F
100
AcDbEntity
  8
NETWORK
  6
CONTINUOUS
 62
     7
  0
SOLID
  5
70
100
AcDbEntity
  8
NETWORK
 62
   253
100
AcDbTrace
 10
4.369359
 20
4.3835
 30
0.0
 11
4.535591
 21
5.708661
 31
0.0
 12
2.890404
 22
5.65263
 32
0.0
 13
2.890404
 23
5.65263
 33
0.0
  0
SOLID
  5
71
100
AcDbEntity
  8
NETWORK
 62
   253
100
AcDbTrace
 10
4.369359
 20
4.3835
 30
0.0
 11
2.890404
 21
5.65263
 31
0.0
 12
2.65748
 22
4.37738
 32
0.0
 13
2.65748
 23
4.37738
 33
0.0
  0
POLYLINE
  5
72
100
AcDbEntity
  8
NETWORK
  6
CONTINUOUS
 62
     7
100
AcDb2dPolyline
 66
     1
 10
0.0
 20
0.0
 30
0.0
 70
     1
  0
VERTEX
  5
73
100
AcDbEntity
  8
NETWORK
  6
CONTINUOUS
 62
     7
100
AcDbVertex
100
AcDb2dVertex
 10
2.65748
 20
4.37738
 30
0.0
  0
VERTEX
  5
74
100
AcDbEntity
  8
NETWORK
  6
CONTINUOUS
 62
     7
100
AcDbVertex
100
AcDb2dVertex
 10
4.369359
 20
4.3835
 30
0.0
  0
VERTEX
  5
75
100
AcDbEntity
  8
NETWORK
  6
CONTINUOUS
 62
     7
100
AcDbVertex
100
AcDb2dVertex
 10
4.535591
 20
5.708661
 30
0.0
  0
VERTEX
  5
76
100
AcDbEntity
  8
NETWORK
  6
CONTINUOUS
 62
     7
100
AcDbVertex
100
AcDb2dVertex
 10
2.890404
 20
5.65263
 30
0.0
  0
SEQEND
  5
77
100
AcDbEntity
  8
NETWORK
  6
CONTINUOUS
 62
     7
  0
SOLID
  5
78
100
AcDbEntity
  8
NETWORK
 62
   253
100
AcDbTrace
 10
2.709887
 20
4.332009
 30
0.0
 11
4.410992
 21
4.332927
 31
0.0
 12
4.59304
 22
5.677749
 32
0.0
 13
4.59304
 23
5.677749
 33
0.0
  0
SOLID
  5
79
100
AcDbEntity
  8
NETWORK
 62
   253
100
AcDbTrace
 10
2.709887
 20
4.332009
 30
0.0
 11
4.59304
 21
5.677749
 31
0.0
 12
4.5371
 22
5.677606
 32
0.0
 13
4.5371
 23
5.677606
 33
0.0
  0
SOLID
  5
7A
100
AcDbEntity
  8
NETWORK
 62
   253
100
AcDbTrace
 10
2.709887
 20
4.332009
 30
0.0
 11
4.5371
 21
5.677606
 31
0.0
 12
4.370667
 22
4.393926
 32
0.0
 13
4.370667
 23
4.393926
 33
0.0
  0
SOLID
  5
7B
100
AcDbEntity
  8
NETWORK
 62
   253
100
AcDbTrace
 10
2.709887
 20
4.332009
 30
0.0
 11
4.370667
 21
4.393926
 31
0.0
 12
2.697233
 22
4.377484
 32
0.0
 13
2.697233
 23
4.377484
 33
0.0
  0
POLYLINE
  5
7C
100
AcDbEntity
  8
NETWORK
  6
CONTINUOUS
 62
     7
100
AcDb2dPolyline
 66
     1
 10
0.0
 20
0.0
 30
0.0
 70
     1
  0
VERTEX
  5
7D
100
AcDbEntity
  8
NETWORK
  6
CONTINUOUS
 62
     7
100
AcDbVertex
100
AcDb2dVertex
 10
2.697233
 20
4.377484
 30
0.0
 42
-0.115024
  0
VERTEX
  5
7E
100
AcDbEntity
  8
NETWORK
  6
CONTINUOUS
 62
     7
100
AcDbVertex
100
AcDb2dVertex
 10
2.709887
 20
4.332009
 30
0.0
  0
VERTEX
  5
7F
100
AcDbEntity
  8
NETWORK
  6
CONTINUOUS
 62
     7
100
AcDbVertex
100
AcDb2dVertex
 10
4.410992
 20
4.332927
 30
0.0
  0
VERTEX
  5
80
100
AcDbEntity
  8
NETWORK
  6
CONTINUOUS
 62
     7
100
AcDbVertex
100
AcDb2dVertex
 10
4.59304
 20
5.677749
 30
0.0
  0
VERTEX
  5
81
100
AcDbEntity
  8
NETWORK
  6
CONTINUOUS
 62
     7
100
AcDbVertex
100
AcDb2dVertex
 10
4.5371
 20
5.677606
 30
0.0
  0
VERTEX
  5
82
100
AcDbEntity
  8
NETWORK
  6
CONTINUOUS
 62
     7
100
AcDbVertex
100
AcDb2dVertex
 10
4.370667
 20
4.393926
 30
0.0
  0
SEQEND
  5
83
100
AcDbEntity
  8
NETWORK
  6
CONTINUOUS
 62
     7
  0
SOLID
  5
84
100
AcDbEntity
  8
NETWORK
 62
   253
100
AcDbTrace
 10
2.876538
 20
4.52587
 30
0.0
 11
4.186757
 21
4.52587
 31
0.0
 12
4.305796
 22
5.536612
 32
0.0
 13
4.305796
 23
5.536612
 33
0.0
  0
SOLID
  5
85
100
AcDbEntity
  8
NETWORK
 62
   253
100
AcDbTrace
 10
2.876538
 20
4.52587
 30
0.0
 11
4.305796
 21
5.536612
 31
0.0
 12
3.028025
 22
5.504744
 32
0.0
 13
3.028025
 23
5.504744
 33
0.0
  0
POLYLINE
  5
86
100
AcDbEntity
  8
NETWORK
  6
CONTINUOUS
 62
     7
100
AcDb2dPolyline
 66
     1
 10
0.0
 20
0.0
 30
0.0
 70
     1
  0
VERTEX
  5
87
100
AcDbEntity
  8
NETWORK
  6
CONTINUOUS
 62
     7
100
AcDbVertex
100
AcDb2dVertex
 10
3.028025
 20
5.504744
 30
0.0
  0
VERTEX
  5
88
100
AcDbEntity
  8
NETWORK
  6
CONTINUOUS
 62
     7
100
AcDbVertex
100
AcDb2dVertex
 10
2.876538
 20
4.52587
 30
0.0
  0
VERTEX
  5
89
100
AcDbEntity
  8
NETWORK
  6
CONTINUOUS
 62
     7
100
AcDbVertex
100
AcDb2dVertex
 10
4.186757
 20
4.52587
 30
0.0
  0
VERTEX
  5
8A
100
AcDbEntity
  8
NETWORK
  6
CONTINUOUS
 62
     7
100
AcDbVertex
100
AcDb2dVertex
 10
4.305796
 20
5.536612
 30
0.0
  0
SEQEND
  5
8B
100
AcDbEntity
  8
NETWORK
  6
CONTINUOUS
 62
     7
  0
TEXT
  5
8D
100
AcDbEntity
  8
NETWORK
 62
     7
100
AcDbText
 10
3.282982
 20
3.407196
 30
0.0
 40
0.111111
  1
Flat screen
  7
_NET_TEXT
 72
     1
 11
3.740157
 21
3.448863
 31
0.0
100
AcDbText
 73
     2
  0
ENDBLK
  5
8F
100
AcDbEntity
  8
0
100
AcDbBlockEnd
  0
ENDSEC
  0
SECTION
  2
ENTITIES
  0
INSERT
  5
90
100
AcDbEntity
  8
NETWORK
100
AcDbBlockReference
 66
     1
  2
FLAT_SCREEN_MONITOR
 10
3.740157
 20
4.625984
 30
0.0
  0
ATTRIB
  5
91
100
AcDbEntity
  8
NETWORK
100
AcDbText
 10
3.740157
 20
52.250984
 30
0.0
 40
6.35
  1

100
AcDbAttribute
  2
MANUFACTURER
 70
     1
  0
ATTRIB
  5
92
100
AcDbEntity
  8
NETWORK
100
AcDbText
 10
3.740157
 20
42.725984
 30
0.0
 40
6.35
  1

100
AcDbAttribute
  2
PRODUCTNUMBER
 70
     1
  0
ATTRIB
  5
93
100
AcDbEntity
  8
NETWORK
100
AcDbText
 10
3.740157
 20
33.200984
 30
0.0
 40
6.35
  1

100
AcDbAttribute
  2
PARTNUMBER
 70
     1
  0
ATTRIB
  5
94
100
AcDbEntity
  8
NETWORK
100
AcDbText
 10
3.740157
 20
23.675984
 30
0.0
 40
6.35
  1

100
AcDbAttribute
  2
PRODUCTDESCRIPTION
 70
     1
  0
ATTRIB
  5
95
100
AcDbEntity
  8
NETWORK
100
AcDbText
 10
3.740157
 20
14.150984
 30
0.0
 40
6.35
  1

100
AcDbAttribute
  2
ASSETNUMBER
 70
     1
  0
ATTRIB
  5
96
100
AcDbEntity
  8
NETWORK
100
AcDbText
 10
3.740157
 20
4.625984
 30
0.0
 40
6.35
  1

100
AcDbAttribute
  2
SERIALNUMBER
 70
     1
  0
ATTRIB
  5
97
100
AcDbEntity
  8
NETWORK
100
AcDbText
 10
3.740157
 20
-4.899016
 30
0.0
 40
6.35
  1

100
AcDbAttribute
  2
LOCATION
 70
     1
  0
ATTRIB
  5
98
100
AcDbEntity
  8
NETWORK
100
AcDbText
 10
3.740157
 20
-14.424016
 30
0.0
 40
6.35
  1

100
AcDbAttribute
  2
BUILDING
 70
     1
  0
ATTRIB
  5
99
100
AcDbEntity
  8
NETWORK
100
AcDbText
 10
3.740157
 20
-23.949016
 30
0.0
 40
6.35
  1

100
AcDbAttribute
  2
ROOM
 70
     1
  0
ATTRIB
  5
9A
100
AcDbEntity
  8
NETWORK
100
AcDbText
 10
3.740157
 20
-33.474016
 30
0.0
 40
6.35
  1

100
AcDbAttribute
  2
DEPARTMENT
 70
     1
  0
SEQEND
  5
9B
100
AcDbEntity
  8
NETWORK
  0
ENDSEC
  0
SECTION
  2
OBJECTS
  0
DICTIONARY
  5
C
100
AcDbDictionary
  3
ACAD_GROUP
350
D
  3
ACAD_MLINESTYLE
350
1B
  0
DICTIONARY
  5
D
102
{ACAD_REACTORS
330
C
102
}
100
AcDbDictionary
  0
DICTIONARY
  5
1B
102
{ACAD_REACTORS
330
C
102
}
100
AcDbDictionary
  3
STANDARD
350
1C
  0
MLINESTYLE
  5
1C
102
{ACAD_REACTORS
330
1B
102
}
100
AcDbMlineStyle
  2
STANDARD
 70
     0
  3

 62
   256
 51
90.0
 52
90.0
 71
     2
 49
0.5
 62
   256
  6
BYLAYER
 49
-0.5
 62
   256
  6
BYLAYER
  0
ENDSEC
  0
EOF
